{
.appVersion = "3259";
DisplayStrings = (
"/puntos/dottedCircle",
"/puntos/dottedCircle",
"/puntos/dottedCircle",
"/dottedCircle",
"",
"/Amacron",
"/Abrevehookabove",
"/greaterequal",
"/lessequal",
"/approxequal",
"+<=>",
"+",
"±",
"/minus",
">",
"/a.sc",
"/Abrevetilde",
"/Scircumflex",
""
);
customParameters = (
{
name = panose;
value = (
0,
0,
0,
0,
0,
0,
0,
0,
0,
0
);
},
{
name = unicodeRanges;
value = (
0,
1,
2,
3,
5,
7,
29,
31,
32,
33,
35,
38,
45,
60,
62
);
},
{
name = fsType;
value = (
);
},
{
name = glyphOrder;
value = (
.notdef,
.null,
CR,
space,
LF,
exclam,
quotedbl,
numbersign,
dollar,
percent,
ampersand,
quotesingle,
parenleft,
parenright,
asterisk,
plus,
comma,
hyphen,
period,
slash,
zero,
one,
two,
three,
four,
five,
six,
seven,
eight,
nine,
colon,
semicolon,
less,
equal,
greater,
question,
at,
A,
B,
C,
D,
E,
F,
G,
H,
I,
J,
K,
L,
M,
N,
O,
P,
Q,
R,
S,
T,
U,
V,
W,
X,
Y,
Z,
bracketleft,
backslash,
bracketright,
underscore,
grave,
a,
b,
c,
d,
e,
f,
g,
h,
i,
j,
k,
l,
m,
n,
o,
p,
q,
r,
s,
t,
u,
v,
w,
x,
y,
z,
braceleft,
braceright,
asciitilde,
uni00A0,
exclamdown,
cent,
sterling,
currency,
yen,
brokenbar,
section,
dieresis,
copyright,
ordfeminine,
logicalnot,
uni00AD,
registered,
degree,
plusminus,
uni00B2,
uni00B3,
acute,
uni00B5,
paragraph,
cedilla,
uni00B9,
ordmasculine,
onequarter,
onehalf,
threequarters,
questiondown,
Agrave,
Aacute,
Acircumflex,
Atilde,
Adieresis,
Aring,
AE,
Ccedilla,
Egrave,
Eacute,
Ecircumflex,
Edieresis,
Igrave,
Iacute,
Icircumflex,
Idieresis,
Eth,
Ntilde,
Ograve,
Oacute,
Ocircumflex,
Otilde,
Odieresis,
multiply,
Oslash,
Ugrave,
Uacute,
Ucircumflex,
Udieresis,
Yacute,
Thorn,
germandbls,
agrave,
aacute,
acircumflex,
atilde,
adieresis,
aring,
ae,
ccedilla,
egrave,
eacute,
ecircumflex,
edieresis,
igrave,
iacute,
icircumflex,
idieresis,
eth,
ntilde,
ograve,
oacute,
ocircumflex,
otilde,
odieresis,
divide,
oslash,
ugrave,
uacute,
ucircumflex,
udieresis,
yacute,
thorn,
ydieresis,
dotlessi,
OE,
oe,
florin,
circumflex,
caron,
breve,
ogonek,

glyphs = (
{
glyphname = quotedbl;
lastChange = "2024-04-27 01:28:24 +0000";
layers = (
{
layerId = "45F6A7D2-68A2-4980-BE0C-7C210C91EB90";
paths = (
{
closed = 1;
nodes = (
"314 501 LINE",
"314 800 LINE",
"223 800 LINE",
"223 501 LINE"
);
},
{
closed = 1;
nodes = (
"141 501 LINE",
"141 800 LINE",
"50 800 LINE",
"50 501 LINE"
);
}
);
width = 364;
}
);
leftMetricsKey = O;
rightMetricsKey = O;
unicode = 0022;
},
{
glyphname = numbersign;
lastChange = "2024-02-16 04:22:05 +0000";
layers = (
{
layerId = "45F6A7D2-68A2-4980-BE0C-7C210C91EB90";
paths = (
{
closed = 1;
nodes = (
"494 0 LINE",
"653 700 LINE",
"545 700 LINE",
"387 0 LINE"
);
},
{
closed = 1;
nodes = (
"659 164 LINE",
"687 266 LINE",
"96 265 LINE",
"70 162 LINE"
);
},
{
closed = 1;
nodes = (
"270 0 LINE",
"429 700 LINE",
"321 700 LINE",
"163 0 LINE"
);
},
{
closed = 1;
nodes = (
"703 396 LINE",
"731 498 LINE",
"140 497 LINE",
"114 394 LINE"
);
}
);
width = 791;
}
);
unicode = 0023;
},
{
glyphname = dollar;
lastChange = "2024-02-16 04:22:05 +0000";
layers = (
{
components = (
{
name = S;
}
);
layerId = "45F6A7D2-68A2-4980-BE0C-7C210C91EB90";
paths = (
{
closed = 1;
nodes = (
"289 602 LINE",
"285 779 LINE",
"194 779 LINE",
"197 602 LINE"
);
},
{
closed = 1;
nodes = (
"289 -86 LINE",
"286 91 LINE",
"195 91 LINE",
"197 -86 LINE"
);
}
);
width = 600;
}
);
unicode = 0024;
},
{
glyphname = percent;
lastChange = "2024-02-16 04:22:05 +0000";
layers = (
{
components = (
{
name = degree;
transform = "{1.1525, 0, 0, 1.1525, 363, -541}";
},
{
name = degree;
transform = "{1.1525, 0, 0, 1.1525, 17, -123}";
}
);
layerId = "45F6A7D2-68A2-4980-BE0C-7C210C91EB90";
paths = (
{
closed = 1;
nodes = (
"227 0 LINE",
"599 702 LINE",
"486 702 LINE",
"114 0 LINE"
);
}
);
width = 734;
}
);
unicode = 0025;
},
{
glyphname = quotesingle;
lastChange = "2024-02-16 04:22:05 +0000";
layers = (
{
layerId = "45F6A7D2-68A2-4980-BE0C-7C210C91EB90";
paths = (
{
closed = 1;
nodes = (
"141 501 LINE",
"141 800 LINE",
"50 800 LINE",
"50 501 LINE"
);
}
);
width = 191;
}
);
leftMetricsKey = O;
rightMetricsKey = O;
unicode = 0027;
},
{
glyphname = parenleft;
lastChange = "2024-04-06 08:03:50 +0000";
layers = (
{
layerId = "45F6A7D2-68A2-4980-BE0C-7C210C91EB90";
paths = (
{
closed = 1;
nodes = (
"322 -57 LINE",
"322 -57 OFFCURVE",
"173 -36 OFFCURVE",
"173 121 CURVE SMOOTH",
"173 453 LINE SMOOTH",
"173 610 OFFCURVE",
"322 631 OFFCURVE",
"322 631 CURVE",
"322 740 LINE",
"225 738 OFFCURVE",
"73 676 OFFCURVE",
"71 458 CURVE SMOOTH",
"70 380 OFFCURVE",
"70 200 OFFCURVE",
"71 116 CURVE SMOOTH",
"73 -102 OFFCURVE",
"225 -164 OFFCURVE",
"322 -166 CURVE"
);
}
);
width = 352;
}
);
leftMetricsKey = "=H";
rightMetricsKey = F;
unicode = 0028;
},
{
glyphname = parenright;
lastChange = "2024-04-06 08:03:50 +0000";
layers = (
{
layerId = "45F6A7D2-68A2-4980-BE0C-7C210C91EB90";
paths = (
{
closed = 1;
nodes = (
"127 -164 OFFCURVE",
"279 -102 OFFCURVE",
"281 116 CURVE SMOOTH",
"282 200 OFFCURVE",
"282 380 OFFCURVE",
"281 458 CURVE SMOOTH",
"279 676 OFFCURVE",
"127 738 OFFCURVE",
"30 740 CURVE",
"30 631 LINE",
"30 631 OFFCURVE",
"179 610 OFFCURVE",
"179 453 CURVE SMOOTH",
"179 121 LINE SMOOTH",
"179 -36 OFFCURVE",
"30 -57 OFFCURVE",
"30 -57 CURVE",
"30 -166 LINE"
);
}
);
width = 352;
}
);
leftMetricsKey = "=|F";
rightMetricsKey = H;
unicode = 0029;
},
{
glyphname = asterisk;
lastChange = "2024-04-06 08:03:50 +0000";
layers = (
{
layerId = "45F6A7D2-68A2-4980-BE0C-7C210C91EB90";
paths = (
{
closed = 1;
nodes = (
"476 598 LINE",
"437 663 LINE",
"31 423 LINE",
"70 360 LINE"
);
},
{
closed = 1;
nodes = (
"477 425 LINE",
"65 661 LINE",
"30 596 LINE",
"441 362 LINE"
);
},
{
closed = 1;
nodes = (
"292 284 LINE",
"290 738 LINE",
"215 738 LINE",
"216 284 LINE"
);
}
);
width = 507;
}
);
leftMetricsKey = "=|F";
rightMetricsKey = F;
unicode = 002A;
},
{
glyphname = plus;
lastChange = "2024-02-16 04:22:05 +0000";
layers = (
{
layerId = "45F6A7D2-68A2-4980-BE0C-7C210C91EB90";
paths = (
{
closed = 1;
nodes = (
"354 39 LINE",
"354 485 LINE",
"244 485 LINE",
"244 39 LINE"
);
},
{
closed = 1;
nodes = (
"522 211 LINE",
"522 313 LINE",
"76 313 LINE",
"76 211 LINE"
);
}
);
width = 600;
}
);
unicode = 002B;
},
{
glyphname = comma;
lastChange = "2024-02-16 04:22:05 +0000";
layers = (
{
layerId = "45F6A7D2-68A2-4980-BE0C-7C210C91EB90";
paths = (
{
closed = 1;
nodes = (
"116 -127 OFFCURVE",
"212 -50 OFFCURVE",
"212 142 CURVE",
"107 143 LINE",
"107 -7 OFFCURVE",
"53 -55 OFFCURVE",
"10 -60 CURVE",
"10 -136 LINE"
);
}
);
width = 262;
}
);
rightMetricsKey = O;
unicode = 002C;
},
{
glyphname = hyphen;
lastChange = "2024-02-16 04:22:05 +0000";
layers = (
{
layerId = "45F6A7D2-68A2-4980-BE0C-7C210C91EB90";
paths = (
{
closed = 1;
nodes = (
"414 262 LINE",
"414 372 LINE",
"70 372 LINE",
"70 262 LINE"
);
}
);
width = 474;
}
);
unicode = 002D;
},
{
glyphname = period;
lastChange = "2024-04-04 02:50:41 +0000";
layers = (
{
layerId = "45F6A7D2-68A2-4980-BE0C-7C210C91EB90";
paths = (
{
closed = 1;
nodes = (
"174 1 LINE",
"174 135 LINE",
"40 135 LINE",
"40 1 LINE"
);
}
);
width = 214;
}
);
rightMetricsKey = t;
unicode = 002E;
},
{
glyphname = slash;
lastChange = "2024-02-16 04:22:05 +0000";
layers = (
{
layerId = "45F6A7D2-68A2-4980-BE0C-7C210C91EB90";
paths = (
{
closed = 1;
nodes = (
"118 -117 LINE",
"380 698 LINE",
"262 698 LINE",
"0 -117 LINE"
);
}
);
width = 430;
}
);
rightMetricsKey = D;
unicode = 002F;
},
{
glyphname = zero;
lastChange = "2024-04-27 03:01:13 +0000";
layers = (
{
components = (
{
name = period;
transform = "{0.66348, -0.66348, 0.66348, 0.66348, 204, 376}";
}
);
layerId = "45F6A7D2-68A2-4980-BE0C-7C210C91EB90";
paths = (
{
closed = 1;
nodes = (
"476 -4 OFFCURVE",
"584 139 OFFCURVE",
"584 314 CURVE SMOOTH",
"584 388 LINE SMOOTH",
"584 561 OFFCURVE",
"478 705 OFFCURVE",
"317 705 CURVE SMOOTH",
"156 705 OFFCURVE",
"50 561 OFFCURVE",
"50 388 CURVE SMOOTH",
"50 314 LINE SMOOTH",
"50 139 OFFCURVE",
"158 -4 OFFCURVE",
"317 -4 CURVE SMOOTH"
);
},
{
closed = 1;
nodes = (
"212 101 OFFCURVE",
"157 194 OFFCURVE",
"157 313 CURVE SMOOTH",
"157 389 LINE SMOOTH",
"157 510 OFFCURVE",
"213 601 OFFCURVE",
"317 601 CURVE SMOOTH",
"421 601 OFFCURVE",
"477 510 OFFCURVE",
"477 389 CURVE SMOOTH",
"477 313 LINE SMOOTH",
"477 194 OFFCURVE",
"422 101 OFFCURVE",
"317 101 CURVE SMOOTH"
);
}
);
width = 634;
}
);
leftMetricsKey = O;
rightMetricsKey = O;
unicode = 0030;
},
{
glyphname = one;
lastChange = "2024-02-19 04:04:58 +0000";
layers = (
{
layerId = "45F6A7D2-68A2-4980-BE0C-7C210C91EB90";
paths = (
{
closed = 1;
nodes = (
"276 0 LINE",
"277 194 LINE",
"277 427 LINE SMOOTH",
"277 645 OFFCURVE",
"147 707 OFFCURVE",
"60 706 CURVE",
"60 597 LINE",
"94 592 OFFCURVE",
"161 583 OFFCURVE",
"160 426 CURVE SMOOTH",
"160 0 LINE"
);
}
);
width = 347;
}
);
rightMetricsKey = H;
unicode = 0031;
},
{
glyphname = two;
lastChange = "2024-04-06 01:54:28 +0000";
layers = (
{
layerId = "45F6A7D2-68A2-4980-BE0C-7C210C91EB90";
paths = (
{
closed = 1;
nodes = (
"505 0 LINE",
"505 107 LINE",
"160 108 LINE",
"161 228 OFFCURVE",
"255 298 OFFCURVE",
"397 366 CURVE SMOOTH",
"489 414 LINE",
"489 662 OFFCURVE",
"259 703 OFFCURVE",
"117 701 CURVE SMOOTH",
"47 700 LINE",
"47 590 LINE",
"117 590 LINE SMOOTH",
"244 590 OFFCURVE",
"356 574 OFFCURVE",
"369 470 CURVE",
"139 355 OFFCURVE",
"40 268 OFFCURVE",
"40 98 CURVE SMOOTH",
"40 0 LINE"
);
}
);
width = 565;
}
);
leftMetricsKey = Z;
rightMetricsKey = Z;
unicode = 0032;
},
{
glyphname = four;
lastChange = "2024-02-16 04:22:05 +0000";
layers = (
{
layerId = "45F6A7D2-68A2-4980-BE0C-7C210C91EB90";
paths = (
{
closed = 1;
nodes = (
"510 0 LINE",
"510 700 LINE",
"408 700 LINE SMOOTH",
"229 700 OFFCURVE",
"40 587 OFFCURVE",
"40 335 CURVE SMOOTH",
"40 204 LINE",
"394 204 LINE",
"394 0 LINE"
);
},
{
closed = 1;
nodes = (
"156 330 LINE SMOOTH",
"156 509 OFFCURVE",
"250 576 OFFCURVE",
"394 590 CURVE",
"394 311 LINE",
"156 311 LINE"
);
}
);
width = 550;
}
);
leftMetricsKey = Y;
rightMetricsKey = n;
unicode = 0034;
},
{
glyphname = five;
lastChange = "2024-02-16 04:22:05 +0000";
layers = (
{
components = (
{
alignment = -1;
name = curva_3;
transform = "{1, 0, 0, 1, 12, 0}";
}
);
layerId = "45F6A7D2-68A2-4980-BE0C-7C210C91EB90";
paths = (
{
closed = 1;
nodes = (
"176 346 LINE",
"176 448 LINE SMOOTH",
"176 535 OFFCURVE",
"191 594 OFFCURVE",
"383 594 CURVE",
"374 701 LINE",
"226 701 OFFCURVE",
"42 679 OFFCURVE",
"68 346 CURVE"
);
},
{
closed = 1;
nodes = (
"468 594 LINE",
"468 701 LINE",
"359 701 LINE",
"359 594 LINE"
);
}
);
width = 513;
}
);
leftMetricsKey = S;
rightMetricsKey = S;
unicode = 0035;
},
{
glyphname = seven;
lastChange = "2024-04-06 08:03:43 +0000";
layers = (
{
layerId = "45F6A7D2-68A2-4980-BE0C-7C210C91EB90";
paths = (
{
closed = 1;
nodes = (
"211 0 LINE",
"520 700 LINE",
"402 700 LINE",
"93 0 LINE"
);
},
{
closed = 1;
nodes = (
"415 590 LINE",
"507 700 LINE",
"30 700 LINE",
"30 590 LINE"
);
}
);
width = 550;
}
);
leftMetricsKey = "=|F";
rightMetricsKey = F;
unicode = 0037;
},
{
glyphname = eight;
lastChange = "2024-04-04 02:50:41 +0000";
layers = (
{
layerId = "45F6A7D2-68A2-4980-BE0C-7C210C91EB90";
paths = (
{
closed = 1;
nodes = (
"432 -6 OFFCURVE",
"540 76 OFFCURVE",
"540 226 CURVE SMOOTH",
"540 330 OFFCURVE",
"491 382 OFFCURVE",
"405 414 CURVE",
"428 424 OFFCURVE",
"441 441 OFFCURVE",
"459 457 CURVE SMOOTH",
"519 511 OFFCURVE",
"533 600 OFFCURVE",
"532 700 CURVE",
"295 700 LINE",
"295 -6 LINE"
);
},
{
closed = 1;
nodes = (
"202 97 OFFCURVE",
"163 148 OFFCURVE",
"163 228 CURVE SMOOTH",
"163 302 OFFCURVE",
"204 354 OFFCURVE",
"295 358 CURVE",
"295 97 LINE"
);
},
{
closed = 1;
nodes = (
"295 700 LINE",
"58 700 LINE",
"57 600 OFFCURVE",
"71 511 OFFCURVE",
"131 457 CURVE SMOOTH",
"149 441 OFFCURVE",
"162 424 OFFCURVE",
"185 414 CURVE",
"99 382 OFFCURVE",
"50 330 OFFCURVE",
"50 226 CURVE SMOOTH",
"50 76 OFFCURVE",
"158 -6 OFFCURVE",
"295 -6 CURVE"
);
},
{
closed = 1;
nodes = (
"295 358 LINE",
"386 354 OFFCURVE",
"427 302 OFFCURVE",
"427 228 CURVE SMOOTH",
"427 148 OFFCURVE",
"388 97 OFFCURVE",
"295 97 CURVE"
);
},
{
closed = 1;
nodes = (
"237 471 OFFCURVE",
"187 531 OFFCURVE",
"178 593 CURVE",
"295 593 LINE",
"295 454 LINE"
);
},
{
closed = 1;
nodes = (
"295 593 LINE",
"412 593 LINE",
"403 531 OFFCURVE",
"353 471 OFFCURVE",
"295 454 CURVE"
);
}
);
width = 580;
}
);
leftMetricsKey = o;
rightMetricsKey = o;
unicode = 0038;
},
{
glyphname = semicolon;
lastChange = "2024-04-06 08:03:50 +0000";
layers = (
{
components = (
{
name = dotaccent;
transform = "{1, 0, 0, 1, 96, -346}";
}
);
layerId = "45F6A7D2-68A2-4980-BE0C-7C210C91EB90";
paths = (
{
closed = 1;
nodes = (
"151 -126 OFFCURVE",
"257 -67 OFFCURVE",
"257 183 CURVE",
"141 184 LINE",
"141 12 OFFCURVE",
"89 -43 OFFCURVE",
"30 -49 CURVE",
"30 -136 LINE"
);
}
);
width = 293;
}
);
leftMetricsKey = "=|F";
rightMetricsKey = F;
unicode = 003B;
},
{
glyphname = less;
lastChange = "2024-04-27 03:24:34 +0000";
layers = (
{
layerId = "45F6A7D2-68A2-4980-BE0C-7C210C91EB90";
paths = (
{
closed = 1;
nodes = (
"545 144 LINE",
"178 311 LINE",
"545 477 LINE",
"545 562 LINE",
"55 352 LINE",
"55 269 LINE",
"545 59 LINE"
);
}
);
width = 600;
}
);
unicode = 003C;
},
{
glyphname = equal;
lastChange = "2024-04-27 03:24:58 +0000";
layers = (
{
layerId = "45F6A7D2-68A2-4980-BE0C-7C210C91EB90";
paths = (
{
closed = 1;
nodes = (
"548 311 LINE",
"548 401 LINE",
"49 400 LINE",
"49 309 LINE"
);
},
{
closed = 1;
nodes = (
"551 108 LINE",
"551 198 LINE",
"52 197 LINE",
"52 106 LINE"
);
}
);
width = 600;
}
);
unicode = 003D;
},
{
glyphname = greater;
lastChange = "2024-04-27 03:25:16 +0000";
layers = (
{
layerId = "45F6A7D2-68A2-4980-BE0C-7C210C91EB90";
paths = (
{
closed = 1;
nodes = (
"545 269 LINE",
"545 352 LINE",
"55 562 LINE",
"55 477 LINE",
"422 311 LINE",
"55 144 LINE",
"55 59 LINE"
);
}
);
width = 600;
}
);
unicode = 003E;
},
{
glyphname = question;
lastChange = "2024-04-27 03:01:13 +0000";
layers = (
{
components = (
{
name = punto;
transform = "{-1, 0, 0, -1, 195, 110}";
}
);
layerId = "45F6A7D2-68A2-4980-BE0C-7C210C91EB90";
paths = (
{
closed = 1;
nodes = (
"193 194 LINE",
"193 372 OFFCURVE",
"388 383 OFFCURVE",
"388 594 CURVE SMOOTH",
"388 751 OFFCURVE",
"273 819 OFFCURVE",
"130 819 CURVE SMOOTH",
"45 819 LINE",
"45 714 LINE",
"141 714 LINE SMOOTH",
"233 714 OFFCURVE",
"283 682 OFFCURVE",
"283 599 CURVE SMOOTH",
"283 456 OFFCURVE",
"87 406 OFFCURVE",
"87 194 CURVE"
);
}
);
width = 438;
}
);
leftMetricsKey = "=|C";
rightMetricsKey = J;
unicode = 003F;
},
{
glyphname = at;
lastChange = "2024-02-16 04:22:05 +0000";
layers = (
{
layerId = "45F6A7D2-68A2-4980-BE0C-7C210C91EB90";
paths = (
{
closed = 1;
nodes = (
"432 -131 LINE",
"432 -42 LINE",
"414 -42 LINE SMOOTH",
"266 -42 OFFCURVE",
"133 103 OFFCURVE",
"136 284 CURVE SMOOTH",
"133 464 OFFCURVE",
"266 618 OFFCURVE",
"414 618 CURVE SMOOTH",
"451 618 LINE SMOOTH",
"599 618 OFFCURVE",
"736 466 OFFCURVE",
"732 285 CURVE SMOOTH",
"733 219 OFFCURVE",
"718 164 OFFCURVE",
"671 164 CURVE SMOOTH",
"634 164 OFFCURVE",
"613 194 OFFCURVE",
"598 232 CURVE",
"606 355 OFFCURVE",
"555 463 OFFCURVE",
"432 463 CURVE SMOOTH",
"327 463 OFFCURVE",
"263 396 OFFCURVE",
"263 264 CURVE SMOOTH",
"263 158 OFFCURVE",
"325 83 OFFCURVE",
"432 83 CURVE SMOOTH",
"491 83 OFFCURVE",
"531 111 OFFCURVE",
"556 157 CURVE",
"583 109 OFFCURVE",
"634 84 OFFCURVE",
"672 84 CURVE SMOOTH",
"768 84 OFFCURVE",
"818 165 OFFCURVE",
"818 267 CURVE SMOOTH",
"818 306 LINE SMOOTH",
"818 509 OFFCURVE",
"649 699 OFFCURVE",
"444 699 CURVE SMOOTH",
"421 699 LINE SMOOTH",
"216 699 OFFCURVE",
"50 509 OFFCURVE",
"50 306 CURVE SMOOTH",
"50 262 LINE SMOOTH",
"50 59 OFFCURVE",
"216 -131 OFFCURVE",
"421 -131 CURVE SMOOTH"
);
},
{
closed = 1;
nodes = (
"374 156 OFFCURVE",
"340 205 OFFCURVE",
"339 274 CURVE SMOOTH",
"340 341 OFFCURVE",
"374 390 OFFCURVE",
"429 390 CURVE SMOOTH",
"483 390 OFFCURVE",
"518 342 OFFCURVE",
"521 274 CURVE",
"519 205 OFFCURVE",
"483 156 OFFCURVE",
"429 156 CURVE SMOOTH"
);
}
);
width = 868;
}
);
leftMetricsKey = O;
rightMetricsKey = O;
unicode = 0040;
},
{
glyphname = A;
lastChange = "2024-02-22 03:34:52 +0000";
layers = (
{
anchors = (
{
name = bottom;
position = "{320, 0}";
},
{
name = ogonek;
position = "{576, 10}";
},
{
name = top;
position = "{320, 700}";
}
);
components = (
{
name = baston_N.001;
transform = "{1, 0, 0, 1, 68, 0}";
}
);
layerId = "45F6A7D2-68A2-4980-BE0C-7C210C91EB90";
paths = (
{
closed = 1;
nodes = (
"186 0 LINE",
"186 233 LINE",
"555 233 LINE",
"555 343 LINE",
"186 343 LINE",
"186 699 LINE",
"70 700 LINE",
"70 0 LINE"
);
}
);
width = 640;
}
);
leftKerningGroup = L;
leftMetricsKey = "=H";
rightMetricsKey = "=N";
unicode = 0041;
},
{
glyphname = B;
lastChange = "2024-02-22 03:58:56 +0000";
layers = (
{
anchors = (
{
name = bottom;
position = "{303, 0}";
},
{
name = center;
position = "{303, 350}";
},
{
name = top;
position = "{303, 700}";
}
);
layerId = "45F6A7D2-68A2-4980-BE0C-7C210C91EB90";
paths = (
{
closed = 1;
nodes = (
"297 0 LINE SMOOTH",
"440 0 OFFCURVE",
"555 68 OFFCURVE",
"555 225 CURVE SMOOTH",
"555 336 OFFCURVE",
"498 384 OFFCURVE",
"412 416 CURVE",
"522 454 OFFCURVE",
"543 570 OFFCURVE",
"542 700 CURVE",
"70 700 LINE",
"70 0 LINE"
);
},
{
closed = 1;
nodes = (
"186 331 LINE",
"297 331 LINE SMOOTH",
"381 331 OFFCURVE",
"426 298 OFFCURVE",
"426 219 CURVE SMOOTH",
"426 140 OFFCURVE",
"381 107 OFFCURVE",
"297 107 CURVE SMOOTH",
"186 107 LINE"
);
},
{
closed = 1;
nodes = (
"186 590 LINE",
"418 590 LINE",
"418 472 OFFCURVE",
"280 442 OFFCURVE",
"186 436 CURVE"
);
}
);
width = 605;
}
);
leftMetricsKey = "=H";
rightMetricsKey = "=D";
unicode = 0042;
},
{
glyphname = C;
lastChange = "2024-04-05 23:42:30 +0000";
layers = (
{
anchors = (
{
name = bottom;
position = "{284, 0}";
},
{
name = top;
position = "{284, 700}";
}
);
layerId = "45F6A7D2-68A2-4980-BE0C-7C210C91EB90";
paths = (
{
closed = 1;
nodes = (
"521 0 LINE",
"521 107 LINE",
"461 107 LINE SMOOTH",
"331 107 OFFCURVE",
"166 132 OFFCURVE",
"166 336 CURVE SMOOTH",
"166 590 LINE",
"522 590 LINE",
"522 700 LINE",
"50 700 LINE",
"50 335 LINE SMOOTH",
"50 59 OFFCURVE",
"283 0 OFFCURVE",
"461 0 CURVE SMOOTH"
);
}
);
width = 567;
}
);
leftKerningGroup = HC;
leftMetricsKey = "=O";
unicode = 0043;
},
{
glyphname = D;
lastChange = "2024-02-22 03:58:56 +0000";
layers = (
{
anchors = (
{
name = bottom;
position = "{323, 0}";
},
{
name = center;
position = "{323, 350}";
},
{
name = top;
position = "{323, 700}";
}
);
layerId = "45F6A7D2-68A2-4980-BE0C-7C210C91EB90";
paths = (
{
closed = 1;
nodes = (
"186 0 LINE SMOOTH",
"366 0 OFFCURVE",
"596 60 OFFCURVE",
"596 335 CURVE SMOOTH",
"596 365 LINE SMOOTH",
"592 640 OFFCURVE",
"366 697 OFFCURVE",
"186 699 CURVE SMOOTH",
"70 700 LINE",
"70 0 LINE"
);
},
{
closed = 1;
nodes = (
"186 592 LINE",
"316 592 OFFCURVE",
"479 567 OFFCURVE",
"479 364 CURVE SMOOTH",
"479 336 LINE SMOOTH",
"479 133 OFFCURVE",
"316 107 OFFCURVE",
"186 107 CURVE"
);
}
);
width = 646;
}
);
leftMetricsKey = "=H";
rightMetricsKey = "=O";
unicode = 0044;
},
{
glyphname = E;
lastChange = "2024-04-06 01:21:23 +0000";
layers = (
{
anchors = (
{
name = bottom;
position = "{291, 0}";
},
{
name = ogonek;
position = "{524, 10}";
},
{
name = top;
position = "{291, 700}";
},
{
name = topleft;
position = "{20, 700}";
}
);
layerId = "45F6A7D2-68A2-4980-BE0C-7C210C91EB90";
paths = (
{
closed = 1;
nodes = (
"521 0 LINE",
"521 102 LINE",
"461 102 LINE SMOOTH",
"331 102 OFFCURVE",
"166 132 OFFCURVE",
"166 336 CURVE SMOOTH",
"166 355 LINE",
"451 355 LINE",
"451 457 LINE",
"166 457 LINE",
"166 593 LINE",
"522 593 LINE",
"522 700 LINE",
"50 700 LINE",
"50 335 LINE SMOOTH",
"50 59 OFFCURVE",
"279 0 OFFCURVE",
"461 0 CURVE SMOOTH"
);
}
);
width = 582;
}
);
leftMetricsKey = U;
rightMetricsKey = "=V";
unicode = 0045;
},
{
glyphname = F;
lastChange = "2024-04-06 01:22:39 +0000";
layers = (
{
anchors = (
{
name = bottom;
position = "{289, 0}";
},
{
name = top;
position = "{289, 700}";
}
);
layerId = "45F6A7D2-68A2-4980-BE0C-7C210C91EB90";
paths = (
{
closed = 1;
nodes = (
"186 0 LINE",
"186 352 LINE",
"477 352 LINE",
"477 459 LINE",
"186 459 LINE",
"186 590 LINE",
"532 590 LINE",
"532 700 LINE",
"70 700 LINE",
"70 0 LINE"
);
}
);
width = 562;
}
);
leftMetricsKey = "=H";
unicode = 0046;
},
{
glyphname = G;
lastChange = "2024-02-22 03:58:56 +0000";
layers = (
{
anchors = (
{
name = bottom;
position = "{292, 0}";
},
{
name = top;
position = "{292, 700}";
}
);
layerId = "45F6A7D2-68A2-4980-BE0C-7C210C91EB90";
paths = (
{
closed = 1;
nodes = (
"523 0 LINE",
"523 293 LINE",
"413 293 LINE",
"413 107 LINE",
"294 114 OFFCURVE",
"166 157 OFFCURVE",
"166 336 CURVE SMOOTH",
"166 590 LINE",
"522 590 LINE",
"522 700 LINE",
"50 700 LINE",
"50 335 LINE SMOOTH",
"50 83 OFFCURVE",
"242 0 OFFCURVE",
"413 0 CURVE SMOOTH"
);
}
);
width = 583;
}
);
leftMetricsKey = U;
rightMetricsKey = E;
unicode = 0047;
},
{
glyphname = H;
lastChange = "2024-02-22 03:58:56 +0000";
layers = (
{
anchors = (
{
name = bottom;
position = "{314, 0}";
},
{
name = center;
position = "{314, 350}";
},
{
name = top;
position = "{314, 700}";
},
{
name = topleft;
position = "{20, 700}";
}
);
layerId = "45F6A7D2-68A2-4980-BE0C-7C210C91EB90";
paths = (
{
closed = 1;
nodes = (
"186 0 LINE",
"186 305 LINE",
"442 305 LINE",
"442 0 LINE",
"558 0 LINE",
"558 700 LINE",
"442 700 LINE",
"442 415 LINE",
"186 415 LINE",
"186 700 LINE",
"70 700 LINE",
"70 0 LINE"
);
}
);
width = 628;
}
);
unicode = 0048;
},
{
glyphname = I;
lastChange = "2024-04-05 23:45:57 +0000";
layers = (
{
anchors = (
{
name = bottom;
position = "{128, 0}";
},
{
name = ogonek;
position = "{230, 10}";
},
{
name = top;
position = "{128, 700}";
},
{
name = topleft;
position = "{20, 700}";
}
);
layerId = "45F6A7D2-68A2-4980-BE0C-7C210C91EB90";
paths = (
{
closed = 1;
nodes = (
"186 0 LINE",
"186 700 LINE",
"70 700 LINE",
"70 0 LINE"
);
}
);
width = 256;
}
);
leftMetricsKey = "=H";
rightMetricsKey = "=H";
unicode = 0049;
},
{
glyphname = J;
lastChange = "2024-02-22 04:49:55 +0000";
layers = (
{
anchors = (
{
name = bottom;
position = "{225, 0}";
},
{
name = top;
position = "{342, 700}";
}
);
layerId = "45F6A7D2-68A2-4980-BE0C-7C210C91EB90";
paths = (
{
closed = 1;
nodes = (
"212 9 OFFCURVE",
"392 87 OFFCURVE",
"399 333 CURVE",
"399 700 LINE",
"283 700 LINE",
"283 334 LINE SMOOTH",
"283 162 OFFCURVE",
"161 117 OFFCURVE",
"45 108 CURVE",
"45 -1 LINE"
);
}
);
width = 449;
}
);
leftMetricsKey = "=|C";
rightMetricsKey = D;
unicode = 004A;
},
{
glyphname = K;
lastChange = "2024-04-06 01:39:32 +0000";
layers = (
{
anchors = (
{
name = bottom;
position = "{322, 0}";
},
{
name = top;
position = "{322, 700}";
}
);
background = {
paths = (
{
closed = 1;
nodes = (
"186 0 LINE",
"186 303 LINE",
"197 306 OFFCURVE",
"209 310 OFFCURVE",
"220 315 CURVE",
"450 0 LINE",
"596 0 LINE",
"327 369 LINE",
"451 447 OFFCURVE",
"542 575 OFFCURVE",
"542 700 CURVE",
"429 700 LINE",
"425 584 OFFCURVE",
"307 460 OFFCURVE",
"186 412 CURVE",
"186 700 LINE",
"70 700 LINE",
"70 0 LINE"
);
}
);
};
components = (
{
name = pata_R;
transform = "{1.0827, 0, 0, 1.2353, 251, 0}";
}
);
layerId = "45F6A7D2-68A2-4980-BE0C-7C210C91EB90";
paths = (
{
closed = 1;
nodes = (
"186 0 LINE",
"186 295 LINE",
"425 359 OFFCURVE",
"542 535 OFFCURVE",
"542 700 CURVE",
"429 700 LINE",
"425 584 OFFCURVE",
"340 437 OFFCURVE",
"186 413 CURVE",
"186 700 LINE",
"70 700 LINE",
"70 0 LINE"
);
}
);
width = 614;
}
);
leftMetricsKey = H;
rightMetricsKey = F;
unicode = 004B;
},
{
glyphname = L;
lastChange = "2024-04-06 01:48:18 +0000";
layers = (
{
anchors = (
{
name = bottom;
position = "{283, 0}";
},
{
name = center;
position = "{283, 350}";
},
{
name = top;
position = "{283, 700}";
},
{
name = topright;
position = "{545, 700}";
}
);
layerId = "45F6A7D2-68A2-4980-BE0C-7C210C91EB90";
paths = (
{
closed = 1;
nodes = (
"520 0 LINE",
"520 110 LINE",
"187 110 LINE",
"186 700 LINE",
"70 700 LINE",
"70 0 LINE"
);
}
);
width = 550;
}
);
rightKerningGroup = L;
rightMetricsKey = F;
unicode = 004C;
},
{
glyphname = M;
lastChange = "2024-02-22 03:58:56 +0000";
layers = (
{
anchors = (
{
name = bottom;
position = "{512, 0}";
},
{
name = top;
position = "{512, 700}";
}
);
background = {
paths = (
{
closed = 1;
nodes = (
"890 0 LINE",
"890 84 OFFCURVE",
"890 273 OFFCURVE",
"890 364 CURVE SMOOTH",
"890 610 OFFCURVE",
"689 700 OFFCURVE",
"529 700 CURVE",
"422 700 LINE",
"422 604 LINE",
"373 663 OFFCURVE",
"278 700 OFFCURVE",
"181 700 CURVE",
"70 700 LINE",
"70 0 LINE",
"186 0 LINE",
"186 587 LINE",
"302 587 OFFCURVE",
"422 535 OFFCURVE",
"422 363 CURVE SMOOTH",
"422 0 LINE",
"535 0 LINE",
"535 580 LINE",
"651 580 OFFCURVE",
"774 535 OFFCURVE",
"774 363 CURVE SMOOTH",
"774 0 LINE"
);
}
);
};
components = (
{
alignment = -1;
name = baston_N.001;
transform = "{1, 0, 0, 1, 452, 0}";
}
);
layerId = "45F6A7D2-68A2-4980-BE0C-7C210C91EB90";
paths = (
{
closed = 1;
nodes = (
"578 0 LINE",
"578 357 LINE SMOOTH",
"578 633 OFFCURVE",
"349 700 OFFCURVE",
"167 700 CURVE SMOOTH",
"107 700 LINE",
"107 598 LINE",
"167 598 LINE SMOOTH",
"297 598 OFFCURVE",
"466 560 OFFCURVE",
"466 356 CURVE SMOOTH",
"466 0 LINE"
);
},
{
closed = 1;
nodes = (
"186 0 LINE",
"185 699 LINE",
"70 700 LINE",
"70 0 LINE"
);
},
{
closed = 1;
nodes = (
"578 0 LINE",
"577 699 LINE",
"466 700 LINE",
"466 0 LINE"
);
}
);
width = 1024;
}
);
leftMetricsKey = "=H";
rightMetricsKey = "=N";
unicode = 004D;
},
{
glyphname = N;
lastChange = "2024-02-22 03:58:56 +0000";
layers = (
{
anchors = (
{
name = bottom;
position = "{320, 0}";
},
{
name = top;
position = "{320, 700}";
}
);
components = (
{
name = baston_N.001;
transform = "{1, 0, 0, 1, 68, 0}";
}
);
layerId = "45F6A7D2-68A2-4980-BE0C-7C210C91EB90";
paths = (
{
closed = 1;
nodes = (
"186 0 LINE",
"185 699 LINE",
"70 700 LINE",
"70 0 LINE"
);
}
);
width = 640;
}
);
leftMetricsKey = "=H";
rightMetricsKey = "=D";
unicode = 004E;
},
{
glyphname = P;
lastChange = "2024-04-05 23:45:32 +0000";
layers = (
{
anchors = (
{
name = bottom;
position = "{291, 0}";
},
{
name = top;
position = "{291, 700}";
}
);
layerId = "45F6A7D2-68A2-4980-BE0C-7C210C91EB90";
paths = (
{
closed = 1;
nodes = (
"186 0 LINE",
"188 267 LINE",
"244 267 OFFCURVE",
"563 317 OFFCURVE",
"552 700 CURVE",
"70 700 LINE",
"70 0 LINE"
);
},
{
closed = 1;
nodes = (
"186 597 LINE",
"439 597 LINE",
"439 507 OFFCURVE",
"328 378 OFFCURVE",
"186 378 CURVE"
);
}
);
width = 582;
}
);
leftMetricsKey = "=H";
unicode = 0050;
},
{
glyphname = Q;
lastChange = "2024-04-06 00:57:45 +0000";
layers = (
{
anchors = (
{
name = bottom;
position = "{353, 0}";
},
{
name = top;
position = "{353, 700}";
}
);
layerId = "45F6A7D2-68A2-4980-BE0C-7C210C91EB90";
paths = (
{
closed = 1;
nodes = (
"514 -2 OFFCURVE",
"642 141 OFFCURVE",
"642 320 CURVE SMOOTH",
"642 385 LINE SMOOTH",
"642 562 OFFCURVE",
"514 705 OFFCURVE",
"346 705 CURVE SMOOTH",
"177 705 OFFCURVE",
"50 562 OFFCURVE",
"50 385 CURVE SMOOTH",
"50 320 LINE SMOOTH",
"50 141 OFFCURVE",
"177 -2 OFFCURVE",
"346 -2 CURVE SMOOTH"
);
},
{
closed = 1;
nodes = (
"667 -1 LINE",
"667 106 LINE",
"555 106 LINE",
"346 -2 LINE"
);
},
{
closed = 1;
nodes = (
"235 108 OFFCURVE",
"170 198 OFFCURVE",
"170 320 CURVE SMOOTH",
"170 385 LINE SMOOTH",
"170 511 OFFCURVE",
"235 595 OFFCURVE",
"346 595 CURVE SMOOTH",
"457 595 OFFCURVE",
"522 511 OFFCURVE",
"522 385 CURVE SMOOTH",
"522 320 LINE SMOOTH",
"522 198 OFFCURVE",
"457 108 OFFCURVE",
"346 108 CURVE SMOOTH"
);
}
);
width = 717;
}
);
leftKerningGroup = LO;
leftMetricsKey = "=O";
rightMetricsKey = "=O";
unicode = 0051;
},
{
glyphname = R;
lastChange = "2024-04-06 01:54:01 +0000";
layers = (
{
anchors = (
{
name = bottom;
position = "{315, 0}";
},
{
name = top;
position = "{315, 700}";
}
);
components = (
{
name = pata_R;
transform = "{1.074, 0, 0, 1.141, 253, 0}";
}
);
layerId = "45F6A7D2-68A2-4980-BE0C-7C210C91EB90";
paths = (
{
closed = 1;
nodes = (
"186 0 LINE",
"188 267 LINE",
"244 267 OFFCURVE",
"563 317 OFFCURVE",
"552 700 CURVE",
"70 700 LINE",
"70 0 LINE"
);
},
{
closed = 1;
nodes = (
"186 597 LINE",
"439 597 LINE",
"439 507 OFFCURVE",
"328 378 OFFCURVE",
"186 378 CURVE"
);
}
);
width = 614;
}
);
leftMetricsKey = H;
rightMetricsKey = F;
unicode = 0052;
},
{
glyphname = S;
lastChange = "2024-02-22 03:58:56 +0000";
layers = (
{
anchors = (
{
name = bottom;
position = "{262, 0}";
},
{
name = top;
position = "{262, 700}";
}
);
background = {
paths = (
{
closed = 1;
nodes = (
"222 -1 LINE",
"362 -1 OFFCURVE",
"475 64 OFFCURVE",
"480 214 CURVE",
"475 361 OFFCURVE",
"374 410 OFFCURVE",
"287 427 CURVE",
"186 455 OFFCURVE",
"157 502 OFFCURVE",
"158 589 CURVE",
"470 590 LINE",
"470 700 LINE",
"47 700 LINE",
"47 607 LINE",
"47 602 LINE",
"47 392 OFFCURVE",
"175 347 OFFCURVE",
"248 329 CURVE",
"304 315 OFFCURVE",
"366 293 OFFCURVE",
"369 216 CURVE",
"366 139 OFFCURVE",
"322 110 OFFCURVE",
"233 110 CURVE",
"47 110 LINE",
"47 -1 LINE"
);
}
);
};
layerId = "45F6A7D2-68A2-4980-BE0C-7C210C91EB90";
paths = (
{
closed = 1;
nodes = (
"222 0 LINE SMOOTH",
"362 2 OFFCURVE",
"477 65 OFFCURVE",
"482 219 CURVE SMOOTH",
"482 361 OFFCURVE",
"368 401 OFFCURVE",
"301 425 CURVE SMOOTH",
"183 466 OFFCURVE",
"157 499 OFFCURVE",
"157 589 CURVE",
"450 590 LINE",
"450 700 LINE",
"42 700 LINE",
"42 602 LINE SMOOTH",
"42 398 OFFCURVE",
"156 360 OFFCURVE",
"248 327 CURVE SMOOTH",
"301 308 OFFCURVE",
"363 297 OFFCURVE",
"366 220 CURVE SMOOTH",
"366 139 OFFCURVE",
"322 112 OFFCURVE",
"233 111 CURVE SMOOTH",
"48 109 LINE",
"48 -2 LINE"
);
}
);
width = 523;
}
);
unicode = 0053;
},
{
glyphname = T;
lastChange = "2024-04-06 00:59:25 +0000";
layers = (
{
anchors = (
{
name = bottom;
position = "{253, 0}";
},
{
name = center;
position = "{253, 350}";
},
{
name = top;
position = "{253, 700}";
}
);
layerId = "45F6A7D2-68A2-4980-BE0C-7C210C91EB90";
paths = (
{
closed = 1;
nodes = (
"500 108 LINE",
"384 117 OFFCURVE",
"262 162 OFFCURVE",
"262 334 CURVE SMOOTH",
"262 590 LINE",
"146 590 LINE",
"146 333 LINE SMOOTH",
"146 87 OFFCURVE",
"333 9 OFFCURVE",
"500 -1 CURVE"
);
},
{
closed = 1;
nodes = (
"470 590 LINE",
"470 700 LINE",
"50 700 LINE",
"50 589 LINE"
);
}
);
width = 520;
}
);
leftMetricsKey = E;
unicode = 0054;
},
{
glyphname = U;
lastChange = "2024-04-06 01:41:22 +0000";
layers = (
{
anchors = (
{
name = bottom;
position = "{320, 0}";
},
{
name = ogonek;
position = "{576, 10}";
},
{
name = top;
position = "{320, 700}";
},
{
name = topright;
position = "{620, 700}";
}
);
components = (
{
name = baston_N.001;
transform = "{-1, 0, 0, -1, 572, 700}";
}
);
layerId = "45F6A7D2-68A2-4980-BE0C-7C210C91EB90";
paths = (
{
closed = 1;
nodes = (
"570 700 LINE",
"454 700 LINE",
"455 1 LINE",
"570 0 LINE"
);
}
);
width = 640;
}
);
leftMetricsKey = "=|D";
rightMetricsKey = H;
unicode = 0055;
},
{
glyphname = V;
lastChange = "2024-02-22 03:58:56 +0000";
layers = (
{
anchors = (
{
name = bottom;
position = "{316, 0}";
},
{
name = top;
position = "{316, 700}";
}
);
layerId = "45F6A7D2-68A2-4980-BE0C-7C210C91EB90";
paths = (
{
closed = 1;
nodes = (
"222 0 LINE",
"387 11 OFFCURVE",
"567 90 OFFCURVE",
"570 335 CURVE SMOOTH",
"572 485 OFFCURVE",
"570 388 OFFCURVE",
"570 528 CURVE SMOOTH",
"570 700 LINE",
"454 700 LINE",
"454 336 LINE SMOOTH",
"454 184 OFFCURVE",
"347 131 OFFCURVE",
"245 114 CURVE",
"157 700 LINE",
"40 700 LINE",
"143 0 LINE"
);
}
);
width = 631;
}
);
unicode = 0056;
},
{
glyphname = W;
lastChange = "2024-04-06 01:00:02 +0000";
layers = (
{
anchors = (
{
name = bottom;
position = "{475, 0}";
},
{
name = top;
position = "{475, 700}";
}
);
layerId = "45F6A7D2-68A2-4980-BE0C-7C210C91EB90";
paths = (
{
closed = 1;
nodes = (
"149 0 LINE SMOOTH",
"275 0 OFFCURVE",
"342 13 OFFCURVE",
"423 96 CURVE",
"423 0 LINE",
"513 0 LINE",
"776 16 OFFCURVE",
"890 121 OFFCURVE",
"890 337 CURVE SMOOTH",
"890 700 LINE",
"774 700 LINE",
"774 337 LINE SMOOTH",
"774 165 OFFCURVE",
"651 113 OFFCURVE",
"535 113 CURVE",
"535 700 LINE",
"423 700 LINE",
"423 337 LINE SMOOTH",
"423 165 OFFCURVE",
"302 113 OFFCURVE",
"186 113 CURVE",
"186 700 LINE",
"70 700 LINE",
"70 0 LINE"
);
}
);
width = 950;
}
);
leftMetricsKey = "=H";
rightMetricsKey = "=V";
unicode = 0057;
},
{
glyphname = Y;
lastChange = "2024-04-06 01:01:24 +0000";
layers = (
{
anchors = (
{
name = bottom;
position = "{290, 0}";
},
{
name = top;
position = "{290, 700}";
},
{
name = topleft;
position = "{20, 700}";
}
);
layerId = "45F6A7D2-68A2-4980-BE0C-7C210C91EB90";
paths = (
{
closed = 1;
nodes = (
"332 9 OFFCURVE",
"512 87 OFFCURVE",
"519 333 CURVE",
"519 700 LINE",
"403 700 LINE",
"403 334 LINE SMOOTH",
"403 162 OFFCURVE",
"281 117 OFFCURVE",
"165 108 CURVE",
"165 -1 LINE"
);
},
{
closed = 1;
nodes = (
"513 295 LINE",
"513 588 LINE",
"403 588 LINE",
"403 402 LINE",
"284 409 OFFCURVE",
"156 452 OFFCURVE",
"156 631 CURVE SMOOTH",
"156 700 LINE",
"40 700 LINE",
"40 630 LINE SMOOTH",
"40 378 OFFCURVE",
"232 295 OFFCURVE",
"403 295 CURVE SMOOTH"
);
}
);
width = 579;
}
);
leftMetricsKey = "=V";
rightMetricsKey = V;
unicode = 0059;
},
{
glyphname = Z;
lastChange = "2024-04-06 01:02:04 +0000";
layers = (
{
anchors = (
{
name = bottom;
position = "{313, 0}";
},
{
name = center;
position = "{313, 350}";
},
{
name = top;
position = "{313, 700}";
}
);
layerId = "45F6A7D2-68A2-4980-BE0C-7C210C91EB90";
paths = (
{
closed = 1;
nodes = (
"565 0 LINE",
"565 110 LINE",
"236 110 LINE",
"562 700 LINE",
"67 700 LINE",
"67 590 LINE",
"367 590 LINE",
"40 0 LINE"
);
}
);
width = 625;
}
);
leftMetricsKey = "=V";
rightMetricsKey = "=V";
unicode = 005A;
},
{
glyphname = bracketleft;
lastChange = "2024-02-16 04:22:05 +0000";
layers = (
{
layerId = "45F6A7D2-68A2-4980-BE0C-7C210C91EB90";
paths = (
{
closed = 1;
nodes = (
"238 -179 LINE",
"238 -72 LINE",
"173 -72 LINE",
"173 693 LINE",
"238 693 LINE",
"238 800 LINE",
"70 800 LINE",
"70 -179 LINE"
);
}
);
width = 243;
}
);
leftMetricsKey = "=|i";
unicode = 005B;
},
{
glyphname = backslash;
lastChange = "2024-02-16 04:22:05 +0000";
layers = (
{
layerId = "45F6A7D2-68A2-4980-BE0C-7C210C91EB90";
paths = (
{
closed = 1;
nodes = (
"371 -116 LINE",
"109 698 LINE",
"0 698 LINE",
"262 -116 LINE"
);
}
);
width = 398;
}
);
unicode = 005C;
},
{
glyphname = bracketright;
lastChange = "2024-02-16 04:22:05 +0000";
layers = (
{
layerId = "45F6A7D2-68A2-4980-BE0C-7C210C91EB90";
paths = (
{
closed = 1;
nodes = (
"168 -179 LINE",
"168 800 LINE",
"0 800 LINE",
"0 693 LINE",
"65 693 LINE",
"65 -72 LINE",
"0 -72 LINE",
"0 -179 LINE"
);
}
);
width = 238;
}
);
rightMetricsKey = i;
unicode = 005D;
},
{
glyphname = grave;
lastChange = "2024-02-16 04:22:05 +0000";
layers = (
{
layerId = "45F6A7D2-68A2-4980-BE0C-7C210C91EB90";
paths = (
{
closed = 1;
nodes = (
"267 621 LINE",
"171 760 LINE",
"70 760 LINE",
"182 621 LINE"
);
}
);
width = 337;
}
);
leftMetricsKey = I;
rightMetricsKey = I;
unicode = 0060;
},
{
glyphname = a;
lastChange = "2024-04-06 05:40:22 +0000";
layers = (
{
anchors = (
{
name = bottom;
position = "{306, 0}";
},
{
name = ogonek;
position = "{534, 10}";
},
{
name = top;
position = "{294, 545}";
}
);
components = (
{
alignment = -1;
name = ojo_e_y_a;
transform = "{-1, 0, 0, -1, 573, 535}";
}
);
layerId = "45F6A7D2-68A2-4980-BE0C-7C210C91EB90";
paths = (
{
closed = 1;
nodes = (
"529 0 LINE",
"529 255 LINE SMOOTH",
"529 484 OFFCURVE",
"356 526 OFFCURVE",
"200 537 CURVE",
"100 537 LINE",
"100 434 LINE",
"200 434 LINE",
"307 425 OFFCURVE",
"419 413 OFFCURVE",
"419 254 CURVE SMOOTH",
"419 0 LINE"
);
}
);
width = 591;
}
);
leftKerningGroup = Fa;
leftMetricsKey = n;
unicode = 0061;
},
{
glyphname = f;
lastChange = "2024-04-04 02:24:18 +0000";
layers = (
{
anchors = (
{
name = bottom;
position = "{185, 0}";
},
{
name = top;
position = "{185, 840}";
}
);
layerId = "45F6A7D2-68A2-4980-BE0C-7C210C91EB90";
paths = (
{
closed = 1;
nodes = (
"229 0 LINE",
"229 521 LINE SMOOTH",
"229 678 OFFCURVE",
"301 687 OFFCURVE",
"335 692 CURVE",
"335 801 LINE",
"248 802 OFFCURVE",
"117 740 OFFCURVE",
"117 521 CURVE SMOOTH",
"117 0 LINE"
);
},
{
closed = 1;
nodes = (
"337 433 LINE",
"337 535 LINE",
"20 535 LINE",
"20 432 LINE"
);
}
);
width = 377;
}
);
leftMetricsKey = t;
rightKerningGroup = fo;
rightMetricsKey = r;
unicode = 0066;
},
{
glyphname = i;
lastChange = "2024-04-06 05:34:47 +0000";
layers = (
{
anchors = (
{
name = bottom;
position = "{126, 0}";
}
);
layerId = "45F6A7D2-68A2-4980-BE0C-7C210C91EB90";
paths = (
{
closed = 1;
nodes = (
"182 0 LINE",
"182 535 LINE",
"70 535 LINE",
"70 0 LINE"
);
},
{
closed = 1;
nodes = (
"180 645 LINE",
"180 754 LINE",
"71 754 LINE",
"71 645 LINE"
);
}
);
width = 252;
}
);
leftMetricsKey = "=H";
rightMetricsKey = "=|H";
unicode = 0069;
},
{
glyphname = j;
lastChange = "2024-02-16 04:22:05 +0000";
layers = (
{
layerId = "45F6A7D2-68A2-4980-BE0C-7C210C91EB90";
paths = (
{
closed = 1;
nodes = (
"107 -201 OFFCURVE",
"238 -139 OFFCURVE",
"238 80 CURVE SMOOTH",
"238 535 LINE",
"126 535 LINE",
"126 80 LINE SMOOTH",
"126 -77 OFFCURVE",
"54 -86 OFFCURVE",
"20 -91 CURVE",
"20 -200 LINE"
);
},
{
closed = 1;
nodes = (
"237 645 LINE",
"237 755 LINE",
"128 755 LINE",
"128 645 LINE"
);
}
);
width = 288;
}
);
unicode = 006A;
},
{
glyphname = k;
lastChange = "2024-03-28 03:56:32 +0000";
layers = (
{
anchors = (
{
name = bottom;
position = "{297, 0}";
},
{
name = top;
position = "{297, 840}";
}
);
components = (
{
name = pata_R;
transform = "{1, 0, 0, 1, 203, 0}";
}
);
layerId = "45F6A7D2-68A2-4980-BE0C-7C210C91EB90";
paths = (
{
closed = 1;
nodes = (
"182 0 LINE",
"182 223 LINE",
"370 273 OFFCURVE",
"486 410 OFFCURVE",
"487 535 CURVE",
"380 535 LINE",
"377 465 OFFCURVE",
"297 353 OFFCURVE",
"182 335 CURVE",
"182 800 LINE",
"70 800 LINE",
"70 0 LINE"
);
}
);
width = 551;
}
);
leftMetricsKey = l;
rightMetricsKey = f;
unicode = 006B;
},
{
glyphname = l;
lastChange = "2024-04-06 01:36:00 +0000";
layers = (
{
anchors = (
{
name = bottom;
position = "{164, 0}";
},
{
name = center;
position = "{164, 420}";
},
{
name = top;
position = "{164, 840}";
},
{
name = topright;
position = "{308, 840}";
}
);
layerId = "45F6A7D2-68A2-4980-BE0C-7C210C91EB90";
paths = (
{
closed = 1;
nodes = (
"288 108 LINE",
"254 113 OFFCURVE",
"182 122 OFFCURVE",
"182 279 CURVE SMOOTH",
"182 800 LINE",
"70 800 LINE",
"70 279 LINE SMOOTH",
"70 60 OFFCURVE",
"201 -2 OFFCURVE",
"288 -1 CURVE"
);
}
);
width = 328;
}
);
leftKerningGroup = ll;
leftMetricsKey = H;
rightKerningGroup = ll;
unicode = 006C;
},
{
glyphname = m;
lastChange = "2024-04-06 01:52:18 +0000";
layers = (
{
anchors = (
{
name = bottom;
position = "{414, 0}";
},
{
name = top;
position = "{414, 535}";
}
);
layerId = "45F6A7D2-68A2-4980-BE0C-7C210C91EB90";
paths = (
{
closed = 1;
nodes = (
"182 0 LINE",
"182 432 LINE",
"284 432 OFFCURVE",
"365 373 OFFCURVE",
"365 230 CURVE SMOOTH",
"365 0 LINE",
"474 0 LINE",
"474 224 LINE SMOOTH",
"474 426 OFFCURVE",
"323 536 OFFCURVE",
"179 534 CURVE SMOOTH",
"168 534 OFFCURVE",
"162 535 OFFCURVE",
"151 535 CURVE SMOOTH",
"70 535 LINE",
"70 0 LINE"
);
},
{
closed = 1;
nodes = (
"474 0 LINE",
"474 432 LINE",
"580 427 OFFCURVE",
"655 394 OFFCURVE",
"655 251 CURVE SMOOTH",
"655 0 LINE",
"767 0 LINE",
"767 267 LINE SMOOTH",
"767 469 OFFCURVE",
"612 534 OFFCURVE",
"476 534 CURVE SMOOTH",
"465 534 OFFCURVE",
"454 535 OFFCURVE",
"443 535 CURVE SMOOTH",
"365 535 LINE",
"365 0 LINE"
);
}
);
width = 807;
}
);
leftMetricsKey = n;
rightMetricsKey = n;
unicode = 006D;
},
{
glyphname = n;
lastChange = "2024-04-06 05:43:42 +0000";
layers = (
{
anchors = (
{
name = bottom;
position = "{297, 0}";
},
{
name = top;
position = "{295, 535}";
}
);
components = (
{
alignment = -1;
name = baston_n_min;
transform = "{1, 0, 0, 1, 70, 0}";
}
);
layerId = "45F6A7D2-68A2-4980-BE0C-7C210C91EB90";
paths = (
{
closed = 1;
nodes = (
"182 0 LINE",
"182 530 LINE",
"111 535 LINE",
"70 535 LINE",
"70 0 LINE"
);
}
);
width = 573;
}
);
leftKerningGroup = Fa;
unicode = 006E;
},
{
glyphname = o;
lastChange = "2024-04-06 05:41:23 +0000";
layers = (
{
anchors = (
{
name = bottom;
position = "{298, 0}";
},
{
name = center;
position = "{298, 268}";
},
{
name = ogonek;
position = "{528, 10}";
},
{
name = top;
position = "{298, 535}";
},
{
name = topright;
position = "{566, 535}";
}
);
layerId = "45F6A7D2-68A2-4980-BE0C-7C210C91EB90";
paths = (
{
closed = 1;
nodes = (
"438 -7 OFFCURVE",
"546 118 OFFCURVE",
"546 256 CURVE SMOOTH",
"546 294 LINE SMOOTH",
"546 431 OFFCURVE",
"438 543 OFFCURVE",
"298 543 CURVE SMOOTH",
"158 543 OFFCURVE",
"50 431 OFFCURVE",
"50 294 CURVE SMOOTH",
"50 256 LINE SMOOTH",
"50 118 OFFCURVE",
"158 -7 OFFCURVE",
"298 -7 CURVE SMOOTH"
);
},
{
closed = 1;
nodes = (
"217 95 OFFCURVE",
"165 172 OFFCURVE",
"165 256 CURVE SMOOTH",
"165 294 LINE SMOOTH",
"165 382 OFFCURVE",
"217 441 OFFCURVE",
"298 441 CURVE SMOOTH",
"379 441 OFFCURVE",
"431 382 OFFCURVE",
"431 294 CURVE SMOOTH",
"431 256 LINE SMOOTH",
"431 172 OFFCURVE",
"379 95 OFFCURVE",
"298 95 CURVE SMOOTH"
);
}
);
width = 586;
}
);
leftKerningGroup = Fa;
rightMetricsKey = n;
unicode = 006F;
},
{
glyphname = r;
lastChange = "2024-04-06 01:23:28 +0000";
layers = (
{
anchors = (
{
name = bottom;
position = "{233, 0}";
},
{
name = top;
position = "{233, 535}";
}
);
layerId = "45F6A7D2-68A2-4980-BE0C-7C210C91EB90";
paths = (
{
closed = 1;
nodes = (
"180 0 LINE",
"180 254 LINE SMOOTH",
"180 416 OFFCURVE",
"296 432 OFFCURVE",
"405 441 CURVE",
"405 544 LINE",
"247 534 OFFCURVE",
"70 487 OFFCURVE",
"70 255 CURVE SMOOTH",
"70 0 LINE"
);
}
);
width = 445;
}
);
leftKerningGroup = Fa;
leftMetricsKey = n;
unicode = 0072;
},
{
glyphname = s;
lastChange = "2024-04-06 01:07:05 +0000";
layers = (
{
anchors = (
{
name = bottom;
position = "{178, 0}";
},
{
name = top;
position = "{178, 535}";
}
);
layerId = "45F6A7D2-68A2-4980-BE0C-7C210C91EB90";
paths = (
{
closed = 1;
nodes = (
"158 0 LINE SMOOTH",
"288 0 OFFCURVE",
"335 105 OFFCURVE",
"335 161 CURVE SMOOTH",
"335 208 OFFCURVE",
"320 253 OFFCURVE",
"248 294 CURVE SMOOTH",
"215 314 OFFCURVE",
"156 334 OFFCURVE",
"156 379 CURVE SMOOTH",
"156 432 OFFCURVE",
"222 435 OFFCURVE",
"248 435 CURVE SMOOTH",
"288 435 LINE",
"288 538 LINE",
"221 538 LINE SMOOTH",
"100 538 OFFCURVE",
"44 435 OFFCURVE",
"44 379 CURVE SMOOTH",
"44 325 OFFCURVE",
"71 281 OFFCURVE",
"143 240 CURVE SMOOTH",
"176 220 OFFCURVE",
"223 206 OFFCURVE",
"223 161 CURVE SMOOTH",
"223 108 OFFCURVE",
"167 105 OFFCURVE",
"141 105 CURVE SMOOTH",
"42 105 LINE",
"42 0 LINE"
);
}
);
width = 355;
}
);
leftMetricsKey = S;
unicode = 0073;
},
{
glyphname = t;
lastChange = "2024-04-06 01:47:47 +0000";
layers = (
{
anchors = (
{
name = bottom;
position = "{205, 0}";
},
{
name = center;
position = "{205, 268}";
},
{
name = top;
position = "{205, 535}";
},
{
name = topright;
position = "{379, 840}";
}
);
layerId = "45F6A7D2-68A2-4980-BE0C-7C210C91EB90";
paths = (
{
closed = 1;
nodes = (
"337 108 LINE",
"303 113 OFFCURVE",
"231 122 OFFCURVE",
"229 279 CURVE SMOOTH",
"229 700 LINE",
"119 700 LINE",
"119 279 LINE SMOOTH",
"119 60 OFFCURVE",
"250 -2 OFFCURVE",
"337 -1 CURVE"
);
},
{
closed = 1;
nodes = (
"337 433 LINE",
"337 535 LINE",
"20 535 LINE",
"20 432 LINE"
);
}
);
width = 377;
}
);
leftKerningGroup = Lv;
rightMetricsKey = f;
unicode = 0074;
},
{
glyphname = u;
lastChange = "2024-04-06 01:51:53 +0000";
layers = (
{
anchors = (
{
name = bottom;
position = "{287, 0}";
},
{
name = ogonek;
position = "{516, 10}";
},
{
name = top;
position = "{287, 535}";
},
{
name = topright;
position = "{553, 535}";
}
);
components = (
{
alignment = -1;
name = baston_n_min;
transform = "{-1, 0, 0, -1, 503, 535}";
}
);
layerId = "45F6A7D2-68A2-4980-BE0C-7C210C91EB90";
paths = (
{
closed = 1;
nodes = (
"503 0 LINE",
"503 535 LINE",
"391 535 LINE",
"391 5 LINE",
"462 0 LINE"
);
}
);
width = 573;
}
);
leftMetricsKey = "=|n";
rightMetricsKey = i;
unicode = 0075;
},
{
glyphname = v;
lastChange = "2024-04-06 01:54:44 +0000";
layers = (
{
anchors = (
{
name = bottom;
position = "{249, 0}";
},
{
name = top;
position = "{249, 535}";
}
);
layerId = "45F6A7D2-68A2-4980-BE0C-7C210C91EB90";
paths = (
{
closed = 1;
nodes = (
"208 0 LINE SMOOTH",
"334 8 OFFCURVE",
"468 66 OFFCURVE",
"468 254 CURVE SMOOTH",
"468 535 LINE",
"361 535 LINE",
"361 255 LINE SMOOTH",
"361 138 OFFCURVE",
"293 117 OFFCURVE",
"214 104 CURVE",
"150 535 LINE",
"40 535 LINE",
"119 -3 LINE"
);
}
);
width = 508;
}
);
leftKerningGroup = Lv;
rightMetricsKey = n;
unicode = 0076;
},
{
glyphname = x;
lastChange = "2024-04-06 01:57:14 +0000";
layers = (
{
anchors = (
{
name = bottom;
position = "{284, 0}";
},
{
name = top;
position = "{284, 535}";
}
);
layerId = "45F6A7D2-68A2-4980-BE0C-7C210C91EB90";
paths = (
{
closed = 1;
nodes = (
"402 535 LINE",
"538 535 LINE",
"166 0 LINE",
"30 0 LINE"
);
},
{
closed = 1;
nodes = (
"30 535 LINE",
"166 535 LINE",
"538 0 LINE",
"402 0 LINE"
);
}
);
width = 568;
}
);
leftKerningGroup = Zx;
leftMetricsKey = z;
rightMetricsKey = z;
unicode = 0078;
},
{
glyphname = z;
lastChange = "2024-04-06 01:37:51 +0000";
layers = (
{
anchors = (
{
name = bottom;
position = "{290, 0}";
},
{
name = center;
position = "{290, 268}";
},
{
name = top;
position = "{290, 535}";
}
);
layerId = "45F6A7D2-68A2-4980-BE0C-7C210C91EB90";
paths = (
{
closed = 1;
nodes = (
"166 0 LINE",
"538 535 LINE",
"402 535 LINE",
"30 0 LINE"
);
},
{
closed = 1;
nodes = (
"494 0 LINE",
"494 107 LINE",
"130 107 LINE",
"38 0 LINE"
);
},
{
closed = 1;
nodes = (
"415 428 LINE",
"507 535 LINE",
"50 535 LINE",
"50 428 LINE"
);
}
);
width = 568;
}
);
leftKerningGroup = zo;
rightKerningGroup = zo;
unicode = 007A;
},
{
glyphname = braceright;
lastChange = "2024-02-16 04:22:05 +0000";
layers = (
{
background = {
paths = (
{
closed = 1;
nodes = (
"281 260 LINE",
"281 346 LINE",
"260 347 LINE SMOOTH",
"244 348 OFFCURVE",
"225 355 OFFCURVE",
"212 368 CURVE",
"193 391 OFFCURVE",
"184 419 OFFCURVE",
"188 455 CURVE SMOOTH",
"189 483 OFFCURVE",
"217 534 OFFCURVE",
"230 551 CURVE",
"250 588 OFFCURVE",
"265 622 OFFCURVE",
"258 674 CURVE SMOOTH",
"249 756 OFFCURVE",
"159 817 OFFCURVE",
"81 817 CURVE SMOOTH",
"70 817 LINE",
"70 733 LINE",
"70 733 OFFCURVE",
"119 727 OFFCURVE",
"146 705 CURVE",
"162 695 OFFCURVE",
"173 673 OFFCURVE",
"172 641 CURVE SMOOTH",
"172 615 OFFCURVE",
"155 581 OFFCURVE",
"144 562 CURVE SMOOTH",
"132 542 OFFCURVE",
"102 499 OFFCURVE",
"100 449 CURVE SMOOTH",
"98 391 OFFCURVE",
"115 342 OFFCURVE",
"163 298 CURVE SMOOTH",
"189 272 OFFCURVE",
"235 256 OFFCURVE",
"258 258 CURVE SMOOTH"
);
},
{
closed = 1;
nodes = (
"81 -212 LINE SMOOTH",
"159 -212 OFFCURVE",
"249 -151 OFFCURVE",
"258 -71 CURVE SMOOTH",
"265 -18 OFFCURVE",
"250 16 OFFCURVE",
"230 53 CURVE",
"217 70 OFFCURVE",
"189 120 OFFCURVE",
"188 150 CURVE SMOOTH",
"184 184 OFFCURVE",
"193 213 OFFCURVE",
"212 236 CURVE",
"225 249 OFFCURVE",
"244 257 OFFCURVE",
"260 258 CURVE SMOOTH",
"281 259 LINE",
"281 345 LINE",
"258 347 LINE SMOOTH",
"235 349 OFFCURVE",
"189 332 OFFCURVE",
"163 304 CURVE",
"115 263 OFFCURVE",
"98 213 OFFCURVE",
"100 155 CURVE SMOOTH",
"102 105 OFFCURVE",
"132 61 OFFCURVE",
"144 42 CURVE SMOOTH",
"155 24 OFFCURVE",
"172 -11 OFFCURVE",
"172 -36 CURVE SMOOTH",
"173 -69 OFFCURVE",
"162 -90 OFFCURVE",
"146 -101 CURVE",
"119 -124 OFFCURVE",
"70 -130 OFFCURVE",
"70 -130 CURVE",
"70 -212 LINE"
);
}
);
};
layerId = "45F6A7D2-68A2-4980-BE0C-7C210C91EB90";
paths = (
{
closed = 1;
nodes = (
"281 260 LINE",
"281 346 LINE",
"260 347 LINE SMOOTH",
"244 348 OFFCURVE",
"225 355 OFFCURVE",
"212 368 CURVE",
"193 391 OFFCURVE",
"184 419 OFFCURVE",
"188 455 CURVE SMOOTH",
"189 483 OFFCURVE",
"217 534 OFFCURVE",
"230 551 CURVE",
"250 588 OFFCURVE",
"265 622 OFFCURVE",
"258 674 CURVE SMOOTH",
"249 756 OFFCURVE",
"159 817 OFFCURVE",
"81 817 CURVE SMOOTH",
"70 817 LINE",
"70 733 LINE",
"70 733 OFFCURVE",
"119 727 OFFCURVE",
"146 705 CURVE",
"162 695 OFFCURVE",
"173 673 OFFCURVE",
"172 641 CURVE SMOOTH",
"172 615 OFFCURVE",
"155 581 OFFCURVE",
"144 562 CURVE SMOOTH",
"132 542 OFFCURVE",
"102 499 OFFCURVE",
"100 449 CURVE SMOOTH",
"98 391 OFFCURVE",
"115 342 OFFCURVE",
"163 298 CURVE SMOOTH",
"189 272 OFFCURVE",
"235 256 OFFCURVE",
"258 258 CURVE SMOOTH"
);
},
{
closed = 1;
nodes = (
"81 -212 LINE SMOOTH",
"159 -212 OFFCURVE",
"249 -151 OFFCURVE",
"258 -71 CURVE SMOOTH",
"265 -18 OFFCURVE",
"250 16 OFFCURVE",
"230 53 CURVE",
"217 70 OFFCURVE",
"189 120 OFFCURVE",
"188 150 CURVE SMOOTH",
"184 184 OFFCURVE",
"193 213 OFFCURVE",
"212 236 CURVE",
"225 249 OFFCURVE",
"244 257 OFFCURVE",
"260 258 CURVE SMOOTH",
"281 259 LINE",
"281 345 LINE",
"258 347 LINE SMOOTH",
"235 349 OFFCURVE",
"189 332 OFFCURVE",
"163 304 CURVE",
"115 263 OFFCURVE",
"98 213 OFFCURVE",
"100 155 CURVE SMOOTH",
"102 105 OFFCURVE",
"132 61 OFFCURVE",
"144 42 CURVE SMOOTH",
"155 24 OFFCURVE",
"172 -11 OFFCURVE",
"172 -36 CURVE SMOOTH",
"173 -69 OFFCURVE",
"162 -90 OFFCURVE",
"146 -101 CURVE",
"119 -124 OFFCURVE",
"70 -130 OFFCURVE",
"70 -130 CURVE",
"70 -212 LINE"
);
}
);
width = 331;
}
);
leftMetricsKey = L;
rightMetricsKey = O;
unicode = 007D;
},
{
glyphname = asciitilde;
lastChange = "2024-02-16 04:22:05 +0000";
layers = (
{
layerId = "45F6A7D2-68A2-4980-BE0C-7C210C91EB90";
paths = (
{
closed = 1;
nodes = (
"522 175 OFFCURVE",
"585 239 OFFCURVE",
"585 328 CURVE SMOOTH",
"585 368 LINE",
"486 368 LINE",
"486 337 LINE SMOOTH",
"486 286 OFFCURVE",
"454 266 OFFCURVE",
"432 266 CURVE SMOOTH",
"416 266 OFFCURVE",
"403 268 OFFCURVE",
"382 280 CURVE SMOOTH",
"310 321 OFFCURVE",
"292 379 OFFCURVE",
"204 379 CURVE SMOOTH",
"113 379 OFFCURVE",
"50 315 OFFCURVE",
"50 226 CURVE SMOOTH",
"50 188 LINE",
"149 188 LINE",
"149 217 LINE SMOOTH",
"149 268 OFFCURVE",
"181 288 OFFCURVE",
"203 288 CURVE SMOOTH",
"219 288 OFFCURVE",
"232 286 OFFCURVE",
"253 274 CURVE SMOOTH",
"325 233 OFFCURVE",
"349 175 OFFCURVE",
"431 175 CURVE SMOOTH"
);
}
);
width = 635;
}
);
leftMetricsKey = O;
rightMetricsKey = O;
unicode = 007E;
},
{
glyphname = cent;
lastChange = "2024-02-19 03:54:30 +0000";
layers = (
{
layerId = "45F6A7D2-68A2-4980-BE0C-7C210C91EB90";
paths = (
{
closed = 1;
nodes = (
"425 39 LINE",
"425 140 LINE",
"299 140 LINE SMOOTH",
"207 140 OFFCURVE",
"149 179 OFFCURVE",
"149 262 CURVE SMOOTH",
"149 345 OFFCURVE",
"207 384 OFFCURVE",
"299 384 CURVE SMOOTH",
"425 384 LINE",
"425 485 LINE",
"310 485 LINE SMOOTH",
"167 485 OFFCURVE",
"50 419 OFFCURVE",
"50 262 CURVE SMOOTH",
"50 105 OFFCURVE",
"167 39 OFFCURVE",
"310 39 CURVE SMOOTH"
);
},
{
closed = 1;
nodes = (
"346 -147 LINE",
"346 674 LINE",
"244 674 LINE",
"244 -147 LINE"
);
}
);
width = 475;
}
);
leftMetricsKey = O;
rightMetricsKey = O;
unicode = 00A2;
},
{
glyphname = currency;
lastChange = "2024-04-06 08:02:20 +0000";
layers = (
{
layerId = "45F6A7D2-68A2-4980-BE0C-7C210C91EB90";
paths = (
{
closed = 1;
nodes = (
"217 182 LINE",
"242 167 OFFCURVE",
"269 156 OFFCURVE",
"300 156 CURVE SMOOTH",
"332 156 OFFCURVE",
"361 167 OFFCURVE",
"385 184 CURVE",
"493 79 LINE",
"571 155 LINE",
"456 268 LINE",
"468 293 OFFCURVE",
"472 320 OFFCURVE",
"472 347 CURVE SMOOTH",
"472 374 OFFCURVE",
"468 402 OFFCURVE",
"456 425 CURVE",
"568 539 LINE",
"492 617 LINE",
"384 511 LINE",
"359 526 OFFCURVE",
"332 535 OFFCURVE",
"300 535 CURVE SMOOTH",
"268 535 OFFCURVE",
"238 526 OFFCURVE",
"213 509 CURVE",
"109 614 LINE",
"30 538 LINE",
"145 425 LINE",
"132 400 OFFCURVE",
"128 373 OFFCURVE",
"128 347 CURVE SMOOTH",
"128 320 OFFCURVE",
"133 292 OFFCURVE",
"145 267 CURVE",
"33 155 LINE",
"110 76 LINE"
);
},
{
closed = 1;
nodes = (
"251 246 OFFCURVE",
"212 297 OFFCURVE",
"212 345 CURVE SMOOTH",
"212 395 OFFCURVE",
"251 445 OFFCURVE",
"301 445 CURVE SMOOTH",
"349 445 OFFCURVE",
"389 395 OFFCURVE",
"389 345 CURVE SMOOTH",
"389 297 OFFCURVE",
"349 246 OFFCURVE",
"301 246 CURVE SMOOTH"
);
}
);
width = 601;
}
);
leftMetricsKey = "=|F";
rightMetricsKey = F;
unicode = 00A4;
},
{
glyphname = yen;
lastChange = "2024-04-27 03:36:10 +0000";
layers = (
{
components = (
{
name = equal;
transform = "{0.9447, 0, 0, 0.7832, -6, 45}";
}
);
layerId = "45F6A7D2-68A2-4980-BE0C-7C210C91EB90";
paths = (
{
closed = 1;
nodes = (
"191 0 LINE",
"584 700 LINE",
"464 700 LINE",
"310 433 LINE",
"224 473 OFFCURVE",
"160 567 OFFCURVE",
"160 700 CURVE",
"50 700 LINE",
"52 522 OFFCURVE",
"148 396 OFFCURVE",
"265 338 CURVE",
"71 0 LINE"
);
}
);
width = 644;
}
);
leftMetricsKey = Y;
rightMetricsKey = Y;
unicode = 00A5;
},
{
glyphname = brokenbar;
lastChange = "2024-02-16 04:22:05 +0000";
layers = (
{
layerId = "45F6A7D2-68A2-4980-BE0C-7C210C91EB90";
paths = (
{
closed = 1;
nodes = (
"102 336 LINE",
"102 700 LINE",
"0 700 LINE",
"0 336 LINE"
);
},
{
closed = 1;
nodes = (
"102 -115 LINE",
"102 249 LINE",
"0 249 LINE",
"0 -115 LINE"
);
}
);
width = 102;
}
);
unicode = 00A6;
},
{
glyphname = section;
lastChange = "2024-02-16 04:22:05 +0000";
layers = (
{
layerId = "45F6A7D2-68A2-4980-BE0C-7C210C91EB90";
paths = (
{
closed = 1;
nodes = (
"311 70 LINE SMOOTH",
"417 70 OFFCURVE",
"493 130 OFFCURVE",
"493 250 CURVE SMOOTH",
"493 266 OFFCURVE",
"492 281 OFFCURVE",
"488 296 CURVE",
"471 387 OFFCURVE",
"401 431 OFFCURVE",
"310 431 CURVE SMOOTH",
"293 431 LINE SMOOTH",
"188 431 OFFCURVE",
"112 371 OFFCURVE",
"112 251 CURVE SMOOTH",
"112 233 OFFCURVE",
"113 219 OFFCURVE",
"117 205 CURVE",
"134 114 OFFCURVE",
"204 70 OFFCURVE",
"294 70 CURVE SMOOTH"
);
},
{
closed = 1;
nodes = (
"310 -210 LINE SMOOTH",
"416 -210 OFFCURVE",
"492 -151 OFFCURVE",
"492 -30 CURVE SMOOTH",
"492 53 OFFCURVE",
"449 99 OFFCURVE",
"380 123 CURVE",
"246 123 LINE",
"298 70 LINE",
"366 68 OFFCURVE",
"400 32 OFFCURVE",
"400 -33 CURVE SMOOTH",
"400 -98 OFFCURVE",
"370 -122 OFFCURVE",
"302 -123 CURVE SMOOTH",
"247 -122 OFFCURVE",
"217 -105 OFFCURVE",
"208 -65 CURVE",
"125 -109 LINE",
"153 -176 OFFCURVE",
"215 -210 OFFCURVE",
"293 -210 CURVE SMOOTH"
);
},
{
closed = 1;
nodes = (
"235 154 OFFCURVE",
"205 196 OFFCURVE",
"205 253 CURVE SMOOTH",
"205 317 OFFCURVE",
"235 342 OFFCURVE",
"302 344 CURVE SMOOTH",
"370 342 OFFCURVE",
"400 317 OFFCURVE",
"400 253 CURVE SMOOTH",
"400 196 OFFCURVE",
"370 154 OFFCURVE",
"302 151 CURVE"
);
},
{
closed = 1;
nodes = (
"372 377 LINE",
"319 431 LINE",
"251 433 OFFCURVE",
"217 467 OFFCURVE",
"217 533 CURVE SMOOTH",
"217 597 OFFCURVE",
"247 623 OFFCURVE",
"315 624 CURVE SMOOTH",
"370 623 OFFCURVE",
"400 605 OFFCURVE",
"409 564 CURVE",
"492 608 LINE",
"464 678 OFFCURVE",
"402 710 OFFCURVE",
"324 710 CURVE SMOOTH",
"307 710 LINE SMOOTH",
"202 710 OFFCURVE",
"125 650 OFFCURVE",
"125 531 CURVE SMOOTH",
"125 447 OFFCURVE",
"168 402 OFFCURVE",
"238 377 CURVE"
);
}
);
width = 600;
}
);
unicode = 00A7;
},
{
glyphname = copyright;
lastChange = "2024-02-16 04:22:05 +0000";
layers = (
{
components = (
{
name = c;
transform = "{0.60888, 0, 0, 0.60888, 213, 171}";
}
);
layerId = "45F6A7D2-68A2-4980-BE0C-7C210C91EB90";
paths = (
{
closed = 1;
nodes = (
"580 -12 OFFCURVE",
"743 150 OFFCURVE",
"743 350 CURVE SMOOTH",
"743 549 OFFCURVE",
"580 711 OFFCURVE",
"382 711 CURVE SMOOTH",
"183 711 OFFCURVE",
"20 549 OFFCURVE",
"20 350 CURVE SMOOTH",
"20 150 OFFCURVE",
"183 -12 OFFCURVE",
"382 -12 CURVE SMOOTH"
);
},
{
closed = 1;
nodes = (
"232 78 OFFCURVE",
"110 200 OFFCURVE",
"110 350 CURVE SMOOTH",
"110 499 OFFCURVE",
"232 621 OFFCURVE",
"382 621 CURVE SMOOTH",
"531 621 OFFCURVE",
"653 499 OFFCURVE",
"653 350 CURVE SMOOTH",
"653 200 OFFCURVE",
"531 78 OFFCURVE",
"382 78 CURVE SMOOTH"
);
}
);
width = 763;
}
);
unicode = 00A9;
},
{
glyphname = logicalnot;
lastChange = "2024-02-16 04:22:05 +0000";
layers = (
{
layerId = "45F6A7D2-68A2-4980-BE0C-7C210C91EB90";
paths = (
{
closed = 1;
nodes = (
"538 215 LINE",
"538 305 LINE",
"63 305 LINE",
"63 215 LINE"
);
},
{
closed = 1;
nodes = (
"538 34 LINE",
"538 304 LINE",
"443 304 LINE",
"443 34 LINE"
);
}
);
width = 600;
}
);
unicode = 00AC;
},
{
glyphname = registered;
lastChange = "2024-02-16 04:22:05 +0000";
layers = (
{
components = (
{
name = R;
transform = "{0.4865, 0, 0, 0.4865, 233, 181}";
}
);
layerId = "45F6A7D2-68A2-4980-BE0C-7C210C91EB90";
paths = (
{
closed = 1;
nodes = (
"580 -12 OFFCURVE",
"743 150 OFFCURVE",
"743 350 CURVE SMOOTH",
"743 549 OFFCURVE",
"580 711 OFFCURVE",
"382 711 CURVE SMOOTH",
"183 711 OFFCURVE",
"20 549 OFFCURVE",
"20 350 CURVE SMOOTH",
"20 150 OFFCURVE",
"183 -12 OFFCURVE",
"382 -12 CURVE SMOOTH"
);
},
{
closed = 1;
nodes = (
"232 78 OFFCURVE",
"110 200 OFFCURVE",
"110 350 CURVE SMOOTH",
"110 499 OFFCURVE",
"232 621 OFFCURVE",
"382 621 CURVE SMOOTH",
"531 621 OFFCURVE",
"653 499 OFFCURVE",
"653 350 CURVE SMOOTH",
"653 200 OFFCURVE",
"531 78 OFFCURVE",
"382 78 CURVE SMOOTH"
);
}
);
width = 763;
}
);
unicode = 00AE;
},
{
glyphname = degree;
lastChange = "2024-04-04 02:50:41 +0000";
layers = (
{
layerId = "45F6A7D2-68A2-4980-BE0C-7C210C91EB90";
paths = (
{
closed = 1;
nodes = (
"222 458 OFFCURVE",
"270 516 OFFCURVE",
"270 582 CURVE SMOOTH",
"270 603 LINE SMOOTH",
"270 669 OFFCURVE",
"222 721 OFFCURVE",
"160 721 CURVE SMOOTH",
"97 721 OFFCURVE",
"50 669 OFFCURVE",
"50 603 CURVE SMOOTH",
"50 582 LINE SMOOTH",
"50 516 OFFCURVE",
"97 458 OFFCURVE",
"160 458 CURVE SMOOTH"
);
},
{
closed = 1;
nodes = (
"132 520 OFFCURVE",
"112 550 OFFCURVE",
"112 584 CURVE SMOOTH",
"112 601 LINE SMOOTH",
"112 636 OFFCURVE",
"132 659 OFFCURVE",
"160 659 CURVE SMOOTH",
"188 659 OFFCURVE",
"207 636 OFFCURVE",
"207 601 CURVE SMOOTH",
"207 584 LINE SMOOTH",
"207 550 OFFCURVE",
"188 520 OFFCURVE",
"160 520 CURVE SMOOTH"
);
}
);
width = 310;
}
);
leftMetricsKey = o;
rightMetricsKey = o;
unicode = 00B0;
},
{
glyphname = acute;
lastChange = "2024-02-16 04:22:05 +0000";
layers = (
{
layerId = "45F6A7D2-68A2-4980-BE0C-7C210C91EB90";
paths = (
{
closed = 1;
nodes = (
"155 621 LINE",
"267 760 LINE",
"166 760 LINE",
"70 621 LINE"
);
}
);
width = 337;
}
);
leftMetricsKey = I;
rightMetricsKey = I;
unicode = 00B4;
},
{
glyphname = paragraph;
lastChange = "2024-02-16 04:22:05 +0000";
layers = (
{
layerId = "45F6A7D2-68A2-4980-BE0C-7C210C91EB90";
paths = (
{
closed = 1;
nodes = (
"344 -92 LINE",
"344 700 LINE",
"234 700 LINE SMOOTH",
"129 700 OFFCURVE",
"45 654 OFFCURVE",
"45 538 CURVE SMOOTH",
"45 425 OFFCURVE",
"129 375 OFFCURVE",
"234 375 CURVE SMOOTH",
"249 375 LINE",
"249 -92 LINE"
);
},
{
closed = 1;
nodes = (
"502 -92 LINE",
"501 700 LINE",
"408 700 LINE",
"407 -92 LINE"
);
}
);
width = 572;
}
);
leftMetricsKey = J;
rightMetricsKey = H;
unicode = 00B6;
},
{
glyphname = cedilla;
lastChange = "2024-02-22 04:05:34 +0000";
layers = (
{
layerId = "45F6A7D2-68A2-4980-BE0C-7C210C91EB90";
paths = (
{
closed = 1;
nodes = (
"328 -264 LINE SMOOTH",
"369 -264 OFFCURVE",
"450 -227 OFFCURVE",
"450 -141 CURVE SMOOTH",
"450 -55 OFFCURVE",
"373 -19 OFFCURVE",
"332 -19 CURVE SMOOTH",
"321 -19 LINE",
"346 39 LINE",
"278 39 LINE",
"224 -82 LINE",
"317 -82 LINE SMOOTH",
"343 -82 OFFCURVE",
"389 -95 OFFCURVE",
"389 -141 CURVE SMOOTH",
"389 -187 OFFCURVE",
"343 -200 OFFCURVE",
"317 -200 CURVE SMOOTH",
"224 -200 LINE",
"224 -264 LINE"
);
}
);
width = 600;
}
);
unicode = 00B8;
},
{
glyphname = questiondown;
lastChange = "2024-04-06 08:03:50 +0000";
layers = (
{
components = (
{
name = punto;
transform = "{1, 0, 0, 1, 243, 426}";
}
);
layerId = "45F6A7D2-68A2-4980-BE0C-7C210C91EB90";
paths = (
{
closed = 1;
nodes = (
"393 -282 LINE",
"393 -177 LINE",
"297 -177 LINE SMOOTH",
"205 -177 OFFCURVE",
"155 -145 OFFCURVE",
"155 -62 CURVE SMOOTH",
"155 81 OFFCURVE",
"351 131 OFFCURVE",
"351 343 CURVE",
"245 343 LINE",
"245 165 OFFCURVE",
"50 154 OFFCURVE",
"50 -57 CURVE SMOOTH",
"50 -214 OFFCURVE",
"165 -282 OFFCURVE",
"308 -282 CURVE SMOOTH"
);
}
);
width = 423;
}
);
leftMetricsKey = C;
rightMetricsKey = F;
unicode = 00BF;
},
{
glyphname = multiply;
lastChange = "2024-02-16 04:22:05 +0000";
layers = (
{
layerId = "45F6A7D2-68A2-4980-BE0C-7C210C91EB90";
paths = (
{
closed = 1;
nodes = (
"548 94 LINE",
"367 314 LINE",
"548 535 LINE",
"423 535 LINE",
"243 314 LINE",
"423 94 LINE"
);
},
{
closed = 1;
nodes = (
"187 94 LINE",
"367 314 LINE",
"187 535 LINE",
"62 535 LINE",
"243 314 LINE",
"62 94 LINE"
);
}
);
width = 600;
}
);
unicode = 00D7;
},
{
glyphname = germandbls;
lastChange = "2024-04-02 21:54:19 +0000";
layers = (
{
components = (
{
name = simplecurve;
transform = "{1, 0, 0, 1, 198, 3}";
}
);
layerId = "45F6A7D2-68A2-4980-BE0C-7C210C91EB90";
paths = (
{
closed = 1;
nodes = (
"187 0 LINE",
"187 426 LINE SMOOTH",
"187 601 OFFCURVE",
"248 619 OFFCURVE",
"282 619 CURVE SMOOTH",
"474 619 LINE",
"473 516 OFFCURVE",
"424 452 OFFCURVE",
"252 452 CURVE",
"252 346 LINE",
"254 346 LINE SMOOTH",
"394 346 OFFCURVE",
"591 380 OFFCURVE",
"591 729 CURVE",
"287 729 LINE",
"285 729 LINE",
"283 729 LINE SMOOTH",
"196 728 OFFCURVE",
"70 664 OFFCURVE",
"70 427 CURVE SMOOTH",
"70 194 LINE",
"71 0 LINE"
);
}
);
width = 651;
}
);
leftMetricsKey = A;
rightMetricsKey = B;
unicode = 00DF;
},
{
glyphname = divide;
lastChange = "2024-04-27 03:27:37 +0000";
layers = (
{
components = (
{
name = minus;
transform = "{1.30605, 0, 0, 0.9091, -92, 52}";
}
);
layerId = "45F6A7D2-68A2-4980-BE0C-7C210C91EB90";
paths = (
{
closed = 1;
nodes = (
"313 471 LINE SMOOTH",
"349 471 OFFCURVE",
"379 497 OFFCURVE",
"379 533 CURVE SMOOTH",
"379 568 OFFCURVE",
"350 595 OFFCURVE",
"313 595 CURVE SMOOTH",
"301 595 LINE SMOOTH",
"264 595 OFFCURVE",
"231 568 OFFCURVE",
"231 533 CURVE SMOOTH",
"231 498 OFFCURVE",
"264 471 OFFCURVE",
"301 471 CURVE SMOOTH"
);
},
{
closed = 1;
nodes = (
"313 103 LINE SMOOTH",
"350 103 OFFCURVE",
"379 130 OFFCURVE",
"379 165 CURVE SMOOTH",
"379 200 OFFCURVE",
"350 227 OFFCURVE",
"313 227 CURVE SMOOTH",
"301 227 LINE SMOOTH",
"264 227 OFFCURVE",
"231 200 OFFCURVE",
"231 165 CURVE SMOOTH",
"231 130 OFFCURVE",
"264 103 OFFCURVE",
"301 103 CURVE SMOOTH"
);
}
);
width = 600;
}
);
unicode = 00F7;
},
{
glyphname = circumflex;
lastChange = "2024-04-02 05:15:15 +0000";
layers = (
{
layerId = "45F6A7D2-68A2-4980-BE0C-7C210C91EB90";
paths = (
{
closed = 1;
nodes = (
"339 632 LINE",
"194 746 LINE",
"194 658 LINE",
"339 545 LINE"
);
},
{
closed = 1;
nodes = (
"194 658 LINE",
"194 746 LINE",
"49 632 LINE",
"49 545 LINE"
);
}
);
width = 365;
}
);
unicode = 02C6;
},
{
glyphname = caron;
lastChange = "2024-02-22 04:10:00 +0000";
layers = (
{
layerId = "45F6A7D2-68A2-4980-BE0C-7C210C91EB90";
paths = (
{
closed = 1;
nodes = (
"367 668 LINE",
"367 758 LINE",
"208 629 LINE",
"50 758 LINE",
"50 668 LINE",
"208 539 LINE"
);
}
);
width = 417;
}
);
unicode = 02C7;
},
{
glyphname = breve;
lastChange = "2024-02-22 04:10:20 +0000";
layers = (
{
layerId = "45F6A7D2-68A2-4980-BE0C-7C210C91EB90";
paths = (
{
closed = 1;
nodes = (
"269 596 OFFCURVE",
"307 657 OFFCURVE",
"306 739 CURVE",
"243 739 LINE",
"243 686 OFFCURVE",
"226 658 OFFCURVE",
"178 658 CURVE SMOOTH",
"130 658 OFFCURVE",
"113 686 OFFCURVE",
"113 739 CURVE",
"50 739 LINE",
"50 657 OFFCURVE",
"88 596 OFFCURVE",
"179 596 CURVE SMOOTH"
);
}
);
width = 356;
}
);
unicode = 02D8;
},
{
glyphname = ogonek;
lastChange = "2024-02-22 04:27:52 +0000";
layers = (
{
layerId = "45F6A7D2-68A2-4980-BE0C-7C210C91EB90";
paths = (
{
closed = 1;
nodes = (
"199 -112 LINE",
"147 -121 OFFCURVE",
"119 -117 OFFCURVE",
"119 -77 CURVE SMOOTH",
"119 -36 OFFCURVE",
"181 13 OFFCURVE",
"181 13 CURVE",
"138 13 LINE",
"79 -6 OFFCURVE",
"50 -36 OFFCURVE",
"50 -90 CURVE SMOOTH",
"50 -163 OFFCURVE",
"128 -183 OFFCURVE",
"209 -167 CURVE"
);
}
);
width = 259;
}
);
unicode = 02DB;
},
{
glyphname = hungarumlaut;
lastChange = "2024-02-16 04:22:05 +0000";
layers = (
{
layerId = "45F6A7D2-68A2-4980-BE0C-7C210C91EB90";
paths = (
{
closed = 1;
nodes = (
"333 585 LINE",
"449 725 LINE",
"360 725 LINE",
"267 585 LINE"
);
},
{
closed = 1;
nodes = (
"218 586 LINE",
"311 725 LINE",
"222 725 LINE",
"152 586 LINE"
);
}
);
width = 600;
}
);
unicode = 02DD;
},
{
glyphname = endash;
lastChange = "2024-02-16 04:22:05 +0000";
layers = (
{
layerId = "45F6A7D2-68A2-4980-BE0C-7C210C91EB90";
paths = (
{
closed = 1;
nodes = (
"500 270 LINE",
"500 377 LINE",
"0 375 LINE",
"0 268 LINE"
);
}
);
width = 500;
}
);
unicode = 2013;
},
{
glyphname = emdash;
lastChange = "2024-02-16 04:22:05 +0000";
layers = (
{
layerId = "45F6A7D2-68A2-4980-BE0C-7C210C91EB90";
paths = (
{
closed = 1;
nodes = (
"820 270 LINE",
"820 377 LINE",
"0 377 LINE",
"0 270 LINE"
);
}
);
width = 820;
}
);
unicode = 2014;
},
{
glyphname = quoteleft;
lastChange = "2024-02-16 04:22:05 +0000";
layers = (
{
layerId = "45F6A7D2-68A2-4980-BE0C-7C210C91EB90";
paths = (
{
closed = 1;
nodes = (
"155 614 OFFCURVE",
"171 712 OFFCURVE",
"254 726 CURVE",
"254 803 LINE",
"99 791 OFFCURVE",
"50 683 OFFCURVE",
"50 516 CURVE",
"155 515 LINE"
);
}
);
width = 284;
}
);
leftMetricsKey = O;
unicode = 2018;
},
{
glyphname = quoteright;
lastChange = "2024-03-28 05:44:03 +0000";
layers = (
{
layerId = "45F6A7D2-68A2-4980-BE0C-7C210C91EB90";
paths = (
{
closed = 1;
nodes = (
"176 527 OFFCURVE",
"224 634 OFFCURVE",
"224 801 CURVE",
"121 801 LINE",
"121 700 OFFCURVE",
"98 601 OFFCURVE",
"20 593 CURVE",
"20 515 LINE"
);
}
);
width = 254;
}
);
leftKerningGroup = an;
unicode = 2019;
},
{
glyphname = quotedblleft;
lastChange = "2024-04-06 02:00:40 +0000";
layers = (
{
layerId = "45F6A7D2-68A2-4980-BE0C-7C210C91EB90";
paths = (
{
closed = 1;
nodes = (
"291 513 LINE",
"291 611 OFFCURVE",
"309 710 OFFCURVE",
"375 727 CURVE",
"375 800 LINE",
"263 771 OFFCURVE",
"198 646 OFFCURVE",
"198 513 CURVE"
);
},
{
closed = 1;
nodes = (
"143 513 LINE",
"143 609 OFFCURVE",
"161 709 OFFCURVE",
"227 727 CURVE",
"227 800 LINE",
"113 770 OFFCURVE",
"50 647 OFFCURVE",
"50 513 CURVE"
);
}
);
width = 395;
}
);
leftMetricsKey = O;
unicode = 201C;
},
{
glyphname = quotedblright;
lastChange = "2024-04-06 02:01:23 +0000";
layers = (
{
layerId = "45F6A7D2-68A2-4980-BE0C-7C210C91EB90";
paths = (
{
closed = 1;
nodes = (
"282 543 OFFCURVE",
"345 666 OFFCURVE",
"345 800 CURVE",
"252 800 LINE",
"252 704 OFFCURVE",
"234 604 OFFCURVE",
"168 586 CURVE",
"168 513 LINE"
);
},
{
closed = 1;
nodes = (
"132 542 OFFCURVE",
"197 667 OFFCURVE",
"197 800 CURVE",
"104 800 LINE",
"104 702 OFFCURVE",
"86 603 OFFCURVE",
"20 586 CURVE",
"20 513 LINE"
);
}
);
width = 395;
}
);
rightMetricsKey = O;
unicode = 201D;
},
{
glyphname = quotedblbase;
lastChange = "2024-04-27 01:32:28 +0000";
layers = (
{
layerId = "45F6A7D2-68A2-4980-BE0C-7C210C91EB90";
paths = (
{
closed = 1;
nodes = (
"229 -140 OFFCURVE",
"333 -80 OFFCURVE",
"333 73 CURVE",
"251 74 LINE",
"251 -47 OFFCURVE",
"217 -88 OFFCURVE",
"194 -95 CURVE",
"194 -152 LINE"
);
},
{
closed = 1;
nodes = (
"55 -140 OFFCURVE",
"159 -80 OFFCURVE",
"159 73 CURVE",
"77 74 LINE",
"77 -47 OFFCURVE",
"43 -88 OFFCURVE",
"20 -95 CURVE",
"20 -152 LINE"
);
}
);
width = 353;
}
);
unicode = 201E;
},
{
glyphname = dagger;
lastChange = "2024-04-06 08:04:05 +0000";
layers = (
{
layerId = "45F6A7D2-68A2-4980-BE0C-7C210C91EB90";
paths = (
{
closed = 1;
nodes = (
"274 0 LINE",
"274 700 LINE",
"172 700 LINE",
"172 0 LINE"
);
},
{
closed = 1;
nodes = (
"415 440 LINE",
"415 535 LINE",
"30 535 LINE",
"30 440 LINE"
);
}
);
width = 445;
}
);
leftMetricsKey = "=|F";
rightMetricsKey = F;
unicode = 2020;
},
{
glyphname = daggerdbl;
lastChange = "2024-02-16 04:22:05 +0000";
layers = (
{
layerId = "45F6A7D2-68A2-4980-BE0C-7C210C91EB90";
paths = (
{
closed = 1;
nodes = (
"254 -57 LINE",
"254 700 LINE",
"152 700 LINE",
"152 -57 LINE"
);
},
{
closed = 1;
nodes = (
"395 108 LINE",
"395 203 LINE",
"10 203 LINE",
"10 108 LINE"
);
},
{
closed = 1;
nodes = (
"395 440 LINE",
"395 535 LINE",
"10 535 LINE",
"10 440 LINE"
);
}
);
width = 405;
}
);
unicode = 2021;
},
{
glyphname = perthousand;
lastChange = "2024-04-06 08:03:59 +0000";
layers = (
{
components = (
{
name = degree;
transform = "{1.1525, 0, 0, 1.1525, 351, -541}";
},
{
name = degree;
transform = "{1.1525, 0, 0, 1.1525, -8, -123}";
},
{
name = degree;
transform = "{1.1525, 0, 0, 1.1525, 636, -541}";
}
);
layerId = "45F6A7D2-68A2-4980-BE0C-7C210C91EB90";
paths = (
{
closed = 1;
nodes = (
"215 0 LINE",
"587 702 LINE",
"474 702 LINE",
"102 0 LINE"
);
}
);
width = 997;
}
);
leftMetricsKey = O;
rightMetricsKey = O;
unicode = 2030;
},
{
glyphname = guilsinglleft;
lastChange = "2024-02-16 04:22:05 +0000";
layers = (
{
layerId = "45F6A7D2-68A2-4980-BE0C-7C210C91EB90";
paths = (
{
closed = 1;
nodes = (
"162 266 LINE",
"288 487 LINE",
"176 487 LINE",
"50 266 LINE"
);
},
{
closed = 1;
nodes = (
"288 58 LINE",
"162 266 LINE",
"50 266 LINE",
"176 58 LINE"
);
}
);
width = 338;
}
);
leftMetricsKey = O;
rightMetricsKey = O;
unicode = 2039;
},
{
glyphname = guilsinglright;
lastChange = "2024-02-16 04:22:05 +0000";
layers = (
{
layerId = "45F6A7D2-68A2-4980-BE0C-7C210C91EB90";
paths = (
{
closed = 1;
nodes = (
"288 266 LINE",
"162 487 LINE",
"50 487 LINE",
"176 266 LINE"
);
},
{
closed = 1;
nodes = (
"162 58 LINE",
"288 266 LINE",
"176 266 LINE",
"50 58 LINE"
);
}
);
width = 338;
}
);
leftMetricsKey = O;
rightMetricsKey = O;
unicode = 203A;
},
{
glyphname = trademark;
lastChange = "2024-02-16 04:22:05 +0000";
layers = (
{
layerId = "45F6A7D2-68A2-4980-BE0C-7C210C91EB90";
paths = (
{
closed = 1;
nodes = (
"338 370 LINE",
"338 647 LINE",
"393 642 OFFCURVE",
"450 621 OFFCURVE",
"450 539 CURVE SMOOTH",
"450 370 LINE",
"505 370 LINE",
"505 647 LINE",
"559 642 OFFCURVE",
"617 621 OFFCURVE",
"617 539 CURVE SMOOTH",
"617 370 LINE",
"672 370 LINE",
"672 449 LINE SMOOTH",
"672 504 OFFCURVE",
"673 449 OFFCURVE",
"672 540 CURVE SMOOTH",
"671 656 OFFCURVE",
"583 699 OFFCURVE",
"505 699 CURVE SMOOTH",
"503 699 OFFCURVE",
"499 700 OFFCURVE",
"496 700 CURVE SMOOTH",
"451 700 LINE",
"451 655 LINE",
"420 681 OFFCURVE",
"378 699 OFFCURVE",
"338 699 CURVE SMOOTH",
"335 699 OFFCURVE",
"334 700 OFFCURVE",
"331 700 CURVE SMOOTH",
"284 700 LINE",
"284 370 LINE"
);
},
{
closed = 1;
nodes = (
"221 420 LINE",
"167 424 OFFCURVE",
"113 445 OFFCURVE",
"113 527 CURVE SMOOTH",
"113 647 LINE",
"220 647 LINE",
"220 700 LINE",
"0 700 LINE",
"0 647 LINE",
"57 647 LINE",
"57 617 LINE SMOOTH",
"57 563 OFFCURVE",
"54 617 OFFCURVE",
"57 527 CURVE SMOOTH",
"58 412 OFFCURVE",
"144 372 OFFCURVE",
"221 370 CURVE"
);
}
);
width = 672;
}
);
unicode = 2122;
},
{
glyphname = partialdiff;
lastChange = "2024-02-16 04:22:05 +0000";
layers = (
{
layerId = "45F6A7D2-68A2-4980-BE0C-7C210C91EB90";
paths = (
{
closed = 1;
nodes = (
"316 0 LINE SMOOTH",
"458 0 OFFCURVE",
"545 76 OFFCURVE",
"545 226 CURVE SMOOTH",
"545 340 OFFCURVE",
"493 392 OFFCURVE",
"407 424 CURVE",
"430 434 OFFCURVE",
"454 451 OFFCURVE",
"472 467 CURVE SMOOTH",
"532 521 OFFCURVE",
"546 610 OFFCURVE",
"545 710 CURVE",
"103 710 LINE",
"103 604 LINE",
"435 604 LINE",
"427 550 OFFCURVE",
"387 516 OFFCURVE",
"341 493 CURVE SMOOTH",
"303 474 LINE",
"200 429 LINE",
"114 397 OFFCURVE",
"68 340 OFFCURVE",
"68 226 CURVE SMOOTH",
"68 76 OFFCURVE",
"155 0 OFFCURVE",
"297 0 CURVE SMOOTH"
);
},
{
closed = 1;
nodes = (
"215 87 OFFCURVE",
"175 138 OFFCURVE",
"175 219 CURVE SMOOTH",
"175 300 OFFCURVE",
"215 361 OFFCURVE",
"306 361 CURVE SMOOTH",
"397 361 OFFCURVE",
"437 300 OFFCURVE",
"437 219 CURVE SMOOTH",
"437 138 OFFCURVE",
"397 87 OFFCURVE",
"306 87 CURVE SMOOTH"
);
}
);
width = 605;
}
);
unicode = 2202;
},
{
glyphname = product;
lastChange = "2024-04-06 08:03:59 +0000";
layers = (
{
layerId = "45F6A7D2-68A2-4980-BE0C-7C210C91EB90";
paths = (
{
closed = 1;
nodes = (
"484 -84 LINE",
"484 700 LINE",
"382 700 LINE",
"382 -84 LINE"
);
},
{
closed = 1;
nodes = (
"227 -84 LINE",
"227 700 LINE",
"125 700 LINE",
"125 -84 LINE"
);
},
{
closed = 1;
nodes = (
"580 590 LINE",
"580 700 LINE",
"30 700 LINE",
"30 590 LINE"
);
}
);
width = 610;
}
);
leftMetricsKey = "=|F";
rightMetricsKey = F;
unicode = 220F;
},
{
glyphname = summation;
lastChange = "2024-02-16 04:22:05 +0000";
layers = (
{
layerId = "45F6A7D2-68A2-4980-BE0C-7C210C91EB90";
paths = (
{
closed = 1;
nodes = (
"517 -124 LINE",
"517 -38 LINE",
"174 -38 LINE",
"439 288 LINE",
"174 614 LINE",
"517 614 LINE",
"517 700 LINE",
"60 700 LINE",
"60 614 LINE",
"328 288 LINE",
"61 -38 LINE",
"60 -124 LINE"
);
}
);
width = 600;
}
);
unicode = 2211;
},
{
glyphname = radical;
lastChange = "2024-02-16 04:22:05 +0000";
layers = (
{
layerId = "45F6A7D2-68A2-4980-BE0C-7C210C91EB90";
paths = (
{
closed = 1;
nodes = (
"250 -115 LINE",
"249 -113 LINE",
"437 614 LINE",
"584 614 LINE",
"584 700 LINE",
"358 700 LINE",
"196 49 LINE",
"146 240 LINE",
"45 240 LINE",
"148 -113 LINE",
"148 -115 LINE"
);
}
);
width = 624;
}
);
unicode = 221A;
},
{
glyphname = infinity;
lastChange = "2024-02-16 04:22:05 +0000";
layers = (
{
layerId = "45F6A7D2-68A2-4980-BE0C-7C210C91EB90";
paths = (
{
closed = 1;
nodes = (
"879 -10 OFFCURVE",
"986 100 OFFCURVE",
"986 269 CURVE SMOOTH",
"986 435 OFFCURVE",
"881 549 OFFCURVE",
"734 549 CURVE SMOOTH",
"618 549 OFFCURVE",
"558 493 OFFCURVE",
"517 390 CURVE",
"517 148 LINE",
"558 45 OFFCURVE",
"618 -10 OFFCURVE",
"734 -10 CURVE SMOOTH"
);
},
{
closed = 1;
nodes = (
"418 -10 OFFCURVE",
"478 45 OFFCURVE",
"519 148 CURVE",
"519 390 LINE",
"478 493 OFFCURVE",
"418 549 OFFCURVE",
"302 549 CURVE SMOOTH",
"155 549 OFFCURVE",
"50 435 OFFCURVE",
"50 269 CURVE SMOOTH",
"50 100 OFFCURVE",
"157 -10 OFFCURVE",
"302 -10 CURVE SMOOTH"
);
},
{
closed = 1;
nodes = (
"221 98 OFFCURVE",
"151 163 OFFCURVE",
"148 269 CURVE SMOOTH",
"150 375 OFFCURVE",
"211 440 OFFCURVE",
"303 440 CURVE SMOOTH",
"386 440 OFFCURVE",
"456 375 OFFCURVE",
"459 269 CURVE SMOOTH",
"457 163 OFFCURVE",
"397 98 OFFCURVE",
"303 98 CURVE SMOOTH"
);
},
{
closed = 1;
nodes = (
"639 98 OFFCURVE",
"579 163 OFFCURVE",
"577 269 CURVE SMOOTH",
"580 375 OFFCURVE",
"650 440 OFFCURVE",
"733 440 CURVE SMOOTH",
"825 440 OFFCURVE",
"886 375 OFFCURVE",
"888 269 CURVE SMOOTH",
"885 163 OFFCURVE",
"815 98 OFFCURVE",
"733 98 CURVE SMOOTH"
);
}
);
width = 1036;
}
);
leftMetricsKey = O;
rightMetricsKey = O;
unicode = 221E;
},
{
glyphname = approxequal;
lastChange = "2024-04-27 03:23:39 +0000";
layers = (
{
layerId = "45F6A7D2-68A2-4980-BE0C-7C210C91EB90";
paths = (
{
closed = 1;
nodes = (
"470 296 OFFCURVE",
"524 348 OFFCURVE",
"524 423 CURVE SMOOTH",
"524 457 LINE",
"442 457 LINE",
"442 431 LINE SMOOTH",
"442 388 OFFCURVE",
"415 372 OFFCURVE",
"396 372 CURVE SMOOTH",
"383 372 OFFCURVE",
"372 374 OFFCURVE",
"355 383 CURVE SMOOTH",
"294 418 OFFCURVE",
"278 466 OFFCURVE",
"206 466 CURVE SMOOTH",
"131 466 OFFCURVE",
"77 412 OFFCURVE",
"77 339 CURVE SMOOTH",
"77 307 LINE",
"159 307 LINE",
"159 331 LINE SMOOTH",
"159 374 OFFCURVE",
"186 390 OFFCURVE",
"205 390 CURVE SMOOTH",
"218 390 OFFCURVE",
"229 388 OFFCURVE",
"246 378 CURVE SMOOTH",
"307 344 OFFCURVE",
"327 296 OFFCURVE",
"395 296 CURVE SMOOTH"
);
},
{
closed = 1;
nodes = (
"470 99 OFFCURVE",
"524 151 OFFCURVE",
"524 226 CURVE SMOOTH",
"524 260 LINE",
"442 260 LINE",
"442 234 LINE SMOOTH",
"442 191 OFFCURVE",
"415 175 OFFCURVE",
"396 175 CURVE SMOOTH",
"383 175 OFFCURVE",
"372 177 OFFCURVE",
"355 186 CURVE SMOOTH",
"294 221 OFFCURVE",
"278 269 OFFCURVE",
"206 269 CURVE SMOOTH",
"131 269 OFFCURVE",
"77 215 OFFCURVE",
"77 142 CURVE SMOOTH",
"77 110 LINE",
"159 110 LINE",
"159 134 LINE SMOOTH",
"159 177 OFFCURVE",
"186 193 OFFCURVE",
"205 193 CURVE SMOOTH",
"218 193 OFFCURVE",
"229 191 OFFCURVE",
"246 181 CURVE SMOOTH",
"307 147 OFFCURVE",
"327 99 OFFCURVE",
"395 99 CURVE SMOOTH"
);
}
);
width = 600;
}
);
unicode = 2248;
},
{
glyphname = notequal;
lastChange = "2024-02-16 04:22:05 +0000";
layers = (
{
layerId = "45F6A7D2-68A2-4980-BE0C-7C210C91EB90";
paths = (
{
closed = 1;
nodes = (
"218 59 LINE",
"486 633 LINE",
"390 633 LINE",
"122 59 LINE"
);
},
{
closed = 1;
nodes = (
"551 214 LINE",
"551 299 LINE",
"72 298 LINE",
"72 212 LINE"
);
},
{
closed = 1;
nodes = (
"551 412 LINE",
"551 497 LINE",
"72 496 LINE",
"72 410 LINE"
);
}
);
width = 600;
}
);
unicode = 2260;
},
{
glyphname = lessequal;
lastChange = "2024-04-27 03:22:20 +0000";
layers = (
{
layerId = "45F6A7D2-68A2-4980-BE0C-7C210C91EB90";
paths = (
{
closed = 1;
nodes = (
"545 252 LINE",
"183 366 LINE",
"545 479 LINE",
"545 564 LINE",
"55 408 LINE",
"55 323 LINE",
"545 167 LINE"
);
},
{
closed = 1;
nodes = (
"545 34 LINE",
"545 119 LINE",
"55 119 LINE",
"55 34 LINE"
);
}
);
width = 600;
}
);
unicode = 2264;
},
{
glyphname = greaterequal;
lastChange = "2024-04-27 03:21:58 +0000";
layers = (
{
layerId = "45F6A7D2-68A2-4980-BE0C-7C210C91EB90";
paths = (
{
closed = 1;
nodes = (
"545 323 LINE",
"545 408 LINE",
"55 564 LINE",
"55 479 LINE",
"417 366 LINE",
"55 252 LINE",
"55 167 LINE"
);
},
{
closed = 1;
nodes = (
"545 34 LINE",
"545 119 LINE",
"55 119 LINE",
"55 34 LINE"
);
}
);
width = 600;
}
);
unicode = 2265;
},
{
glyphname = lozenge;
lastChange = "2024-02-16 04:22:05 +0000";
layers = (
{
components = (
{
name = vchiquita;
transform = "{1, 0, 0, 1, 19, 0}";
}
);
layerId = "45F6A7D2-68A2-4980-BE0C-7C210C91EB90";
paths = (
{
closed = 1;
nodes = (
"141 286 LINE",
"259 499 LINE",
"376 286 LINE",
"457 286 LINE",
"300 574 LINE",
"217 574 LINE",
"60 286 LINE"
);
}
);
width = 517;
}
);
unicode = 25CA;
},
{
glyphname = asciicircum;
lastChange = "2024-04-06 08:03:59 +0000";
layers = (
{
layerId = "45F6A7D2-68A2-4980-BE0C-7C210C91EB90";
paths = (
{
closed = 1;
nodes = (
"98 416 LINE",
"196 618 LINE",
"294 416 LINE",
"362 416 LINE",
"223 700 LINE",
"169 700 LINE",
"30 416 LINE"
);
}
);
width = 392;
}
);
leftMetricsKey = "=|F";
rightMetricsKey = F;
unicode = 005E;
},
{
export = 0;
glyphname = newGlyph;
lastChange = "2024-04-27 03:46:35 +0000";
layers = (
{
layerId = "45F6A7D2-68A2-4980-BE0C-7C210C91EB90";
paths = (
{
closed = 1;
nodes = (
"127 -7 LINE SMOOTH",
"180 -7 OFFCURVE",
"535 6 OFFCURVE",
"535 406 CURVE",
"70 406 LINE",
"70 296 LINE",
"417 296 LINE",
"417 136 OFFCURVE",
"164 91 OFFCURVE",
"70 91 CURVE",
"70 -9 LINE"
);
},
{
closed = 1;
nodes = (
"230 406 LINE",
"532 588 LINE",
"362 588 LINE",
"73 406 LINE"
);
},
{
closed = 1;
nodes = (
"532 588 LINE",
"532 698 LINE",
"37 698 LINE",
"37 588 LINE"
);
}
);
width = 595;
}
);
},
{
glyphname = fraction;
lastChange = "2024-02-16 04:22:05 +0000";
layers = (
{
layerId = "45F6A7D2-68A2-4980-BE0C-7C210C91EB90";
paths = (
{
closed = 1;
nodes = (
"150 -148 LINE",
"529 698 LINE",
"418 698 LINE",
"39 -148 LINE"
);
}
);
width = 600;
}
);
unicode = 2044;
},
{
glyphname = quotesinglbase;
lastChange = "2024-02-16 04:22:05 +0000";
layers = (
{
layerId = "45F6A7D2-68A2-4980-BE0C-7C210C91EB90";
paths = (
{
closed = 1;
nodes = (
"205 -185 OFFCURVE",
"254 -77 OFFCURVE",
"254 90 CURVE",
"149 91 LINE",
"149 -8 OFFCURVE",
"133 -106 OFFCURVE",
"50 -120 CURVE",
"50 -197 LINE"
);
}
);
width = 304;
}
);
leftMetricsKey = O;
rightMetricsKey = O;
unicode = 201A;
},
{
glyphname = minus;
lastChange = "2024-04-27 03:23:09 +0000";
layers = (
{
layerId = "45F6A7D2-68A2-4980-BE0C-7C210C91EB90";
paths = (
{
closed = 1;
nodes = (
"523 270 LINE",
"523 380 LINE",
"77 380 LINE",
"77 270 LINE"
);
}
);
width = 600;
}
);
unicode = 2212;
},
{
glyphname = emptyset;
lastChange = "2024-02-16 04:22:05 +0000";
layers = (
{
components = (
{
name = anillocopy;
transform = "{1, 0, 0, 1, 24, 13}";
}
);
layerId = "45F6A7D2-68A2-4980-BE0C-7C210C91EB90";
paths = (
{
closed = 1;
nodes = (
"123 -2 LINE",
"637 630 LINE",
"516 630 LINE",
"0 -2 LINE"
);
}
);
width = 637;
}
);
unicode = 2205;
},
{
glyphname = integral;
lastChange = "2024-04-06 08:03:59 +0000";
layers = (
{
layerId = "45F6A7D2-68A2-4980-BE0C-7C210C91EB90";
paths = (
{
closed = 1;
nodes = (
"127 -142 OFFCURVE",
"275 -80 OFFCURVE",
"275 138 CURVE SMOOTH",
"275 479 LINE SMOOTH",
"274 636 OFFCURVE",
"378 653 OFFCURVE",
"417 653 CURVE",
"417 762 LINE",
"320 760 OFFCURVE",
"168 698 OFFCURVE",
"168 480 CURVE SMOOTH",
"168 139 LINE SMOOTH",
"169 -18 OFFCURVE",
"69 -35 OFFCURVE",
"30 -35 CURVE",
"30 -144 LINE"
);
}
);
width = 447;
}
);
leftMetricsKey = "=|F";
rightMetricsKey = F;
unicode = 222B;
},
{
glyphname = bar;
lastChange = "2024-02-16 04:22:05 +0000";
layers = (
{
layerId = "45F6A7D2-68A2-4980-BE0C-7C210C91EB90";
paths = (
{
closed = 1;
nodes = (
"102 -115 LINE",
"102 700 LINE",
"0 700 LINE",
"0 -115 LINE"
);
}
);
width = 102;
}
);
unicode = 007C;
},
{
glyphname = macron;
lastChange = "2024-02-27 21:53:41 +0000";
layers = (
{
layerId = "45F6A7D2-68A2-4980-BE0C-7C210C91EB90";
paths = (
{
closed = 1;
nodes = (
"469 569 LINE",
"469 662 LINE",
"50 662 LINE",
"50 569 LINE"
);
}
);
width = 519;
}
);
unicode = 00AF;
},
{
glyphname = ring;
lastChange = "2024-02-22 03:56:25 +0000";
layers = (
{
layerId = "45F6A7D2-68A2-4980-BE0C-7C210C91EB90";
paths = (
{
closed = 1;
nodes = (
"207 551 OFFCURVE",
"253 602 OFFCURVE",
"253 654 CURVE SMOOTH",
"253 663 LINE SMOOTH",
"253 716 OFFCURVE",
"207 761 OFFCURVE",
"152 761 CURVE SMOOTH",
"97 761 OFFCURVE",
"50 716 OFFCURVE",
"50 663 CURVE SMOOTH",
"50 654 LINE SMOOTH",
"50 602 OFFCURVE",
"97 551 OFFCURVE",
"152 551 CURVE SMOOTH"
);
},
{
closed = 1;
nodes = (
"119 606 OFFCURVE",
"104 631 OFFCURVE",
"104 655 CURVE SMOOTH",
"104 660 LINE SMOOTH",
"104 684 OFFCURVE",
"119 706 OFFCURVE",
"152 706 CURVE SMOOTH",
"184 706 OFFCURVE",
"199 684 OFFCURVE",
"199 660 CURVE SMOOTH",
"199 655 LINE SMOOTH",
"199 631 OFFCURVE",
"184 606 OFFCURVE",
"152 606 CURVE SMOOTH"
);
}
);
width = 303;
}
);
unicode = 02DA;
},
{
export = 0;
glyphname = A.001;
lastChange = "2024-04-27 03:38:23 +0000";
layers = (
{
layerId = "45F6A7D2-68A2-4980-BE0C-7C210C91EB90";
paths = (
{
closed = 1;
nodes = (
"186 0 LINE",
"186 233 LINE",
"439 233 LINE",
"439 0 LINE",
"555 0 LINE",
"555 365 LINE SMOOTH",
"552 620 OFFCURVE",
"357 694 OFFCURVE",
"185 700 CURVE SMOOTH",
"70 700 LINE",
"70 0 LINE"
);
},
{
closed = 1;
nodes = (
"186 591 LINE",
"307 585 OFFCURVE",
"439 544 OFFCURVE",
"439 364 CURVE SMOOTH",
"439 343 LINE",
"186 343 LINE"
);
}
);
width = 605;
}
);
leftKerningGroup = L;
leftMetricsKey = "=H";
rightMetricsKey = "=N";
},
{
export = 0;
glyphname = J.alt;
lastChange = "2024-04-27 03:38:23 +0000";
layers = (
{
layerId = "45F6A7D2-68A2-4980-BE0C-7C210C91EB90";
paths = (
{
closed = 1;
nodes = (
"212 8 OFFCURVE",
"394 86 OFFCURVE",
"397 333 CURVE SMOOTH",
"398 453 OFFCURVE",
"397 407 OFFCURVE",
"397 700 CURVE",
"281 700 LINE",
"281 334 LINE SMOOTH",
"281 162 OFFCURVE",
"161 117 OFFCURVE",
"45 107 CURVE",
"45 -2 LINE"
);
}
);
width = 447;
}
);
leftMetricsKey = "=|C";
rightMetricsKey = D;
},
{
export = 0;
glyphname = P.alt;
lastChange = "2024-02-16 04:22:05 +0000";
layers = (
{
layerId = "45F6A7D2-68A2-4980-BE0C-7C210C91EB90";
paths = (
{
closed = 1;
nodes = (
"186 0 LINE",
"186 275 LINE",
"358 275 OFFCURVE",
"385 271 OFFCURVE",
"456 335 CURVE SMOOTH",
"517 393 OFFCURVE",
"533 495 OFFCURVE",
"501 571 CURVE SMOOTH",
"471 651 OFFCURVE",
"389 699 OFFCURVE",
"293 699 CURVE SMOOTH",
"70 699 LINE",
"70 0 LINE"
);
},
{
closed = 1;
nodes = (
"186 586 LINE",
"287 586 LINE SMOOTH",
"358 586 OFFCURVE",
"411 562 OFFCURVE",
"411 484 CURVE SMOOTH",
"411 409 OFFCURVE",
"361 382 OFFCURVE",
"287 382 CURVE SMOOTH",
"186 382 LINE"
);
}
);
width = 547;
}
);
leftMetricsKey = P;
rightMetricsKey = P;
},
{
export = 0;
glyphname = S.alt;
lastChange = "2024-02-16 04:22:05 +0000";
layers = (
{
layerId = "45F6A7D2-68A2-4980-BE0C-7C210C91EB90";
paths = (
{
closed = 1;
nodes = (
"245 0 LINE SMOOTH",
"385 0 OFFCURVE",
"498 65 OFFCURVE",
"503 215 CURVE",
"498 356 OFFCURVE",
"398 396 OFFCURVE",
"295 427 CURVE SMOOTH",
"241 442 OFFCURVE",
"186 502 OFFCURVE",
"187 589 CURVE",
"486 590 LINE",
"486 701 LINE",
"72 700 LINE",
"70 608 LINE",
"70 603 LINE SMOOTH",
"70 456 OFFCURVE",
"157 356 OFFCURVE",
"268 332 CURVE SMOOTH",
"340 315 OFFCURVE",
"395 292 OFFCURVE",
"398 215 CURVE",
"395 138 OFFCURVE",
"345 110 OFFCURVE",
"256 110 CURVE SMOOTH",
"53 110 LINE",
"53 0 LINE"
);
}
);
width = 573;
}
);
},
{
export = 0;
glyphname = M.old;
lastChange = "2024-04-27 03:38:23 +0000";
layers = (
{
background = {
paths = (
{
closed = 1;
nodes = (
"890 0 LINE",
"890 84 OFFCURVE",
"890 273 OFFCURVE",
"890 364 CURVE SMOOTH",
"890 610 OFFCURVE",
"689 700 OFFCURVE",
"529 700 CURVE",
"422 700 LINE",
"422 604 LINE",
"373 663 OFFCURVE",
"278 700 OFFCURVE",
"181 700 CURVE",
"70 700 LINE",
"70 0 LINE",
"186 0 LINE",
"186 587 LINE",
"302 587 OFFCURVE",
"422 535 OFFCURVE",
"422 363 CURVE SMOOTH",
"422 0 LINE",
"535 0 LINE",
"535 580 LINE",
"651 580 OFFCURVE",
"774 535 OFFCURVE",
"774 363 CURVE SMOOTH",
"774 0 LINE"
);
}
);
};
layerId = "45F6A7D2-68A2-4980-BE0C-7C210C91EB90";
paths = (
{
closed = 1;
nodes = (
"186 0 LINE",
"186 587 LINE",
"302 587 OFFCURVE",
"423 504 OFFCURVE",
"423 332 CURVE SMOOTH",
"423 0 LINE",
"535 0 LINE",
"535 587 LINE",
"651 587 OFFCURVE",
"774 535 OFFCURVE",
"774 363 CURVE SMOOTH",
"774 0 LINE",
"890 0 LINE",
"890 363 LINE SMOOTH",
"890 579 OFFCURVE",
"776 684 OFFCURVE",
"513 700 CURVE",
"423 700 LINE",
"423 604 LINE",
"342 687 OFFCURVE",
"275 700 OFFCURVE",
"149 700 CURVE SMOOTH",
"70 700 LINE",
"70 0 LINE"
);
}
);
width = 940;
}
);
leftMetricsKey = "=H";
rightMetricsKey = "=N";
},
{
export = 0;
glyphname = O_in_two;
lastChange = "2024-02-16 04:22:05 +0000";
layers = (
{
layerId = "45F6A7D2-68A2-4980-BE0C-7C210C91EB90";
paths = (
{
closed = 1;
nodes = (
"514 -6 OFFCURVE",
"642 139 OFFCURVE",
"642 318 CURVE SMOOTH",
"642 384 LINE SMOOTH",
"642 561 OFFCURVE",
"514 707 OFFCURVE",
"346 707 CURVE SMOOTH",
"177 707 OFFCURVE",
"50 561 OFFCURVE",
"50 384 CURVE SMOOTH",
"50 318 LINE SMOOTH",
"50 139 OFFCURVE",
"177 -6 OFFCURVE",
"346 -6 CURVE SMOOTH"
);
},
{
closed = 1;
nodes = (
"235 105 OFFCURVE",
"170 196 OFFCURVE",
"170 318 CURVE SMOOTH",
"170 384 LINE SMOOTH",
"170 510 OFFCURVE",
"235 596 OFFCURVE",
"346 596 CURVE SMOOTH",
"457 596 OFFCURVE",
"522 510 OFFCURVE",
"522 384 CURVE SMOOTH",
"522 318 LINE SMOOTH",
"522 196 OFFCURVE",
"457 105 OFFCURVE",
"346 105 CURVE SMOOTH"
);
}
);
width = 692;
}
);
},
{
glyphname = idotless;
lastChange = "2024-02-22 04:50:19 +0000";
layers = (
{
anchors = (
{
name = bottom;
position = "{126, 0}";
},
{
name = ogonek;
position = "{227, 10}";
},
{
name = top;
position = "{126, 535}";
}
);
layerId = "45F6A7D2-68A2-4980-BE0C-7C210C91EB90";
paths = (
{
closed = 1;
nodes = (
"182 0 LINE",
"182 535 LINE",
"70 535 LINE",
"70 0 LINE"
);
}
);
width = 252;
}
);
leftMetricsKey = "=H";
rightMetricsKey = "=|H";
unicode = 0131;
},
{
glyphname = jdotless;
lastChange = "2024-04-27 03:38:08 +0000";
layers = (
{
anchors = (
{
name = bottom;
position = "{144, -200}";
},
{
name = top;
position = "{184, 535}";
}
);
layerId = "45F6A7D2-68A2-4980-BE0C-7C210C91EB90";
paths = (
{
closed = 1;
nodes = (
"107 -201 OFFCURVE",
"238 -139 OFFCURVE",
"238 80 CURVE SMOOTH",
"238 535 LINE",
"126 535 LINE",
"126 80 LINE SMOOTH",
"126 -77 OFFCURVE",
"54 -86 OFFCURVE",
"20 -91 CURVE",
"20 -200 LINE"
);
}
);
width = 288;
}
);
leftKerningGroup = y;
leftMetricsKey = j;
rightKerningGroup = i;
rightMetricsKey = j;
unicode = 0237;
},
{
export = 0;
glyphname = e.001;
lastChange = "2024-04-06 08:03:32 +0000";
layers = (
{
layerId = "45F6A7D2-68A2-4980-BE0C-7C210C91EB90";
paths = (
{
closed = 1;
nodes = (
"166 181 OFFCURVE",
"504 186 OFFCURVE",
"504 535 CURVE",
"50 535 LINE",
"50 253 LINE",
"157 181 LINE"
);
},
{
closed = 1;
nodes = (
"484 0 LINE",
"484 102 LINE",
"379 102 LINE SMOOTH",
"297 102 OFFCURVE",
"159 152 OFFCURVE",
"157 222 CURVE",
"50 259 LINE",
"50 64 OFFCURVE",
"237 0 OFFCURVE",
"379 0 CURVE SMOOTH"
);
},
{
closed = 1;
nodes = (
"157 433 LINE",
"382 433 LINE",
"381 341 OFFCURVE",
"250 279 OFFCURVE",
"157 279 CURVE"
);
}
);
width = 534;
}
);
leftMetricsKey = U;
rightMetricsKey = F;
},
{
export = 0;
glyphname = e.002;
lastChange = "2024-04-06 08:03:32 +0000";
layers = (
{
components = (
{
alignment = -1;
name = c;
}
);
hints = (
{
horizontal = 1;
origin = "{0, 8}";
target = "{0, 7}";
type = Stem;
},
{
place = "{387.5, 114.5}";
type = Stem;
}
);
layerId = "45F6A7D2-68A2-4980-BE0C-7C210C91EB90";
paths = (
{
closed = 1;
nodes = (
"185 172 OFFCURVE",
"504 164 OFFCURVE",
"502 535 CURVE",
"392 535 LINE",
"383 431 LINE",
"362 332 OFFCURVE",
"265 275 OFFCURVE",
"158 275 CURVE",
"176 172 LINE"
);
}
);
width = 532;
}
);
leftMetricsKey = U;
rightMetricsKey = F;
},
{
export = 0;
glyphname = n.001;
lastChange = "2024-02-16 04:22:05 +0000";
layers = (
{
layerId = "45F6A7D2-68A2-4980-BE0C-7C210C91EB90";
paths = (
{
closed = 1;
nodes = (
"166 0 LINE",
"166 432 LINE",
"262 426 OFFCURVE",
"348 394 OFFCURVE",
"347 251 CURVE SMOOTH",
"347 0 LINE",
"459 0 LINE",
"459 267 LINE SMOOTH",
"458 469 OFFCURVE",
"304 529 OFFCURVE",
"168 534 CURVE SMOOTH",
"50 535 LINE",
"50 0 LINE"
);
}
);
width = 499;
}
);
},
{
export = 0;
glyphname = a.old;
lastChange = "2024-04-02 21:58:33 +0000";
layers = (
{
layerId = "45F6A7D2-68A2-4980-BE0C-7C210C91EB90";
paths = (
{
closed = 1;
nodes = (
"489 0 LINE",
"489 267 LINE SMOOTH",
"489 473 OFFCURVE",
"312 535 OFFCURVE",
"170 535 CURVE SMOOTH",
"82 535 LINE",
"82 433 LINE",
"170 433 LINE SMOOTH",
"268 433 OFFCURVE",
"381 411 OFFCURVE",
"379 244 CURVE SMOOTH",
"377 102 LINE",
"158 102 LINE",
"159 205 OFFCURVE",
"234 262 OFFCURVE",
"393 251 CURVE",
"374 349 LINE",
"234 349 OFFCURVE",
"40 349 OFFCURVE",
"40 0 CURVE"
);
}
);
width = 559;
}
);
rightMetricsKey = "=|n";
},
{
export = 0;
glyphname = e.old;
lastChange = "2024-04-06 08:03:32 +0000";
layers = (
{
hints = (
{
horizontal = 1;
place = "{172, 103}";
type = Stem;
},
{
place = "{387.5, 114.5}";
type = Stem;
}
);
layerId = "45F6A7D2-68A2-4980-BE0C-7C210C91EB90";
paths = (
{
closed = 1;
nodes = (
"457 0 LINE",
"457 102 LINE",
"369 102 LINE SMOOTH",
"271 102 OFFCURVE",
"158 124 OFFCURVE",
"160 291 CURVE SMOOTH",
"162 433 LINE",
"381 433 LINE",
"380 330 OFFCURVE",
"305 273 OFFCURVE",
"146 284 CURVE",
"165 186 LINE",
"305 186 OFFCURVE",
"499 186 OFFCURVE",
"499 535 CURVE",
"50 535 LINE",
"50 268 LINE SMOOTH",
"50 62 OFFCURVE",
"227 0 OFFCURVE",
"369 0 CURVE SMOOTH"
);
}
);
width = 529;
}
);
leftMetricsKey = U;
rightMetricsKey = F;
},
{
export = 0;
glyphname = n.old;
lastChange = "2024-04-02 21:58:33 +0000";
layers = (
{
layerId = "45F6A7D2-68A2-4980-BE0C-7C210C91EB90";
paths = (
{
closed = 1;
nodes = (
"162 0 LINE",
"162 427 LINE",
"258 421 OFFCURVE",
"368 394 OFFCURVE",
"368 251 CURVE SMOOTH",
"368 0 LINE",
"480 0 LINE",
"480 267 LINE SMOOTH",
"480 469 OFFCURVE",
"316 534 OFFCURVE",
"179 534 CURVE SMOOTH",
"131 535 LINE",
"50 535 LINE",
"50 0 LINE"
);
}
);
width = 520;
}
);
leftMetricsKey = O;
},
{
export = 0;
glyphname = s.test;
lastChange = "2024-02-16 04:22:05 +0000";
layers = (
{
layerId = "45F6A7D2-68A2-4980-BE0C-7C210C91EB90";
paths = (
{
closed = 1;
nodes = (
"520 98 LINE",
"520 109 OFFCURVE",
"520 146 OFFCURVE",
"498 188 CURVE SMOOTH",
"467 247 OFFCURVE",
"419 274 OFFCURVE",
"379 303 CURVE SMOOTH",
"340 331 OFFCURVE",
"299 354 OFFCURVE",
"299 420 CURVE SMOOTH",
"299 489 OFFCURVE",
"362 498 OFFCURVE",
"393 498 CURVE SMOOTH",
"438 498 LINE",
"438 606 LINE",
"394 606 LINE SMOOTH",
"244 606 OFFCURVE",
"194 478 OFFCURVE",
"194 426 CURVE SMOOTH",
"194 387 OFFCURVE",
"194 289 OFFCURVE",
"314 233 CURVE SMOOTH",
"419 184 OFFCURVE",
"414 98 OFFCURVE",
"414 98 CURVE"
);
},
{
closed = 1;
nodes = (
"126 -89 LINE SMOOTH",
"276 -89 OFFCURVE",
"326 39 OFFCURVE",
"326 91 CURVE SMOOTH",
"326 130 OFFCURVE",
"326 228 OFFCURVE",
"206 284 CURVE SMOOTH",
"101 333 OFFCURVE",
"106 419 OFFCURVE",
"106 419 CURVE",
"0 419 LINE",
"0 408 OFFCURVE",
"0 371 OFFCURVE",
"22 329 CURVE SMOOTH",
"53 270 OFFCURVE",
"101 243 OFFCURVE",
"141 214 CURVE SMOOTH",
"180 186 OFFCURVE",
"221 163 OFFCURVE",
"221 97 CURVE SMOOTH",
"221 28 OFFCURVE",
"158 19 OFFCURVE",
"127 19 CURVE SMOOTH",
"82 19 LINE",
"82 -89 LINE"
);
}
);
width = 520;
}
);
},
{
export = 0;
glyphname = e.old.001;
lastChange = "2024-04-06 08:03:32 +0000";
layers = (
{
hints = (
{
horizontal = 1;
place = "{172, 103}";
type = Stem;
},
{
place = "{387.5, 114.5}";
type = Stem;
}
);
layerId = "45F6A7D2-68A2-4980-BE0C-7C210C91EB90";
paths = (
{
closed = 1;
nodes = (
"457 0 LINE",
"457 102 LINE",
"369 102 LINE SMOOTH",
"271 102 OFFCURVE",
"158 124 OFFCURVE",
"160 291 CURVE SMOOTH",
"162 433 LINE",
"381 433 LINE",
"380 330 OFFCURVE",
"305 273 OFFCURVE",
"146 284 CURVE",
"165 186 LINE",
"305 186 OFFCURVE",
"499 186 OFFCURVE",
"499 535 CURVE",
"50 535 LINE",
"50 268 LINE SMOOTH",
"50 62 OFFCURVE",
"227 0 OFFCURVE",
"369 0 CURVE SMOOTH"
);
}
);
width = 529;
}
);
leftMetricsKey = U;
rightMetricsKey = F;
},
{
export = 0;
glyphname = c_component_b_y_d;
lastChange = "2024-04-27 03:37:22 +0000";
layers = (
{
components = (
{
alignment = -1;
name = baston_n_min;
transform = "{-1, 0, 0, -1, 501, 535}";
}
);
layerId = "45F6A7D2-68A2-4980-BE0C-7C210C91EB90";
paths = (
{
closed = 1;
nodes = (
"442 433 LINE",
"442 535 LINE",
"46 535 LINE",
"148 433 LINE"
);
}
);
width = 491;
}
);
rightMetricsKey = e;
},
{
export = 0;
glyphname = five.alt;
lastChange = "2024-02-16 04:22:05 +0000";
layers = (
{
layerId = "45F6A7D2-68A2-4980-BE0C-7C210C91EB90";
paths = (
{
closed = 1;
nodes = (
"147 0 LINE SMOOTH",
"289 0 OFFCURVE",
"540 64 OFFCURVE",
"538 401 CURVE",
"445 410 LINE",
"371 410 OFFCURVE",
"200 469 OFFCURVE",
"199 589 CURVE",
"535 590 LINE",
"535 701 LINE",
"70 700 LINE",
"70 603 LINE SMOOTH",
"70 348 OFFCURVE",
"414 300 OFFCURVE",
"414 309 CURVE SMOOTH",
"414 238 OFFCURVE",
"339 105 OFFCURVE",
"147 105 CURVE SMOOTH",
"72 105 LINE",
"72 0 LINE"
);
}
);
width = 598;
}
);
},
{
export = 0;
glyphname = six.alt;
lastChange = "2024-02-16 04:22:05 +0000";
layers = (
{
layerId = "45F6A7D2-68A2-4980-BE0C-7C210C91EB90";
paths = (
{
closed = 1;
nodes = (
"255 0 LINE",
"254 1 LINE",
"299 1 LINE SMOOTH",
"441 1 OFFCURVE",
"556 68 OFFCURVE",
"557 224 CURVE SMOOTH",
"556 379 OFFCURVE",
"441 446 OFFCURVE",
"299 446 CURVE SMOOTH",
"198 446 LINE",
"237 576 OFFCURVE",
"372 595 OFFCURVE",
"482 595 CURVE SMOOTH",
"542 595 LINE",
"542 700 LINE",
"482 700 LINE SMOOTH",
"300 700 OFFCURVE",
"75 641 OFFCURVE",
"71 365 CURVE SMOOTH",
"69 171 OFFCURVE",
"71 288 OFFCURVE",
"71 171 CURVE SMOOTH",
"71 0 LINE"
);
},
{
closed = 1;
nodes = (
"188 336 LINE",
"310 336 LINE SMOOTH",
"402 336 OFFCURVE",
"452 306 OFFCURVE",
"452 224 CURVE SMOOTH",
"452 141 OFFCURVE",
"402 111 OFFCURVE",
"310 111 CURVE SMOOTH",
"188 111 LINE"
);
}
);
width = 617;
}
);
},
{
export = 0;
glyphname = seven.alt;
lastChange = "2024-02-16 04:22:05 +0000";
layers = (
{
layerId = "45F6A7D2-68A2-4980-BE0C-7C210C91EB90";
paths = (
{
closed = 1;
nodes = (
"187 0 LINE",
"187 -7 OFFCURVE",
"281 242 OFFCURVE",
"356 334 CURVE",
"407 409 OFFCURVE",
"577 522 OFFCURVE",
"579 700 CURVE",
"463 700 LINE",
"463 567 OFFCURVE",
"356 516 OFFCURVE",
"295 440 CURVE",
"181 324 OFFCURVE",
"68 -5 OFFCURVE",
"70 0 CURVE"
);
},
{
closed = 1;
nodes = (
"488 590 LINE",
"580 700 LINE",
"72 700 LINE",
"72 590 LINE"
);
}
);
width = 640;
}
);
},
{
export = 0;
glyphname = nine.alt;
lastChange = "2024-02-16 04:22:05 +0000";
layers = (
{
layerId = "45F6A7D2-68A2-4980-BE0C-7C210C91EB90";
paths = (
{
closed = 1;
nodes = (
"155 0 LINE SMOOTH",
"337 0 OFFCURVE",
"562 59 OFFCURVE",
"566 335 CURVE SMOOTH",
"566 700 LINE",
"70 700 LINE",
"70 276 OFFCURVE",
"450 286 OFFCURVE",
"450 286 CURVE",
"433 130 OFFCURVE",
"277 110 OFFCURVE",
"155 110 CURVE SMOOTH",
"70 110 LINE",
"70 0 LINE"
);
},
{
closed = 1;
nodes = (
"337 399 OFFCURVE",
"198 483 OFFCURVE",
"199 590 CURVE",
"450 590 LINE",
"450 399 LINE"
);
}
);
width = 626;
}
);
},
{
export = 0;
glyphname = three.old;
lastChange = "2024-04-27 03:37:18 +0000";
layers = (
{
layerId = "45F6A7D2-68A2-4980-BE0C-7C210C91EB90";
paths = (
{
closed = 1;
nodes = (
"207 0 LINE SMOOTH",
"350 0 OFFCURVE",
"465 68 OFFCURVE",
"465 225 CURVE SMOOTH",
"465 329 OFFCURVE",
"411 381 OFFCURVE",
"325 413 CURVE",
"348 423 OFFCURVE",
"367 439 OFFCURVE",
"384 456 CURVE SMOOTH",
"439 511 OFFCURVE",
"463 600 OFFCURVE",
"462 700 CURVE",
"35 700 LINE",
"35 593 LINE",
"332 593 LINE",
"324 539 OFFCURVE",
"298 502 OFFCURVE",
"263 480 CURVE SMOOTH",
"216 450 OFFCURVE",
"187 452 OFFCURVE",
"133 449 CURVE",
"133 342 LINE",
"218 342 LINE SMOOTH",
"310 342 OFFCURVE",
"360 299 OFFCURVE",
"360 218 CURVE SMOOTH",
"360 135 OFFCURVE",
"310 107 OFFCURVE",
"218 107 CURVE SMOOTH",
"30 107 LINE",
"30 0 LINE"
);
}
);
width = 505;
}
);
leftMetricsKey = "=|F";
rightMetricsKey = n;
},
{
export = 0;
glyphname = six.old;
lastChange = "2024-04-27 03:37:18 +0000";
layers = (
{
layerId = "45F6A7D2-68A2-4980-BE0C-7C210C91EB90";
paths = (
{
closed = 1;
nodes = (
"297 0 LINE SMOOTH",
"440 0 OFFCURVE",
"557 66 OFFCURVE",
"557 223 CURVE SMOOTH",
"557 380 OFFCURVE",
"439 447 OFFCURVE",
"296 446 CURVE SMOOTH",
"187 445 LINE",
"187 458 LINE SMOOTH",
"195 584 OFFCURVE",
"255 592 OFFCURVE",
"287 597 CURVE",
"287 706 LINE",
"200 707 OFFCURVE",
"72 645 OFFCURVE",
"71 427 CURVE SMOOTH",
"71 383 LINE",
"70 382 LINE",
"70 0 LINE"
);
},
{
closed = 1;
nodes = (
"186 220 LINE",
"187 336 LINE",
"308 336 LINE SMOOTH",
"400 336 OFFCURVE",
"445 306 OFFCURVE",
"445 223 CURVE SMOOTH",
"445 140 OFFCURVE",
"400 110 OFFCURVE",
"308 110 CURVE SMOOTH",
"187 110 LINE"
);
}
);
width = 614;
}
);
},
{
export = 0;
glyphname = five.001;
lastChange = "2024-02-16 04:22:05 +0000";
layers = (
{
layerId = "45F6A7D2-68A2-4980-BE0C-7C210C91EB90";
paths = (
{
closed = 1;
nodes = (
"254 1 LINE",
"253 2 LINE",
"298 2 LINE SMOOTH",
"440 2 OFFCURVE",
"555 69 OFFCURVE",
"556 225 CURVE SMOOTH",
"555 380 OFFCURVE",
"440 447 OFFCURVE",
"298 447 CURVE SMOOTH",
"197 447 LINE",
"236 577 OFFCURVE",
"371 596 OFFCURVE",
"481 596 CURVE SMOOTH",
"541 596 LINE",
"541 707 LINE",
"481 707 LINE SMOOTH",
"299 707 OFFCURVE",
"70 642 OFFCURVE",
"70 366 CURVE SMOOTH",
"70 337 LINE",
"309 337 LINE SMOOTH",
"401 337 OFFCURVE",
"451 307 OFFCURVE",
"451 225 CURVE SMOOTH",
"451 142 OFFCURVE",
"401 112 OFFCURVE",
"309 112 CURVE SMOOTH",
"70 112 LINE",
"70 1 LINE"
);
}
);
width = 616;
}
);
},
{
export = 0;
glyphname = six.001;
lastChange = "2024-02-16 04:22:05 +0000";
layers = (
{
layerId = "45F6A7D2-68A2-4980-BE0C-7C210C91EB90";
paths = (
{
closed = 1;
nodes = (
"297 0 LINE SMOOTH",
"440 0 OFFCURVE",
"557 66 OFFCURVE",
"557 223 CURVE SMOOTH",
"557 380 OFFCURVE",
"439 447 OFFCURVE",
"296 446 CURVE SMOOTH",
"187 445 LINE",
"187 700 LINE",
"70 700 LINE",
"70 0 LINE"
);
},
{
closed = 1;
nodes = (
"187 336 LINE",
"308 336 LINE SMOOTH",
"400 336 OFFCURVE",
"450 306 OFFCURVE",
"450 223 CURVE SMOOTH",
"450 140 OFFCURVE",
"400 110 OFFCURVE",
"308 110 CURVE SMOOTH",
"186 110 LINE"
);
}
);
width = 614;
}
);
},
{
export = 0;
glyphname = eight.001;
lastChange = "2024-02-16 04:22:05 +0000";
layers = (
{
layerId = "45F6A7D2-68A2-4980-BE0C-7C210C91EB90";
paths = (
{
closed = 1;
nodes = (
"316 0 LINE SMOOTH",
"458 0 OFFCURVE",
"553 76 OFFCURVE",
"553 226 CURVE SMOOTH",
"553 330 OFFCURVE",
"499 382 OFFCURVE",
"413 414 CURVE",
"436 424 OFFCURVE",
"454 441 OFFCURVE",
"472 457 CURVE SMOOTH",
"532 511 OFFCURVE",
"546 600 OFFCURVE",
"545 700 CURVE",
"303 700 LINE",
"303 0 LINE"
);
},
{
closed = 1;
nodes = (
"214 112 OFFCURVE",
"176 148 OFFCURVE",
"176 228 CURVE SMOOTH",
"176 302 OFFCURVE",
"214 349 OFFCURVE",
"310 353 CURVE",
"310 110 LINE"
);
},
{
closed = 1;
nodes = (
"310 0 LINE",
"310 700 LINE",
"68 700 LINE",
"67 600 OFFCURVE",
"81 511 OFFCURVE",
"141 457 CURVE SMOOTH",
"159 441 OFFCURVE",
"177 424 OFFCURVE",
"200 414 CURVE",
"114 382 OFFCURVE",
"60 330 OFFCURVE",
"60 226 CURVE SMOOTH",
"60 76 OFFCURVE",
"155 0 OFFCURVE",
"297 0 CURVE SMOOTH"
);
},
{
closed = 1;
nodes = (
"303 353 LINE",
"399 349 OFFCURVE",
"437 302 OFFCURVE",
"437 228 CURVE SMOOTH",
"437 148 OFFCURVE",
"399 112 OFFCURVE",
"303 110 CURVE"
);
},
{
closed = 1;
nodes = (
"300 462 OFFCURVE",
"286 470 OFFCURVE",
"272 478 CURVE SMOOTH",
"227 504 OFFCURVE",
"196 539 OFFCURVE",
"188 593 CURVE",
"310 593 LINE",
"310 459 LINE"
);
},
{
closed = 1;
nodes = (
"303 593 LINE",
"425 593 LINE",
"417 539 OFFCURVE",
"386 504 OFFCURVE",
"341 478 CURVE SMOOTH",
"327 470 OFFCURVE",
"313 462 OFFCURVE",
"303 459 CURVE"
);
}
);
width = 605;
}
);
},
{
export = 0;
glyphname = nine.001;
lastChange = "2024-02-16 04:22:05 +0000";
layers = (
{
layerId = "45F6A7D2-68A2-4980-BE0C-7C210C91EB90";
paths = (
{
closed = 1;
nodes = (
"554 0 LINE",
"554 700 LINE",
"327 700 LINE SMOOTH",
"184 700 OFFCURVE",
"70 636 OFFCURVE",
"70 479 CURVE SMOOTH",
"70 322 OFFCURVE",
"185 253 OFFCURVE",
"328 254 CURVE SMOOTH",
"438 255 LINE",
"438 0 LINE"
);
},
{
closed = 1;
nodes = (
"224 364 OFFCURVE",
"174 394 OFFCURVE",
"174 477 CURVE SMOOTH",
"174 560 OFFCURVE",
"224 590 OFFCURVE",
"316 590 CURVE SMOOTH",
"439 590 LINE",
"438 364 LINE",
"316 364 LINE SMOOTH"
);
}
);
width = 614;
}
);
},
{
export = 0;
glyphname = eight.002;
lastChange = "2024-04-27 03:37:18 +0000";
layers = (
{
layerId = "45F6A7D2-68A2-4980-BE0C-7C210C91EB90";
paths = (
{
closed = 1;
nodes = (
"308 -6 LINE SMOOTH",
"445 -6 OFFCURVE",
"540 76 OFFCURVE",
"540 226 CURVE SMOOTH",
"540 330 OFFCURVE",
"491 382 OFFCURVE",
"405 414 CURVE",
"428 424 OFFCURVE",
"441 441 OFFCURVE",
"459 457 CURVE SMOOTH",
"519 511 OFFCURVE",
"533 600 OFFCURVE",
"532 700 CURVE",
"58 700 LINE",
"57 600 OFFCURVE",
"71 511 OFFCURVE",
"131 457 CURVE SMOOTH",
"149 441 OFFCURVE",
"162 424 OFFCURVE",
"185 414 CURVE",
"99 382 OFFCURVE",
"50 330 OFFCURVE",
"50 226 CURVE SMOOTH",
"50 76 OFFCURVE",
"145 -6 OFFCURVE",
"282 -6 CURVE SMOOTH"
);
},
{
closed = 1;
nodes = (
"204 102 OFFCURVE",
"166 148 OFFCURVE",
"166 228 CURVE SMOOTH",
"166 302 OFFCURVE",
"204 354 OFFCURVE",
"295 358 CURVE",
"386 354 OFFCURVE",
"424 302 OFFCURVE",
"424 228 CURVE SMOOTH",
"424 148 OFFCURVE",
"386 106 OFFCURVE",
"295 104 CURVE SMOOTH"
);
},
{
closed = 1;
nodes = (
"240 471 OFFCURVE",
"187 529 OFFCURVE",
"178 593 CURVE",
"412 593 LINE",
"403 531 OFFCURVE",
"353 471 OFFCURVE",
"295 454 CURVE"
);
}
);
width = 580;
}
);
leftMetricsKey = o;
rightMetricsKey = o;
},
{
export = 0;
glyphname = braceleft.001;
lastChange = "2024-02-16 04:22:05 +0000";
layers = (
{
layerId = "45F6A7D2-68A2-4980-BE0C-7C210C91EB90";
paths = (
{
closed = 1;
nodes = (
"195 285 OFFCURVE",
"259 318 OFFCURVE",
"270 391 CURVE SMOOTH",
"286 496 OFFCURVE",
"185 542 OFFCURVE",
"205 614 CURVE SMOOTH",
"218 662 OFFCURVE",
"278 656 OFFCURVE",
"291 656 CURVE SMOOTH",
"331 656 LINE",
"331 726 LINE",
"309 726 LINE SMOOTH",
"227 726 OFFCURVE",
"167 718 OFFCURVE",
"142 629 CURVE SMOOTH",
"110 516 OFFCURVE",
"213 508 OFFCURVE",
"200 406 CURVE SMOOTH",
"195 366 OFFCURVE",
"151 345 OFFCURVE",
"122 345 CURVE SMOOTH",
"100 345 LINE",
"100 285 LINE"
);
},
{
closed = 1;
nodes = (
"331 -96 LINE",
"331 -26 LINE",
"291 -26 LINE SMOOTH",
"278 -26 OFFCURVE",
"218 -32 OFFCURVE",
"205 16 CURVE SMOOTH",
"185 88 OFFCURVE",
"286 134 OFFCURVE",
"270 239 CURVE SMOOTH",
"259 312 OFFCURVE",
"195 345 OFFCURVE",
"100 345 CURVE",
"100 285 LINE",
"122 285 LINE SMOOTH",
"151 285 OFFCURVE",
"195 264 OFFCURVE",
"200 224 CURVE SMOOTH",
"213 122 OFFCURVE",
"110 114 OFFCURVE",
"142 1 CURVE SMOOTH",
"167 -88 OFFCURVE",
"227 -96 OFFCURVE",
"309 -96 CURVE SMOOTH"
);
}
);
width = 431;
}
);
},
{
export = 0;
glyphname = braceright.old;
lastChange = "2024-04-02 21:59:21 +0000";
layers = (
{
layerId = "45F6A7D2-68A2-4980-BE0C-7C210C91EB90";
paths = (
{
closed = 1;
nodes = (
"71 -188 LINE SMOOTH",
"154 -188 OFFCURVE",
"259 -137 OFFCURVE",
"270 -51 CURVE SMOOTH",
"278 5 OFFCURVE",
"262 42 OFFCURVE",
"240 81 CURVE",
"226 100 OFFCURVE",
"198 139 OFFCURVE",
"194 170 CURVE SMOOTH",
"192 199 OFFCURVE",
"204 223 OFFCURVE",
"224 238 CURVE SMOOTH",
"239 249 OFFCURVE",
"243 252 OFFCURVE",
"270 252 CURVE SMOOTH",
"294 252 LINE",
"294 354 LINE",
"270 354 LINE SMOOTH",
"243 354 OFFCURVE",
"239 358 OFFCURVE",
"224 369 CURVE SMOOTH",
"204 383 OFFCURVE",
"192 407 OFFCURVE",
"194 437 CURVE SMOOTH",
"198 468 OFFCURVE",
"226 506 OFFCURVE",
"240 526 CURVE",
"262 564 OFFCURVE",
"278 601 OFFCURVE",
"270 657 CURVE SMOOTH",
"259 742 OFFCURVE",
"154 794 OFFCURVE",
"71 794 CURVE SMOOTH",
"60 794 LINE",
"60 706 LINE",
"60 706 OFFCURVE",
"121 705 OFFCURVE",
"151 681 CURVE SMOOTH",
"167 670 OFFCURVE",
"179 658 OFFCURVE",
"178 623 CURVE SMOOTH",
"178 596 OFFCURVE",
"163 575 OFFCURVE",
"152 557 CURVE SMOOTH",
"139 536 OFFCURVE",
"105 490 OFFCURVE",
"104 437 CURVE SMOOTH",
"103 391 OFFCURVE",
"131 346 OFFCURVE",
"176 303 CURVE",
"131 260 OFFCURVE",
"103 215 OFFCURVE",
"104 170 CURVE SMOOTH",
"105 116 OFFCURVE",
"139 71 OFFCURVE",
"152 50 CURVE SMOOTH",
"163 31 OFFCURVE",
"178 10 OFFCURVE",
"178 -17 CURVE SMOOTH",
"179 -52 OFFCURVE",
"167 -64 OFFCURVE",
"151 -75 CURVE SMOOTH",
"121 -99 OFFCURVE",
"60 -100 OFFCURVE",
"60 -100 CURVE",
"60 -188 LINE"
);
}
);
width = 354;
}
);
},
{
glyphname = guillemetleft;
lastChange = "2024-02-16 04:22:05 +0000";
layers = (
{
layerId = "45F6A7D2-68A2-4980-BE0C-7C210C91EB90";
paths = (
{
closed = 1;
nodes = (
"333 267 LINE",
"459 488 LINE",
"357 488 LINE",
"231 267 LINE"
);
},
{
closed = 1;
nodes = (
"288 58 LINE",
"162 266 LINE",
"60 266 LINE",
"186 58 LINE"
);
},
{
closed = 1;
nodes = (
"459 59 LINE",
"333 267 LINE",
"231 267 LINE",
"357 59 LINE"
);
},
{
closed = 1;
nodes = (
"162 266 LINE",
"288 487 LINE",
"186 487 LINE",
"60 266 LINE"
);
}
);
width = 509;
}
);
rightMetricsKey = O;
unicode = 00AB;
},
{
glyphname = guillemetright;
lastChange = "2024-02-16 04:22:05 +0000";
layers = (
{
layerId = "45F6A7D2-68A2-4980-BE0C-7C210C91EB90";
paths = (
{
closed = 1;
nodes = (
"449 266 LINE",
"323 487 LINE",
"221 487 LINE",
"347 266 LINE"
);
},
{
closed = 1;
nodes = (
"152 59 LINE",
"278 267 LINE",
"176 267 LINE",
"50 59 LINE"
);
},
{
closed = 1;
nodes = (
"323 58 LINE",
"449 266 LINE",
"347 266 LINE",
"221 58 LINE"
);
},
{
closed = 1;
nodes = (
"278 267 LINE",
"152 488 LINE",
"50 488 LINE",
"176 267 LINE"
);
}
);
width = 537;
}
);
leftMetricsKey = O;
unicode = 00BB;
},
{
export = 0;
glyphname = quotesinglbase.001;
lastChange = "2024-04-27 03:37:10 +0000";
layers = (
{
layerId = "45F6A7D2-68A2-4980-BE0C-7C210C91EB90";
paths = (
{
closed = 1;
nodes = (
"131 -133 OFFCURVE",
"235 -73 OFFCURVE",
"235 80 CURVE",
"153 81 LINE",
"153 -40 OFFCURVE",
"119 -81 OFFCURVE",
"96 -88 CURVE",
"96 -145 LINE"
);
}
);
width = 327;
}
);
},
{
export = 0;
glyphname = guillemetleft.old;
lastChange = "2024-04-27 03:37:10 +0000";
layers = (
{
layerId = "45F6A7D2-68A2-4980-BE0C-7C210C91EB90";
paths = (
{
closed = 1;
nodes = (
"497 54 LINE",
"324 265 LINE",
"497 476 LINE",
"387 476 LINE",
"215 265 LINE",
"387 54 LINE"
);
},
{
closed = 1;
nodes = (
"312 54 LINE",
"139 265 LINE",
"312 476 LINE",
"202 476 LINE",
"30 265 LINE",
"202 54 LINE"
);
}
);
width = 547;
}
);
rightMetricsKey = O;
},
{
export = 0;
glyphname = guilsinglleft.old;
lastChange = "2024-04-27 03:37:10 +0000";
layers = (
{
layerId = "45F6A7D2-68A2-4980-BE0C-7C210C91EB90";
paths = (
{
closed = 1;
nodes = (
"355 50 LINE",
"180 263 LINE",
"355 476 LINE",
"224 476 LINE",
"50 263 LINE",
"224 50 LINE"
);
}
);
width = 405;
}
);
leftMetricsKey = O;
rightMetricsKey = O;
},
{
export = 0;
glyphname = at.001;
lastChange = "2024-04-27 03:45:37 +0000";
layers = (
{
layerId = "45F6A7D2-68A2-4980-BE0C-7C210C91EB90";
paths = (
{
closed = 1;
nodes = (
"734 306 LINE SMOOTH",
"734 509 OFFCURVE",
"549 699 OFFCURVE",
"314 699 CURVE SMOOTH",
"301 699 LINE",
"301 602 LINE",
"322 602 LINE SMOOTH",
"492 602 OFFCURVE",
"648 466 OFFCURVE",
"644 285 CURVE",
"734 284 LINE"
);
},
{
closed = 1;
nodes = (
"301 -131 LINE",
"301 -34 LINE",
"280 -34 LINE SMOOTH",
"110 -34 OFFCURVE",
"-46 103 OFFCURVE",
"-42 284 CURVE",
"-132 284 LINE",
"-132 262 LINE SMOOTH",
"-132 59 OFFCURVE",
"53 -131 OFFCURVE",
"288 -131 CURVE SMOOTH"
);
},
{
closed = 1;
nodes = (
"237 176 OFFCURVE",
"198 205 OFFCURVE",
"197 272 CURVE SMOOTH",
"198 341 OFFCURVE",
"237 370 OFFCURVE",
"301 370 CURVE SMOOTH",
"362 370 OFFCURVE",
"404 341 OFFCURVE",
"406 272 CURVE SMOOTH",
"404 205 OFFCURVE",
"362 176 OFFCURVE",
"301 176 CURVE SMOOTH"
);
},
{
closed = 1;
nodes = (
"-42 284 LINE",
"-46 465 OFFCURVE",
"110 602 OFFCURVE",
"280 602 CURVE SMOOTH",
"301 602 LINE",
"301 699 LINE",
"288 699 LINE SMOOTH",
"53 699 OFFCURVE",
"-132 509 OFFCURVE",
"-132 306 CURVE SMOOTH",
"-132 284 LINE"
);
},
{
closed = 1;
nodes = (
"385 83 OFFCURVE",
"435 126 OFFCURVE",
"461 195 CURVE",
"487 126 OFFCURVE",
"504 295 OFFCURVE",
"471 357 CURVE",
"445 426 OFFCURVE",
"385 463 OFFCURVE",
"301 463 CURVE SMOOTH",
"178 463 OFFCURVE",
"107 387 OFFCURVE",
"107 280 CURVE SMOOTH",
"107 264 LINE SMOOTH",
"107 158 OFFCURVE",
"178 83 OFFCURVE",
"301 83 CURVE SMOOTH"
);
},
{
closed = 1;
nodes = (
"679 84 OFFCURVE",
"734 165 OFFCURVE",
"734 267 CURVE SMOOTH",
"734 284 LINE",
"644 285 LINE",
"645 219 OFFCURVE",
"617 177 OFFCURVE",
"563 177 CURVE SMOOTH",
"536 177 OFFCURVE",
"484 199 OFFCURVE",
"480 266 CURVE",
"426 345 LINE",
"401 414 OFFCURVE",
"401 121 OFFCURVE",
"426 190 CURVE",
"452 121 OFFCURVE",
"516 84 OFFCURVE",
"569 84 CURVE SMOOTH"
);
}
);
width = 600;
}
);
},
{
export = 0;
glyphname = degree.001;
lastChange = "2024-02-16 04:22:05 +0000";
layers = (
{
layerId = "45F6A7D2-68A2-4980-BE0C-7C210C91EB90";
paths = (
{
closed = 1;
nodes = (
"223 380 OFFCURVE",
"249 391 OFFCURVE",
"268 408 CURVE SMOOTH",
"294 431 OFFCURVE",
"314 467 OFFCURVE",
"314 522 CURVE SMOOTH",
"314 555 LINE SMOOTH",
"314 609 OFFCURVE",
"295 646 OFFCURVE",
"268 669 CURVE SMOOTH",
"249 685 OFFCURVE",
"223 696 OFFCURVE",
"197 696 CURVE SMOOTH",
"172 696 OFFCURVE",
"145 685 OFFCURVE",
"126 669 CURVE SMOOTH",
"99 646 OFFCURVE",
"80 609 OFFCURVE",
"80 555 CURVE SMOOTH",
"80 522 LINE SMOOTH",
"80 467 OFFCURVE",
"99 430 OFFCURVE",
"126 408 CURVE SMOOTH",
"146 392 OFFCURVE",
"172 380 OFFCURVE",
"197 380 CURVE SMOOTH"
);
},
{
closed = 1;
nodes = (
"189 425 OFFCURVE",
"175 429 OFFCURVE",
"166 435 CURVE SMOOTH",
"141 451 OFFCURVE",
"127 473 OFFCURVE",
"127 521 CURVE SMOOTH",
"127 555 LINE SMOOTH",
"127 604 OFFCURVE",
"143 628 OFFCURVE",
"168 642 CURVE SMOOTH",
"180 649 OFFCURVE",
"189 649 OFFCURVE",
"197 649 CURVE SMOOTH",
"205 649 OFFCURVE",
"214 649 OFFCURVE",
"227 641 CURVE SMOOTH",
"251 626 OFFCURVE",
"266 604 OFFCURVE",
"266 555 CURVE SMOOTH",
"266 521 LINE SMOOTH",
"266 473 OFFCURVE",
"251 453 OFFCURVE",
"227 435 CURVE SMOOTH",
"219 429 OFFCURVE",
"205 427 OFFCURVE",
"197 426 CURVE SMOOTH"
);
}
);
width = 394;
}
);
},
{
glyphname = euro;
lastChange = "2024-04-04 03:20:24 +0000";
layers = (
{
layerId = "45F6A7D2-68A2-4980-BE0C-7C210C91EB90";
paths = (
{
closed = 1;
nodes = (
"613 0 LINE",
"613 105 LINE",
"553 105 LINE SMOOTH",
"423 105 OFFCURVE",
"258 132 OFFCURVE",
"258 336 CURVE SMOOTH",
"258 364 LINE SMOOTH",
"258 568 OFFCURVE",
"423 595 OFFCURVE",
"553 595 CURVE SMOOTH",
"613 595 LINE",
"613 700 LINE",
"553 700 LINE SMOOTH",
"371 700 OFFCURVE",
"142 641 OFFCURVE",
"142 365 CURVE SMOOTH",
"142 333 LINE SMOOTH",
"142 59 OFFCURVE",
"371 0 OFFCURVE",
"553 0 CURVE SMOOTH"
);
},
{
closed = 1;
nodes = (
"512 210 LINE",
"512 308 LINE",
"23 307 LINE",
"23 208 LINE"
);
},
{
closed = 1;
nodes = (
"509 395 LINE",
"509 493 LINE",
"20 492 LINE",
"20 393 LINE"
);
}
);
width = 673;
}
);
leftMetricsKey = f;
rightMetricsKey = E;
unicode = 20AC;
},
{
glyphname = hryvnia;
lastChange = "2024-04-04 03:30:47 +0000";
layers = (
{
components = (
{
name = S;
transform = "{-1, 0, 0, 1, 582, 0}";
}
);
layerId = "45F6A7D2-68A2-4980-BE0C-7C210C91EB90";
paths = (
{
closed = 1;
nodes = (
"564 220 LINE",
"564 318 LINE",
"43 317 LINE",
"43 218 LINE"
);
},
{
closed = 1;
nodes = (
"563 365 LINE",
"563 463 LINE",
"42 462 LINE",
"42 363 LINE"
);
}
);
width = 605;
}
);
leftMetricsKey = S;
rightMetricsKey = S;
unicode = 20B4;
},
{
glyphname = ruble;
lastChange = "2024-04-04 03:32:23 +0000";
layers = (
{
components = (
{
name = P.alt;
transform = "{1, 0, 0, 1, 81, 0}";
}
);
layerId = "45F6A7D2-68A2-4980-BE0C-7C210C91EB90";
paths = (
{
closed = 1;
nodes = (
"534 98 LINE",
"534 200 LINE",
"45 199 LINE",
"45 96 LINE"
);
},
{
closed = 1;
nodes = (
"313 277 LINE",
"313 381 LINE",
"42 380 LINE",
"42 275 LINE"
);
}
);
width = 628;
}
);
leftMetricsKey = S;
rightMetricsKey = P;
unicode = 20BD;
},
{
glyphname = rupeeIndian;
lastChange = "2024-04-06 08:02:17 +0000";
layers = (
{
anchors = (
{
name = bottom;
position = "{260, 0}";
},
{
name = top;
position = "{260, 700}";
}
);
layerId = "45F6A7D2-68A2-4980-BE0C-7C210C91EB90";
paths = (
{
closed = 1;
nodes = (
"70 224 OFFCURVE",
"498 220 OFFCURVE",
"498 700 CURVE",
"70 700 LINE",
"70 592 LINE",
"384 592 LINE",
"337 391 OFFCURVE",
"224 337 OFFCURVE",
"70 332 CURVE",
"70 224 LINE"
);
},
{
closed = 1;
nodes = (
"529 0 LINE",
"329 367 LINE",
"224 337 LINE",
"398 0 LINE"
);
},
{
closed = 1;
nodes = (
"572 421 LINE",
"572 516 LINE",
"73 516 LINE",
"73 421 LINE"
);
},
{
closed = 1;
nodes = (
"573 592 LINE",
"573 700 LINE",
"74 700 LINE",
"74 592 LINE"
);
}
);
width = 603;
}
);
leftMetricsKey = R;
rightMetricsKey = R;
unicode = 20B9;
},
{
glyphname = sheqel;
lastChange = "2024-04-04 04:21:53 +0000";
layers = (
{
anchors = (
{
name = bottom;
position = "{320, 0}";
},
{
name = top;
position = "{320, 700}";
}
);
layerId = "45F6A7D2-68A2-4980-BE0C-7C210C91EB90";
paths = (
{
closed = 1;
nodes = (
"728 -10 LINE",
"728 690 LINE",
"612 690 LINE",
"613 94 LINE",
"498 104 OFFCURVE",
"383 150 OFFCURVE",
"383 326 CURVE SMOOTH",
"383 385 LINE",
"267 385 LINE",
"267 325 LINE SMOOTH",
"267 76 OFFCURVE",
"445 4 OFFCURVE",
"613 -8 CURVE",
"613 -9 LINE",
"631 -9 LINE SMOOTH",
"643 -9 OFFCURVE",
"656 -10 OFFCURVE",
"668 -10 CURVE SMOOTH"
);
},
{
closed = 1;
nodes = (
"213 -9 LINE",
"212 587 LINE",
"327 577 OFFCURVE",
"442 531 OFFCURVE",
"442 355 CURVE SMOOTH",
"442 296 LINE",
"558 296 LINE",
"558 356 LINE SMOOTH",
"558 605 OFFCURVE",
"380 677 OFFCURVE",
"212 689 CURVE",
"212 690 LINE",
"194 690 LINE SMOOTH",
"182 690 OFFCURVE",
"169 691 OFFCURVE",
"157 691 CURVE SMOOTH",
"97 691 LINE",
"97 -9 LINE"
);
}
);
width = 640;
}
);
unicode = 20AA;
},
{
export = 0;
glyphname = currency.001;
lastChange = "2024-02-16 04:22:05 +0000";
layers = (
{
layerId = "45F6A7D2-68A2-4980-BE0C-7C210C91EB90";
paths = (
{
closed = 1;
nodes = (
"599 480 LINE",
"533 548 LINE",
"130 142 LINE",
"197 73 LINE"
);
},
{
closed = 1;
nodes = (
"602 142 LINE",
"196 545 LINE",
"127 478 LINE",
"534 76 LINE"
);
},
{
closed = 1;
nodes = (
"372 143 LINE",
"374 143 LINE SMOOTH",
"479 143 OFFCURVE",
"535 213 OFFCURVE",
"535 312 CURVE SMOOTH",
"535 408 OFFCURVE",
"479 471 OFFCURVE",
"374 478 CURVE SMOOTH",
"358 478 LINE",
"356 478 LINE SMOOTH",
"251 478 OFFCURVE",
"195 408 OFFCURVE",
"195 308 CURVE SMOOTH",
"195 213 OFFCURVE",
"251 150 OFFCURVE",
"356 143 CURVE SMOOTH"
);
}
);
width = 730;
}
);
},
{
export = 0;
glyphname = dollar.001;
lastChange = "2024-04-27 03:45:46 +0000";
layers = (
{
layerId = "45F6A7D2-68A2-4980-BE0C-7C210C91EB90";
paths = (
{
closed = 1;
nodes = (
"148 0 LINE SMOOTH",
"290 0 OFFCURVE",
"535 60 OFFCURVE",
"533 397 CURVE",
"440 405 LINE SMOOTH",
"354 412 OFFCURVE",
"186 470 OFFCURVE",
"183 597 CURVE",
"529 598 LINE",
"529 700 LINE",
"71 700 LINE",
"71 603 LINE SMOOTH",
"71 348 OFFCURVE",
"415 305 OFFCURVE",
"415 305 CURVE",
"415 234 OFFCURVE",
"340 101 OFFCURVE",
"148 101 CURVE SMOOTH",
"82 101 LINE",
"82 0 LINE"
);
},
{
closed = 1;
nodes = (
"349 -86 LINE",
"346 91 LINE",
"255 91 LINE",
"257 -86 LINE"
);
},
{
closed = 1;
nodes = (
"349 624 LINE",
"345 801 LINE",
"254 801 LINE",
"257 624 LINE"
);
}
);
width = 600;
}
);
},
{
export = 0;
glyphname = asciitilde.001;
lastChange = "2024-04-27 03:35:59 +0000";
layers = (
{
layerId = "45F6A7D2-68A2-4980-BE0C-7C210C91EB90";
paths = (
{
closed = 1;
nodes = (
"489 184 OFFCURVE",
"547 242 OFFCURVE",
"547 323 CURVE SMOOTH",
"547 360 LINE",
"457 360 LINE",
"457 332 LINE SMOOTH",
"457 285 OFFCURVE",
"428 267 OFFCURVE",
"408 267 CURVE SMOOTH",
"393 267 OFFCURVE",
"381 269 OFFCURVE",
"362 280 CURVE SMOOTH",
"297 317 OFFCURVE",
"280 370 OFFCURVE",
"200 370 CURVE SMOOTH",
"118 370 OFFCURVE",
"60 312 OFFCURVE",
"60 231 CURVE SMOOTH",
"60 196 LINE",
"150 196 LINE",
"150 222 LINE SMOOTH",
"150 269 OFFCURVE",
"179 287 OFFCURVE",
"199 287 CURVE SMOOTH",
"214 287 OFFCURVE",
"226 285 OFFCURVE",
"245 274 CURVE SMOOTH",
"310 237 OFFCURVE",
"332 184 OFFCURVE",
"407 184 CURVE SMOOTH"
);
}
);
width = 607;
}
);
},
{
export = 0;
glyphname = logicalnot.001;
lastChange = "2024-04-27 03:35:59 +0000";
layers = (
{
layerId = "45F6A7D2-68A2-4980-BE0C-7C210C91EB90";
paths = (
{
closed = 1;
nodes = (
"538 215 LINE",
"538 305 LINE",
"63 305 LINE",
"63 215 LINE"
);
},
{
closed = 1;
nodes = (
"538 34 LINE",
"538 304 LINE",
"443 304 LINE",
"443 34 LINE"
);
}
);
width = 600;
}
);
},
{
export = 0;
glyphname = asciitilde.002;
lastChange = "2024-04-27 03:35:59 +0000";
layers = (
{
layerId = "45F6A7D2-68A2-4980-BE0C-7C210C91EB90";
paths = (
{
closed = 1;
nodes = (
"416 182 LINE SMOOTH",
"505 182 OFFCURVE",
"543 247 OFFCURVE",
"543 328 CURVE SMOOTH",
"543 366 LINE",
"481 366 LINE",
"481 321 LINE SMOOTH",
"481 269 OFFCURVE",
"465 241 OFFCURVE",
"419 241 CURVE SMOOTH",
"338 241 OFFCURVE",
"309 373 OFFCURVE",
"189 373 CURVE SMOOTH",
"185 373 LINE SMOOTH",
"96 373 OFFCURVE",
"58 308 OFFCURVE",
"58 227 CURVE SMOOTH",
"58 189 LINE",
"120 189 LINE",
"120 234 LINE SMOOTH",
"120 286 OFFCURVE",
"136 314 OFFCURVE",
"182 314 CURVE SMOOTH",
"263 314 OFFCURVE",
"292 182 OFFCURVE",
"412 182 CURVE SMOOTH"
);
}
);
width = 600;
}
);
},
{
export = 0;
glyphname = summation.001;
lastChange = "2024-04-27 03:35:59 +0000";
layers = (
{
layerId = "45F6A7D2-68A2-4980-BE0C-7C210C91EB90";
paths = (
{
closed = 1;
nodes = (
"179 -39 LINE",
"445 288 LINE",
"179 615 LINE",
"60 615 LINE",
"328 288 LINE",
"60 -39 LINE"
);
},
{
closed = 1;
nodes = (
"517 -124 LINE",
"517 -38 LINE",
"60 -38 LINE",
"60 -124 LINE"
);
},
{
closed = 1;
nodes = (
"517 614 LINE",
"517 700 LINE",
"60 700 LINE",
"60 614 LINE"
);
}
);
width = 600;
}
);
},
{
glyphname = upArrow;
lastChange = "2024-02-16 04:22:05 +0000";
layers = (
{
layerId = "45F6A7D2-68A2-4980-BE0C-7C210C91EB90";
paths = (
{
closed = 1;
nodes = (
"292 610 LINE",
"503 438 LINE",
"503 558 LINE",
"292 730 LINE",
"80 558 LINE",
"80 438 LINE"
);
},
{
closed = 1;
nodes = (
"339 -15 LINE",
"339 659 LINE",
"244 659 LINE",
"244 -15 LINE"
);
}
);
width = 583;
}
);
unicode = 2191;
},
{
glyphname = northEastArrow;
lastChange = "2024-02-16 04:22:05 +0000";
layers = (
{
layerId = "45F6A7D2-68A2-4980-BE0C-7C210C91EB90";
paths = (
{
closed = 1;
nodes = (
"560 596 LINE",
"491 661 LINE",
"45 215 LINE",
"112 148 LINE"
);
},
{
closed = 1;
nodes = (
"586 386 LINE",
"558 657 LINE",
"287 685 LINE",
"202 600 LINE",
"478 578 LINE",
"501 301 LINE"
);
}
);
width = 600;
}
);
unicode = 2197;
},
{
glyphname = rightArrow;
lastChange = "2024-02-16 04:22:05 +0000";
layers = (
{
layerId = "45F6A7D2-68A2-4980-BE0C-7C210C91EB90";
paths = (
{
closed = 1;
nodes = (
"479 140 LINE",
"651 351 LINE",
"479 563 LINE",
"359 563 LINE",
"531 351 LINE",
"359 140 LINE"
);
},
{
closed = 1;
nodes = (
"582 304 LINE",
"582 399 LINE",
"-92 399 LINE",
"-92 304 LINE"
);
}
);
width = 600;
}
);
unicode = 2192;
},
{
glyphname = southEastArrow;
lastChange = "2024-02-16 04:22:05 +0000";
layers = (
{
layerId = "45F6A7D2-68A2-4980-BE0C-7C210C91EB90";
paths = (
{
closed = 1;
nodes = (
"563 107 LINE",
"117 553 LINE",
"50 486 LINE",
"498 38 LINE"
);
},
{
closed = 1;
nodes = (
"559 40 LINE",
"587 311 LINE",
"502 396 LINE",
"480 120 LINE",
"203 97 LINE",
"288 12 LINE"
);
}
);
width = 600;
}
);
unicode = 2198;
},
{
glyphname = downArrow;
lastChange = "2024-02-16 04:22:05 +0000";
layers = (
{
layerId = "45F6A7D2-68A2-4980-BE0C-7C210C91EB90";
paths = (
{
closed = 1;
nodes = (
"503 157 LINE",
"503 277 LINE",
"291 105 LINE",
"80 277 LINE",
"80 157 LINE",
"291 -15 LINE"
);
},
{
closed = 1;
nodes = (
"339 56 LINE",
"339 730 LINE",
"244 730 LINE",
"244 56 LINE"
);
}
);
width = 583;
}
);
unicode = 2193;
},
{
glyphname = southWestArrow;
lastChange = "2024-02-16 04:22:05 +0000";
layers = (
{
layerId = "45F6A7D2-68A2-4980-BE0C-7C210C91EB90";
paths = (
{
closed = 1;
nodes = (
"548 479 LINE",
"481 546 LINE",
"33 98 LINE",
"102 33 LINE"
);
},
{
closed = 1;
nodes = (
"391 94 LINE",
"115 116 LINE",
"92 393 LINE",
"7 308 LINE",
"35 37 LINE",
"306 9 LINE"
);
}
);
width = 600;
}
);
unicode = 2199;
},
{
glyphname = leftArrow;
lastChange = "2024-02-16 04:22:05 +0000";
layers = (
{
layerId = "45F6A7D2-68A2-4980-BE0C-7C210C91EB90";
paths = (
{
closed = 1;
nodes = (
"243 139 LINE",
"71 351 LINE",
"243 562 LINE",
"123 562 LINE",
"-49 351 LINE",
"123 139 LINE"
);
},
{
closed = 1;
nodes = (
"696 303 LINE",
"696 398 LINE",
"22 398 LINE",
"22 303 LINE"
);
}
);
width = 600;
}
);
unicode = 2190;
},
{
glyphname = northWestArrow;
lastChange = "2024-02-16 04:22:05 +0000";
layers = (
{
layerId = "45F6A7D2-68A2-4980-BE0C-7C210C91EB90";
paths = (
{
closed = 1;
nodes = (
"544 220 LINE",
"96 668 LINE",
"31 599 LINE",
"477 153 LINE"
);
},
{
closed = 1;
nodes = (
"114 586 LINE",
"391 609 LINE",
"306 694 LINE",
"35 666 LINE",
"7 395 LINE",
"92 310 LINE"
);
}
);
width = 600;
}
);
unicode = 2196;
},
{
glyphname = leftRightArrow;
lastChange = "2024-02-16 04:22:05 +0000";
layers = (
{
layerId = "45F6A7D2-68A2-4980-BE0C-7C210C91EB90";
paths = (
{
closed = 1;
nodes = (
"535 140 LINE",
"707 351 LINE",
"535 563 LINE",
"415 563 LINE",
"587 351 LINE",
"415 140 LINE"
);
},
{
closed = 1;
nodes = (
"186 140 LINE",
"14 352 LINE",
"186 563 LINE",
"66 563 LINE",
"-106 352 LINE",
"66 140 LINE"
);
},
{
closed = 1;
nodes = (
"638 304 LINE",
"638 399 LINE",
"-36 399 LINE",
"-36 304 LINE"
);
}
);
width = 601;
}
);
unicode = 2194;
},
{
glyphname = upDownArrow;
lastChange = "2024-02-16 04:22:05 +0000";
layers = (
{
layerId = "45F6A7D2-68A2-4980-BE0C-7C210C91EB90";
paths = (
{
closed = 1;
nodes = (
"292 638 LINE",
"503 466 LINE",
"503 586 LINE",
"292 758 LINE",
"80 586 LINE",
"80 466 LINE"
);
},
{
closed = 1;
nodes = (
"503 117 LINE",
"503 237 LINE",
"291 65 LINE",
"80 237 LINE",
"80 117 LINE",
"291 -55 LINE"
);
},
{
closed = 1;
nodes = (
"339 14 LINE",
"339 688 LINE",
"244 688 LINE",
"244 14 LINE"
);
}
);
width = 583;
}
);
unicode = 2195;
},
{
glyphname = hungarumlautcomb;
lastChange = "2024-02-27 22:20:49 +0000";
layers = (
{
anchors = (
{
name = _top;
position = "{169, 448}";
},
{
name = top;
position = "{235, 715}";
}
);
layerId = "45F6A7D2-68A2-4980-BE0C-7C210C91EB90";
paths = (
{
closed = 1;
nodes = (
"287 501 LINE",
"420 715 LINE",
"329 715 LINE",
"205 501 LINE"
);
},
{
closed = 1;
nodes = (
"128 501 LINE",
"265 715 LINE",
"174 715 LINE",
"50 501 LINE"
);
}
);
width = 470;
}
);
unicode = 030B;
},
{
glyphname = caroncomb.alt;
lastChange = "2024-02-27 22:06:08 +0000";
layers = (
{
anchors = (
{
name = _topright;
position = "{46, 800}";
}
);
layerId = "45F6A7D2-68A2-4980-BE0C-7C210C91EB90";
paths = (
{
closed = 1;
nodes = (
"131 550 LINE",
"217 749 LINE",
"126 749 LINE",
"40 550 LINE"
);
}
);
width = 257;
}
);
},
{
glyphname = horncomb;
lastChange = "2024-02-27 22:42:06 +0000";
layers = (
{
anchors = (
{
name = _topright;
position = "{248, 626}";
},
{
name = topright;
position = "{344, 634}";
}
);
layerId = "45F6A7D2-68A2-4980-BE0C-7C210C91EB90";
paths = (
{
closed = 1;
nodes = (
"239 435 OFFCURVE",
"324 475 OFFCURVE",
"324 617 CURVE SMOOTH",
"324 634 LINE",
"252 634 LINE",
"252 617 LINE SMOOTH",
"252 515 OFFCURVE",
"205 510 OFFCURVE",
"183 506 CURVE",
"183 436 LINE"
);
}
);
width = 288;
}
);
unicode = 031B;
},
{
export = 0;
glyphname = "_B-abierta";
lastChange = "2024-02-16 04:22:05 +0000";
layers = (
{
layerId = "45F6A7D2-68A2-4980-BE0C-7C210C91EB90";
paths = (
{
closed = 1;
nodes = (
"181 -4 LINE SMOOTH",
"324 -4 OFFCURVE",
"439 64 OFFCURVE",
"439 221 CURVE SMOOTH",
"439 325 OFFCURVE",
"385 380 OFFCURVE",
"299 412 CURVE",
"322 422 OFFCURVE",
"341 435 OFFCURVE",
"358 452 CURVE",
"237 477 LINE",
"189 448 OFFCURVE",
"124 442 OFFCURVE",
"70 439 CURVE",
"70 586 LINE",
"306 586 LINE",
"298 532 OFFCURVE",
"272 499 OFFCURVE",
"237 477 CURVE",
"358 452 LINE",
"413 506 OFFCURVE",
"437 595 OFFCURVE",
"436 695 CURVE",
"70 695 LINE",
"70 -4 LINE"
);
},
{
closed = 1;
nodes = (
"70 343 LINE",
"192 343 LINE SMOOTH",
"284 343 OFFCURVE",
"334 300 OFFCURVE",
"334 219 CURVE SMOOTH",
"334 136 OFFCURVE",
"284 106 OFFCURVE",
"192 106 CURVE SMOOTH",
"70 106 LINE"
);
}
);
width = 499;
}
);
},
{
export = 0;
glyphname = "_abajo-tres";
lastChange = "2024-02-16 04:22:05 +0000";
layers = (
{
layerId = "45F6A7D2-68A2-4980-BE0C-7C210C91EB90";
paths = (
{
closed = 1;
nodes = (
"170 -9 LINE",
"170 -17 OFFCURVE",
"546 23 OFFCURVE",
"535 406 CURVE",
"70 406 LINE",
"70 296 LINE",
"404 296 LINE",
"326 127 OFFCURVE",
"164 100 OFFCURVE",
"70 100 CURVE",
"70 -9 LINE"
);
}
);
width = 595;
}
);
},
{
export = 0;
glyphname = "_curva-arriba";
lastChange = "2023-12-21 04:29:56 +0000";
layers = (
{
layerId = "45F6A7D2-68A2-4980-BE0C-7C210C91EB90";
paths = (
{
closed = 0;
nodes = (
"439 475 LINE",
"439 632 OFFCURVE",
"324 700 OFFCURVE",
"181 700 CURVE SMOOTH",
"70 700 LINE",
"70 590 LINE",
"192 590 LINE SMOOTH",
"284 590 OFFCURVE",
"334 560 OFFCURVE",
"334 477 CURVE"
);
},
{
closed = 0;
nodes = (
"334 478 LINE",
"334 395 OFFCURVE",
"284 365 OFFCURVE",
"192 365 CURVE SMOOTH",
"70 365 LINE",
"70 255 LINE",
"181 255 LINE SMOOTH",
"324 255 OFFCURVE",
"439 323 OFFCURVE",
"439 480 CURVE"
);
}
);
width = 499;
}
);
},
{
export = 0;
glyphname = "_segment-curve";
lastChange = "2024-02-16 04:22:05 +0000";
layers = (
{
layerId = "45F6A7D2-68A2-4980-BE0C-7C210C91EB90";
paths = (
{
closed = 1;
nodes = (
"321 155 LINE",
"321 219 LINE SMOOTH",
"321 335 OFFCURVE",
"323 259 OFFCURVE",
"321 452 CURVE SMOOTH",
"319 670 OFFCURVE",
"167 732 OFFCURVE",
"70 734 CURVE",
"70 625 LINE",
"109 625 OFFCURVE",
"206 608 OFFCURVE",
"206 451 CURVE SMOOTH",
"206 155 LINE"
);
}
);
width = 382;
},
{
associatedMasterId = "45F6A7D2-68A2-4980-BE0C-7C210C91EB90";
layerId = "F2A6212C-DBB0-46A6-B47F-E556DD980B04";
name = "Nov 19 20, 17:03";
paths = (
{
closed = 1;
nodes = (
"496 34 LINE",
"457 34 OFFCURVE",
"360 51 OFFCURVE",
"360 208 CURVE SMOOTH",
"360 504 LINE",
"245 504 LINE",
"245 440 LINE SMOOTH",
"245 324 OFFCURVE",
"243 400 OFFCURVE",
"245 207 CURVE SMOOTH",
"247 -11 OFFCURVE",
"399 -73 OFFCURVE",
"496 -75 CURVE"
);
}
);
width = 600;
}
);
},
{
export = 0;
glyphname = _arribatres;
lastChange = "2024-02-16 04:22:05 +0000";
layers = (
{
layerId = "45F6A7D2-68A2-4980-BE0C-7C210C91EB90";
paths = (
{
closed = 1;
nodes = (
"413 495 OFFCURVE",
"437 584 OFFCURVE",
"436 684 CURVE",
"70 684 LINE",
"70 575 LINE",
"306 575 LINE",
"298 521 OFFCURVE",
"272 488 OFFCURVE",
"237 466 CURVE",
"358 441 LINE"
);
}
);
width = 496;
}
);
},
{
export = 0;
glyphname = _dash;
lastChange = "2024-02-16 04:22:05 +0000";
layers = (
{
layerId = "45F6A7D2-68A2-4980-BE0C-7C210C91EB90";
paths = (
{
closed = 1;
nodes = (
"534 588 LINE",
"535 698 LINE",
"70 698 LINE",
"70 588 LINE"
);
}
);
width = 595;
}
);
},
{
export = 0;
glyphname = _diag;
lastChange = "2024-02-16 04:22:05 +0000";
layers = (
{
layerId = "45F6A7D2-68A2-4980-BE0C-7C210C91EB90";
paths = (
{
closed = 1;
nodes = (
"290 406 LINE",
"529 579 LINE",
"337 579 LINE",
"70 406 LINE"
);
}
);
width = 589;
}
);
},
{
export = 0;
glyphname = _rayitaAbaDer;
lastChange = "2024-02-16 04:22:05 +0000";
layers = (
{
layerId = "45F6A7D2-68A2-4980-BE0C-7C210C91EB90";
paths = (
{
closed = 1;
nodes = (
"446 -43 LINE",
"211 279 LINE",
"70 272 LINE",
"300 -43 LINE"
);
}
);
width = 506;
}
);
},
{
export = 0;
glyphname = _rayitaArrIzq;
lastChange = "2024-02-16 04:22:05 +0000";
layers = (
{
layerId = "45F6A7D2-68A2-4980-BE0C-7C210C91EB90";
paths = (
{
closed = 1;
nodes = (
"446 587 LINE",
"300 587 LINE",
"70 272 LINE"
);
}
);
width = 506;
}
);
},
{
export = 0;
glyphname = "abajo-six";
lastChange = "2024-02-16 04:22:05 +0000";
layers = (
{
layerId = "45F6A7D2-68A2-4980-BE0C-7C210C91EB90";
paths = (
{
closed = 1;
nodes = (
"540 1 LINE",
"540 497 LINE",
"438 497 LINE SMOOTH",
"259 497 OFFCURVE",
"70 384 OFFCURVE",
"70 132 CURVE SMOOTH",
"70 1 LINE"
);
},
{
closed = 1;
nodes = (
"186 131 LINE SMOOTH",
"186 310 OFFCURVE",
"309 372 OFFCURVE",
"424 387 CURVE",
"424 112 LINE",
"186 112 LINE"
);
}
);
width = 600;
}
);
},
{
export = 0;
glyphname = alternative_X;
lastChange = "2024-02-16 04:22:05 +0000";
layers = (
{
layerId = "45F6A7D2-68A2-4980-BE0C-7C210C91EB90";
paths = (
{
closed = 1;
nodes = (
"166 0 LINE",
"166 133 OFFCURVE",
"241 226 OFFCURVE",
"328 267 CURVE",
"498 0 LINE",
"634 0 LINE",
"431 321 LINE",
"548 379 OFFCURVE",
"633 522 OFFCURVE",
"635 700 CURVE",
"519 700 LINE",
"519 567 OFFCURVE",
"455 460 OFFCURVE",
"369 420 CURVE",
"191 700 LINE",
"53 700 LINE",
"265 366 LINE",
"149 308 OFFCURVE",
"52 179 OFFCURVE",
"50 0 CURVE"
);
}
);
width = 689;
}
);
leftMetricsKey = T;
},
{
export = 0;
glyphname = alternative_Y;
lastChange = "2023-12-21 04:29:56 +0000";
layers = (
{
layerId = "45F6A7D2-68A2-4980-BE0C-7C210C91EB90";
paths = (
{
closed = 0;
nodes = (
"53 105 LINE",
"53 0 LINE",
"113 0 LINE SMOOTH",
"291 0 OFFCURVE",
"523 44 OFFCURVE",
"523 320 CURVE SMOOTH",
"523 700 LINE",
"408 700 LINE",
"408 429 LINE",
"278 429 OFFCURVE",
"113 498 OFFCURVE",
"114 700 CURVE",
"0 700 LINE",
"4 426 OFFCURVE",
"231 291 OFFCURVE",
"408 297 CURVE",
"408 293 LINE"
);
}
);
width = 523;
}
);
},
{
export = 0;
glyphname = anillo;
lastChange = "2024-02-16 04:22:05 +0000";
layers = (
{
layerId = "45F6A7D2-68A2-4980-BE0C-7C210C91EB90";
paths = (
{
closed = 1;
nodes = (
"319 565 OFFCURVE",
"340 574 OFFCURVE",
"354 584 CURVE SMOOTH",
"374 599 OFFCURVE",
"389 622 OFFCURVE",
"389 656 CURVE SMOOTH",
"389 678 LINE SMOOTH",
"389 712 OFFCURVE",
"375 735 OFFCURVE",
"354 749 CURVE SMOOTH",
"339 758 OFFCURVE",
"319 768 OFFCURVE",
"301 768 CURVE SMOOTH",
"282 768 OFFCURVE",
"261 761 OFFCURVE",
"246 749 CURVE SMOOTH",
"228 734 OFFCURVE",
"212 712 OFFCURVE",
"212 678 CURVE SMOOTH",
"212 656 LINE SMOOTH",
"212 622 OFFCURVE",
"227 598 OFFCURVE",
"246 584 CURVE SMOOTH",
"261 574 OFFCURVE",
"282 565 OFFCURVE",
"301 565 CURVE SMOOTH"
);
},
{
closed = 1;
nodes = (
"297 604 OFFCURVE",
"287 607 OFFCURVE",
"282 610 CURVE SMOOTH",
"267 620 OFFCURVE",
"256 632 OFFCURVE",
"256 657 CURVE SMOOTH",
"256 675 LINE SMOOTH",
"256 701 OFFCURVE",
"267 715 OFFCURVE",
"283 723 CURVE SMOOTH",
"291 727 OFFCURVE",
"297 726 OFFCURVE",
"301 727 CURVE SMOOTH",
"305 728 OFFCURVE",
"312 726 OFFCURVE",
"320 723 CURVE SMOOTH",
"336 717 OFFCURVE",
"346 701 OFFCURVE",
"346 675 CURVE SMOOTH",
"346 657 LINE SMOOTH",
"346 632 OFFCURVE",
"335 620 OFFCURVE",
"320 610 CURVE SMOOTH",
"315 607 OFFCURVE",
"305 606 OFFCURVE",
"301 605 CURVE SMOOTH"
);
}
);
width = 600;
}
);
},
{
export = 0;
glyphname = anillocopy;
lastChange = "2024-02-16 04:22:05 +0000";
layers = (
{
layerId = "45F6A7D2-68A2-4980-BE0C-7C210C91EB90";
paths = (
{
closed = 1;
nodes = (
"465 0 OFFCURVE",
"600 135 OFFCURVE",
"600 300 CURVE SMOOTH",
"600 466 OFFCURVE",
"465 601 OFFCURVE",
"300 601 CURVE SMOOTH",
"135 601 OFFCURVE",
"0 466 OFFCURVE",
"0 300 CURVE SMOOTH",
"0 135 OFFCURVE",
"135 0 OFFCURVE",
"300 0 CURVE SMOOTH"
);
},
{
closed = 1;
nodes = (
"187 95 OFFCURVE",
"95 187 OFFCURVE",
"95 300 CURVE SMOOTH",
"95 414 OFFCURVE",
"187 506 OFFCURVE",
"300 506 CURVE SMOOTH",
"413 506 OFFCURVE",
"505 414 OFFCURVE",
"505 300 CURVE SMOOTH",
"505 187 OFFCURVE",
"413 95 OFFCURVE",
"300 95 CURVE SMOOTH"
);
}
);
width = 600;
}
);
},
{
export = 0;
glyphname = arriba_3;
lastChange = "2024-04-27 03:11:36 +0000";
layers = (
{
layerId = "45F6A7D2-68A2-4980-BE0C-7C210C91EB90";
paths = (
{
closed = 1;
nodes = (
"165 349 LINE SMOOTH",
"305 349 OFFCURVE",
"503 351 OFFCURVE",
"503 700 CURVE",
"74 700 LINE",
"74 598 LINE",
"385 598 LINE",
"384 495 OFFCURVE",
"322 449 OFFCURVE",
"150 449 CURVE",
"150 349 LINE"
);
}
);
width = 533;
}
);
},
{
export = 0;
glyphname = "barra-inclinada";
lastChange = "2024-04-27 03:11:34 +0000";
layers = (
{
layerId = "45F6A7D2-68A2-4980-BE0C-7C210C91EB90";
paths = (
{
closed = 1;
nodes = (
"159 0 LINE",
"703 700 LINE",
"561 700 LINE",
"17 0 LINE"
);
}
);
width = 692;
}
);
},
{
export = 0;
glyphname = "barra-muyinclinada";
lastChange = "2024-04-27 03:11:31 +0000";
layers = (
{
layerId = "45F6A7D2-68A2-4980-BE0C-7C210C91EB90";
paths = (
{
closed = 1;
nodes = (
"70 155 LINE",
"377 349 LINE",
"377 455 LINE",
"70 261 LINE"
);
}
);
width = 427;
}
);
leftMetricsKey = N;
rightMetricsKey = N;
},
{
export = 0;
glyphname = barrita;
lastChange = "2024-02-16 04:22:05 +0000";
layers = (
{
layerId = "45F6A7D2-68A2-4980-BE0C-7C210C91EB90";
paths = (
{
closed = 1;
nodes = (
"214 -84 LINE",
"214 700 LINE",
"123 700 LINE",
"123 -84 LINE"
);
}
);
width = 600;
}
);
},
{
export = 0;
glyphname = baston;
lastChange = "2024-02-16 04:22:05 +0000";
layers = (
{
layerId = "45F6A7D2-68A2-4980-BE0C-7C210C91EB90";
paths = (
{
closed = 1;
nodes = (
"114 0 LINE",
"114 700 LINE",
"2 700 LINE",
"2 0 LINE"
);
}
);
width = 116;
}
);
},
{
export = 0;
glyphname = bastonCurvo_corto;
lastChange = "2024-04-27 03:11:28 +0000";
layers = (
{
layerId = "45F6A7D2-68A2-4980-BE0C-7C210C91EB90";
paths = (
{
closed = 1;
nodes = (
"463 113 LINE",
"463 215 LINE",
"395 215 LINE SMOOTH",
"265 215 OFFCURVE",
"156 245 OFFCURVE",
"156 449 CURVE SMOOTH",
"156 535 LINE",
"40 535 LINE",
"40 448 LINE SMOOTH",
"40 172 OFFCURVE",
"213 113 OFFCURVE",
"395 113 CURVE SMOOTH"
);
}
);
width = 1102;
}
);
},
{
export = 0;
glyphname = baston_N;
lastChange = "2024-02-16 04:22:05 +0000";
layers = (
{
layerId = "45F6A7D2-68A2-4980-BE0C-7C210C91EB90";
paths = (
{
closed = 1;
nodes = (
"520 0 LINE",
"520 351 LINE SMOOTH",
"520 579 OFFCURVE",
"357 700 OFFCURVE",
"91 700 CURVE SMOOTH",
"0 700 LINE",
"113 586 LINE",
"262 587 OFFCURVE",
"405 531 OFFCURVE",
"404 351 CURVE SMOOTH",
"404 0 LINE"
);
}
);
width = 487;
}
);
},
{
export = 0;
glyphname = baston_T;
lastChange = "2024-02-16 04:22:05 +0000";
layers = (
{
layerId = "45F6A7D2-68A2-4980-BE0C-7C210C91EB90";
paths = (
{
closed = 1;
nodes = (
"354 108 LINE",
"238 117 OFFCURVE",
"116 162 OFFCURVE",
"116 334 CURVE SMOOTH",
"116 590 LINE",
"0 590 LINE",
"0 333 LINE SMOOTH",
"7 87 OFFCURVE",
"187 9 OFFCURVE",
"354 -1 CURVE"
);
}
);
width = 354;
}
);
},
{
export = 0;
glyphname = baston_curvo;
lastChange = "2024-04-27 03:10:44 +0000";
layers = (
{
layerId = "45F6A7D2-68A2-4980-BE0C-7C210C91EB90";
paths = (
{
closed = 1;
nodes = (
"318 -190 OFFCURVE",
"494 -102 OFFCURVE",
"501 144 CURVE",
"501 535 LINE",
"389 535 LINE",
"389 135 LINE SMOOTH",
"389 -30 OFFCURVE",
"267 -82 OFFCURVE",
"151 -91 CURVE",
"151 -200 LINE"
);
}
);
width = 551;
}
);
},
{
export = 0;
glyphname = baston_n_min;
lastChange = "2024-04-27 03:11:12 +0000";
layers = (
{
layerId = "45F6A7D2-68A2-4980-BE0C-7C210C91EB90";
paths = (
{
closed = 1;
nodes = (
"463 0 LINE",
"463 200 LINE SMOOTH",
"463 476 OFFCURVE",
"290 535 OFFCURVE",
"108 535 CURVE SMOOTH",
"40 535 LINE",
"40 433 LINE",
"108 433 LINE SMOOTH",
"238 433 OFFCURVE",
"347 403 OFFCURVE",
"347 199 CURVE SMOOTH",
"347 0 LINE"
);
}
);
width = 513;
}
);
rightMetricsKey = N;
},
{
export = 0;
glyphname = "bracket-part";
lastChange = "2024-02-16 04:22:05 +0000";
layers = (
{
layerId = "45F6A7D2-68A2-4980-BE0C-7C210C91EB90";
paths = (
{
closed = 1;
nodes = (
"128 -133 LINE SMOOTH",
"214 -133 OFFCURVE",
"265 -105 OFFCURVE",
"293 -31 CURVE SMOOTH",
"335 79 OFFCURVE",
"213 130 OFFCURVE",
"234 203 CURVE SMOOTH",
"252 266 OFFCURVE",
"283 259 OFFCURVE",
"314 259 CURVE SMOOTH",
"337 259 LINE",
"337 329 LINE",
"237 329 OFFCURVE",
"175 306 OFFCURVE",
"154 218 CURVE SMOOTH",
"128 109 OFFCURVE",
"238 71 OFFCURVE",
"213 -4 CURVE SMOOTH",
"199 -46 OFFCURVE",
"148 -43 OFFCURVE",
"147 -43 CURVE SMOOTH",
"110 -43 LINE",
"110 -133 LINE"
);
}
);
width = 447;
}
);
},
{
export = 0;
glyphname = "c-cedilla";
lastChange = "2024-02-16 04:22:05 +0000";
layers = (
{
layerId = "45F6A7D2-68A2-4980-BE0C-7C210C91EB90";
paths = (
{
closed = 1;
nodes = (
"300 -122 LINE SMOOTH",
"389 -122 OFFCURVE",
"453 -72 OFFCURVE",
"453 29 CURVE SMOOTH",
"453 99 OFFCURVE",
"417 137 OFFCURVE",
"359 158 CURVE",
"246 158 LINE",
"290 113 LINE",
"347 111 OFFCURVE",
"376 82 OFFCURVE",
"376 27 CURVE SMOOTH",
"376 -27 OFFCURVE",
"351 -48 OFFCURVE",
"293 -49 CURVE SMOOTH",
"247 -48 OFFCURVE",
"222 -34 OFFCURVE",
"215 0 CURVE",
"145 -37 LINE",
"168 -94 OFFCURVE",
"220 -122 OFFCURVE",
"286 -122 CURVE SMOOTH"
);
}
);
width = 600;
}
);
},
{
export = 0;
glyphname = comilla;
lastChange = "2024-02-16 04:22:05 +0000";
layers = (
{
layerId = "45F6A7D2-68A2-4980-BE0C-7C210C91EB90";
paths = (
{
closed = 1;
nodes = (
"292 414 OFFCURVE",
"440 499 OFFCURVE",
"440 716 CURVE",
"440 716 OFFCURVE",
"440 600 OFFCURVE",
"440 716 CURVE",
"324 717 LINE",
"324 545 OFFCURVE",
"275 487 OFFCURVE",
"243 478 CURVE",
"243 397 LINE"
);
}
);
width = 500;
}
);
},
{
export = 0;
glyphname = component;
lastChange = "2024-02-16 04:22:05 +0000";
layers = (
{
layerId = "45F6A7D2-68A2-4980-BE0C-7C210C91EB90";
paths = (
{
closed = 1;
nodes = (
"292 0 OFFCURVE",
"365 0 OFFCURVE",
"399 29 CURVE SMOOTH",
"439 62 OFFCURVE",
"446 98 OFFCURVE",
"445 134 CURVE SMOOTH",
"444 172 OFFCURVE",
"420 206 OFFCURVE",
"410 221 CURVE SMOOTH",
"401 234 OFFCURVE",
"391 249 OFFCURVE",
"391 270 CURVE SMOOTH",
"390 294 OFFCURVE",
"399 303 OFFCURVE",
"411 312 CURVE SMOOTH",
"432 328 OFFCURVE",
"477 329 OFFCURVE",
"477 329 CURVE",
"477 393 LINE",
"469 393 LINE SMOOTH",
"409 393 OFFCURVE",
"333 356 OFFCURVE",
"324 294 CURVE SMOOTH",
"318 253 OFFCURVE",
"330 226 OFFCURVE",
"347 199 CURVE SMOOTH",
"356 184 OFFCURVE",
"377 156 OFFCURVE",
"379 134 CURVE SMOOTH",
"381 113 OFFCURVE",
"372 95 OFFCURVE",
"358 85 CURVE SMOOTH",
"347 77 OFFCURVE",
"329 75 OFFCURVE",
"310 74 CURVE SMOOTH",
"292 74 LINE",
"292 0 LINE"
);
}
);
width = 600;
}
);
},
{
export = 0;
glyphname = contraforma;
lastChange = "2024-02-16 04:22:05 +0000";
layers = (
{
layerId = "45F6A7D2-68A2-4980-BE0C-7C210C91EB90";
paths = (
{
closed = 1;
nodes = (
"192 111 LINE SMOOTH",
"284 111 OFFCURVE",
"334 141 OFFCURVE",
"334 224 CURVE SMOOTH",
"334 306 OFFCURVE",
"284 336 OFFCURVE",
"192 336 CURVE SMOOTH",
"70 336 LINE",
"70 111 LINE"
);
}
);
width = 394;
}
);
},
{
export = 0;
glyphname = contraformaBarriba;
lastChange = "2024-02-16 04:22:05 +0000";
layers = (
{
layerId = "45F6A7D2-68A2-4980-BE0C-7C210C91EB90";
paths = (
{
closed = 1;
nodes = (
"306 590 LINE",
"70 590 LINE",
"88 462 OFFCURVE",
"212 449 OFFCURVE",
"306 443 CURVE"
);
}
);
width = 366;
}
);
},
{
export = 0;
glyphname = cruz;
lastChange = "2024-02-16 04:22:05 +0000";
layers = (
{
layerId = "45F6A7D2-68A2-4980-BE0C-7C210C91EB90";
paths = (
{
closed = 1;
nodes = (
"548 459 LINE",
"391 585 LINE",
"548 712 LINE",
"469 712 LINE",
"321 585 LINE",
"469 459 LINE"
);
},
{
closed = 1;
nodes = (
"244 459 LINE",
"392 585 LINE",
"244 712 LINE",
"165 712 LINE",
"322 585 LINE",
"165 459 LINE"
);
}
);
width = 730;
}
);
},
{
export = 0;
glyphname = "curva-a-min";
lastChange = "2024-02-16 04:22:05 +0000";
layers = (
{
layerId = "45F6A7D2-68A2-4980-BE0C-7C210C91EB90";
paths = (
{
closed = 1;
nodes = (
"489 325 LINE",
"487 499 OFFCURVE",
"292 549 OFFCURVE",
"136 549 CURVE SMOOTH",
"91 549 LINE",
"91 460 LINE",
"136 460 LINE SMOOTH",
"241 460 OFFCURVE",
"389 440 OFFCURVE",
"388 306 CURVE"
);
}
);
width = 600;
}
);
},
{
export = 0;
glyphname = "curva-chica";
lastChange = "2024-04-27 03:10:48 +0000";
layers = (
{
layerId = "45F6A7D2-68A2-4980-BE0C-7C210C91EB90";
paths = (
{
closed = 1;
nodes = (
"437 32 LINE",
"437 138 LINE",
"305 138 LINE SMOOTH",
"209 138 OFFCURVE",
"148 178 OFFCURVE",
"148 266 CURVE SMOOTH",
"148 352 OFFCURVE",
"209 393 OFFCURVE",
"305 393 CURVE SMOOTH",
"437 393 LINE",
"437 499 LINE",
"316 499 LINE SMOOTH",
"167 499 OFFCURVE",
"44 430 OFFCURVE",
"44 266 CURVE SMOOTH",
"44 101 OFFCURVE",
"167 32 OFFCURVE",
"316 32 CURVE SMOOTH"
);
}
);
width = 475;
}
);
},
{
export = 0;
glyphname = curva_3;
lastChange = "2024-04-27 03:11:02 +0000";
layers = (
{
layerId = "45F6A7D2-68A2-4980-BE0C-7C210C91EB90";
paths = (
{
closed = 1;
nodes = (
"202 0 LINE SMOOTH",
"345 0 OFFCURVE",
"460 68 OFFCURVE",
"460 225 CURVE SMOOTH",
"460 329 OFFCURVE",
"411 394 OFFCURVE",
"329 426 CURVE SMOOTH",
"261 453 OFFCURVE",
"161 453 OFFCURVE",
"107 453 CURVE",
"107 346 LINE",
"190 346 LINE SMOOTH",
"301 346 OFFCURVE",
"355 299 OFFCURVE",
"355 218 CURVE SMOOTH",
"355 152 OFFCURVE",
"305 107 OFFCURVE",
"213 107 CURVE SMOOTH",
"30 107 LINE",
"30 0 LINE"
);
}
);
width = 500;
}
);
},
{
export = 0;
glyphname = curvacontracurva;
lastChange = "2024-02-16 04:22:05 +0000";
layers = (
{
layerId = "45F6A7D2-68A2-4980-BE0C-7C210C91EB90";
paths = (
{
closed = 1;
nodes = (
"340 113 LINE",
"339 201 OFFCURVE",
"291 265 OFFCURVE",
"234 294 CURVE SMOOTH",
"183 320 LINE SMOOTH",
"141 340 OFFCURVE",
"109 392 OFFCURVE",
"109 458 CURVE",
"52 458 LINE",
"53 370 OFFCURVE",
"94 300 OFFCURVE",
"152 271 CURVE SMOOTH",
"203 244 LINE SMOOTH",
"246 224 OFFCURVE",
"283 179 OFFCURVE",
"283 113 CURVE"
);
}
);
width = 367;
}
);
},
{
export = 0;
glyphname = curvita;
lastChange = "2024-02-16 04:22:05 +0000";
layers = (
{
layerId = "45F6A7D2-68A2-4980-BE0C-7C210C91EB90";
paths = (
{
closed = 1;
nodes = (
"384 519 OFFCURVE",
"422 580 OFFCURVE",
"421 662 CURVE",
"358 662 LINE",
"358 609 OFFCURVE",
"341 581 OFFCURVE",
"293 581 CURVE SMOOTH",
"245 581 OFFCURVE",
"228 609 OFFCURVE",
"228 662 CURVE",
"165 662 LINE",
"165 580 OFFCURVE",
"203 519 OFFCURVE",
"294 519 CURVE SMOOTH"
);
}
);
width = 600;
}
);
},
{
export = 0;
glyphname = diag1;
lastChange = "2024-02-16 04:22:05 +0000";
layers = (
{
layerId = "45F6A7D2-68A2-4980-BE0C-7C210C91EB90";
paths = (
{
closed = 1;
nodes = (
"498 513 LINE",
"248 656 LINE",
"225 617 LINE",
"475 474 LINE"
);
}
);
width = 730;
}
);
},
{
export = 0;
glyphname = diag2;
lastChange = "2024-02-16 04:22:05 +0000";
layers = (
{
layerId = "45F6A7D2-68A2-4980-BE0C-7C210C91EB90";
paths = (
{
closed = 1;
nodes = (
"497 618 LINE",
"474 657 LINE",
"226 512 LINE",
"249 473 LINE"
);
}
);
width = 730;
}
);
},
{
export = 0;
glyphname = dos_o_s;
lastChange = "2023-12-21 04:29:56 +0000";
layers = (
{
layerId = "45F6A7D2-68A2-4980-BE0C-7C210C91EB90";
paths = (
{
closed = 0;
nodes = (
"204 533 LINE",
"174 533 LINE SMOOTH",
"82 533 OFFCURVE",
"1 466 OFFCURVE",
"1 380 CURVE SMOOTH",
"1 293 OFFCURVE",
"82 225 OFFCURVE",
"174 228 CURVE SMOOTH",
"204 229 LINE"
);
},
{
closed = 0;
nodes = (
"204 304 LINE",
"174 304 LINE SMOOTH",
"118 304 OFFCURVE",
"69 333 OFFCURVE",
"69 380 CURVE SMOOTH",
"69 427 OFFCURVE",
"118 456 OFFCURVE",
"174 456 CURVE SMOOTH",
"204 456 LINE"
);
},
{
closed = 0;
nodes = (
"1 152 LINE",
"1 65 OFFCURVE",
"82 0 OFFCURVE",
"174 0 CURVE SMOOTH",
"204 0 LINE SMOOTH",
"295 0 OFFCURVE",
"367 65 OFFCURVE",
"367 152 CURVE SMOOTH",
"367 238 OFFCURVE",
"295 304 OFFCURVE",
"204 304 CURVE SMOOTH",
"174 304 LINE"
);
},
{
closed = 0;
nodes = (
"174 228 LINE",
"204 228 LINE SMOOTH",
"262 228 OFFCURVE",
"299 199 OFFCURVE",
"299 152 CURVE SMOOTH",
"299 105 OFFCURVE",
"262 76 OFFCURVE",
"204 76 CURVE SMOOTH",
"174 76 LINE SMOOTH",
"118 76 OFFCURVE",
"69 105 OFFCURVE",
"69 152 CURVE"
);
}
);
width = 367;
}
);
},
{
export = 0;
glyphname = half_curve;
lastChange = "2024-02-16 04:22:05 +0000";
layers = (
{
layerId = "45F6A7D2-68A2-4980-BE0C-7C210C91EB90";
paths = (
{
closed = 1;
nodes = (
"373 283 LINE",
"329 304 OFFCURVE",
"295 363 OFFCURVE",
"239 378 CURVE SMOOTH",
"228 381 OFFCURVE",
"224 383 OFFCURVE",
"203 383 CURVE SMOOTH",
"121 383 OFFCURVE",
"63 319 OFFCURVE",
"63 238 CURVE SMOOTH",
"63 197 LINE",
"153 197 LINE",
"153 229 LINE SMOOTH",
"153 276 OFFCURVE",
"182 294 OFFCURVE",
"202 294 CURVE SMOOTH",
"273 294 OFFCURVE",
"291 215 OFFCURVE",
"370 191 CURVE"
);
}
);
width = 600;
}
);
},
{
export = 0;
glyphname = ijdotless;
lastChange = "2024-04-27 03:11:08 +0000";
layers = (
{
layerId = "45F6A7D2-68A2-4980-BE0C-7C210C91EB90";
paths = (
{
closed = 1;
nodes = (
"182 0 LINE",
"182 535 LINE",
"70 535 LINE",
"70 0 LINE"
);
}
);
width = 252;
}
);
leftMetricsKey = "=H";
rightMetricsKey = "=|H";
},
{
export = 0;
glyphname = "min-baston";
lastChange = "2024-02-16 04:22:05 +0000";
layers = (
{
layerId = "45F6A7D2-68A2-4980-BE0C-7C210C91EB90";
paths = (
{
closed = 1;
nodes = (
"408 0 LINE",
"408 520 LINE",
"319 520 LINE",
"319 0 LINE"
);
},
{
closed = 1;
nodes = (
"408 618 LINE",
"408 700 LINE",
"319 700 LINE",
"319 618 LINE"
);
}
);
width = 730;
}
);
},
{
export = 0;
glyphname = ojo_e_y_a;
lastChange = "2024-04-27 03:11:05 +0000";
layers = (
{
layerId = "45F6A7D2-68A2-4980-BE0C-7C210C91EB90";
paths = (
{
closed = 1;
nodes = (
"165 184 LINE SMOOTH",
"305 184 OFFCURVE",
"503 186 OFFCURVE",
"503 535 CURVE",
"52 535 LINE",
"154 433 LINE",
"385 433 LINE",
"384 330 OFFCURVE",
"322 284 OFFCURVE",
"150 284 CURVE",
"141 184 LINE"
);
}
);
width = 533;
}
);
},
{
export = 0;
glyphname = old_W;
lastChange = "2024-02-16 04:22:05 +0000";
layers = (
{
layerId = "45F6A7D2-68A2-4980-BE0C-7C210C91EB90";
paths = (
{
closed = 1;
nodes = (
"177 0 LINE",
"196 1 LINE SMOOTH",
"279 1 OFFCURVE",
"366 40 OFFCURVE",
"433 91 CURVE",
"433 0 LINE",
"530 0 LINE",
"549 1 LINE SMOOTH",
"715 1 OFFCURVE",
"898 89 OFFCURVE",
"901 335 CURVE SMOOTH",
"903 487 OFFCURVE",
"899 448 OFFCURVE",
"901 700 CURVE",
"785 700 LINE",
"785 336 LINE SMOOTH",
"785 164 OFFCURVE",
"665 120 OFFCURVE",
"549 110 CURVE",
"549 700 LINE",
"434 700 LINE",
"434 336 LINE SMOOTH",
"434 164 OFFCURVE",
"312 120 OFFCURVE",
"196 110 CURVE",
"196 700 LINE",
"80 700 LINE",
"80 0 LINE"
);
}
);
width = 962;
}
);
},
{
export = 0;
glyphname = old_Y;
lastChange = "2024-02-16 04:22:05 +0000";
layers = (
{
layerId = "45F6A7D2-68A2-4980-BE0C-7C210C91EB90";
paths = (
{
closed = 1;
nodes = (
"153 0 LINE SMOOTH",
"331 -6 OFFCURVE",
"559 44 OFFCURVE",
"563 320 CURVE SMOOTH",
"563 700 LINE",
"448 700 LINE",
"448 429 LINE",
"318 429 OFFCURVE",
"153 498 OFFCURVE",
"154 700 CURVE",
"40 700 LINE",
"44 426 OFFCURVE",
"271 319 OFFCURVE",
"448 325 CURVE",
"448 321 LINE SMOOTH",
"448 117 OFFCURVE",
"283 105 OFFCURVE",
"153 105 CURVE SMOOTH",
"93 105 LINE",
"93 0 LINE"
);
}
);
width = 623;
}
);
},
{
export = 0;
glyphname = optional_Y;
lastChange = "2024-02-16 04:22:05 +0000";
layers = (
{
layerId = "45F6A7D2-68A2-4980-BE0C-7C210C91EB90";
paths = (
{
closed = 1;
nodes = (
"584 0 LINE",
"370 338 LINE",
"487 396 OFFCURVE",
"583 522 OFFCURVE",
"585 700 CURVE",
"469 700 LINE",
"469 567 OFFCURVE",
"398 471 OFFCURVE",
"312 431 CURVE",
"141 700 LINE",
"0 700 LINE",
"444 0 LINE"
);
}
);
width = 623;
}
);
},
{
export = 0;
glyphname = palito;
lastChange = "2024-02-16 04:22:05 +0000";
layers = (
{
layerId = "45F6A7D2-68A2-4980-BE0C-7C210C91EB90";
paths = (
{
closed = 1;
nodes = (
"385 425 LINE",
"383 701 LINE",
"338 701 LINE",
"339 425 LINE"
);
}
);
width = 730;
}
);
},
{
export = 0;
glyphname = parte_arriba_y;
lastChange = "2024-04-27 03:11:25 +0000";
layers = (
{
layerId = "45F6A7D2-68A2-4980-BE0C-7C210C91EB90";
paths = (
{
closed = 1;
nodes = (
"499 96 LINE",
"499 389 LINE",
"389 389 LINE",
"389 199 LINE",
"270 206 OFFCURVE",
"142 253 OFFCURVE",
"142 432 CURVE SMOOTH",
"142 535 LINE",
"30 535 LINE",
"30 431 LINE SMOOTH",
"30 179 OFFCURVE",
"218 96 OFFCURVE",
"389 96 CURVE SMOOTH"
);
}
);
width = 551;
}
);
},
{
export = 0;
glyphname = pata_R;
lastChange = "2024-02-16 04:22:05 +0000";
layers = (
{
layerId = "45F6A7D2-68A2-4980-BE0C-7C210C91EB90";
paths = (
{
closed = 1;
nodes = (
"308 0 LINE",
"122 322 LINE",
"0 322 LINE",
"186 0 LINE"
);
}
);
width = 308;
}
);
},
{
export = 0;
glyphname = punto;
lastChange = "2024-03-27 22:20:41 +0000";
layers = (
{
layerId = "45F6A7D2-68A2-4980-BE0C-7C210C91EB90";
paths = (
{
closed = 1;
nodes = (
"110 0 LINE",
"110 110 LINE",
"0 110 LINE",
"0 0 LINE"
);
}
);
width = 110;
}
);
},
{
export = 0;
glyphname = simplecurve;
lastChange = "2024-04-27 03:11:20 +0000";
layers = (
{
layerId = "45F6A7D2-68A2-4980-BE0C-7C210C91EB90";
paths = (
{
closed = 1;
nodes = (
"145 -4 LINE SMOOTH",
"288 -4 OFFCURVE",
"403 64 OFFCURVE",
"403 221 CURVE SMOOTH",
"403 325 OFFCURVE",
"354 390 OFFCURVE",
"272 422 CURVE SMOOTH",
"204 449 OFFCURVE",
"104 449 OFFCURVE",
"50 449 CURVE",
"50 342 LINE",
"133 342 LINE SMOOTH",
"244 342 OFFCURVE",
"298 295 OFFCURVE",
"298 214 CURVE SMOOTH",
"298 148 OFFCURVE",
"248 103 OFFCURVE",
"156 103 CURVE SMOOTH",
"50 103 LINE",
"50 -4 LINE"
);
}
);
width = 453;
}
);
},
{
export = 0;
glyphname = spine;
lastChange = "2024-02-16 04:22:05 +0000";
layers = (
{
layerId = "45F6A7D2-68A2-4980-BE0C-7C210C91EB90";
paths = (
{
closed = 1;
nodes = (
"179 -7 LINE SMOOTH",
"300 -7 OFFCURVE",
"346 94 OFFCURVE",
"346 144 CURVE SMOOTH",
"346 169 OFFCURVE",
"349 243 OFFCURVE",
"246 286 CURVE SMOOTH",
"191 309 OFFCURVE",
"172 343 OFFCURVE",
"166 364 CURVE SMOOTH",
"164 374 OFFCURVE",
"163 383 OFFCURVE",
"163 390 CURVE SMOOTH",
"163 449 OFFCURVE",
"216 460 OFFCURVE",
"240 460 CURVE SMOOTH",
"278 460 LINE",
"278 548 LINE",
"241 548 LINE SMOOTH",
"109 548 OFFCURVE",
"76 429 OFFCURVE",
"76 387 CURVE SMOOTH",
"76 379 OFFCURVE",
"76 352 OFFCURVE",
"94 321 CURVE SMOOTH",
"119 276 OFFCURVE",
"159 256 OFFCURVE",
"192 234 CURVE SMOOTH",
"225 214 OFFCURVE",
"258 197 OFFCURVE",
"258 147 CURVE SMOOTH",
"258 89 OFFCURVE",
"206 83 OFFCURVE",
"180 83 CURVE SMOOTH",
"143 83 LINE",
"143 -7 LINE"
);
}
);
width = 367;
}
);
},
{
export = 0;
glyphname = vchiquita;
lastChange = "2024-02-16 04:22:05 +0000";
layers = (
{
layerId = "45F6A7D2-68A2-4980-BE0C-7C210C91EB90";
paths = (
{
closed = 1;
nodes = (
"281 0 LINE",
"438 288 LINE",
"357 288 LINE",
"240 75 LINE",
"122 288 LINE",
"41 288 LINE",
"198 0 LINE"
);
}
);
width = 600;
}
);
},
{
export = 0;
glyphname = arriba_3.old;
lastChange = "2024-04-27 03:11:18 +0000";
layers = (
{
layerId = "45F6A7D2-68A2-4980-BE0C-7C210C91EB90";
paths = (
{
closed = 1;
nodes = (
"262 357 OFFCURVE",
"460 357 OFFCURVE",
"460 700 CURVE",
"44 700 LINE",
"44 598 LINE",
"340 598 LINE",
"324 506 OFFCURVE",
"300 457 OFFCURVE",
"122 457 CURVE",
"122 357 LINE"
);
}
);
width = 500;
}
);
},
{
export = 0;
glyphname = baston_N.001;
lastChange = "2024-02-16 04:22:05 +0000";
layers = (
{
layerId = "45F6A7D2-68A2-4980-BE0C-7C210C91EB90";
paths = (
{
closed = 1;
nodes = (
"522 0 LINE",
"522 365 LINE SMOOTH",
"522 641 OFFCURVE",
"293 700 OFFCURVE",
"111 700 CURVE SMOOTH",
"51 700 LINE",
"51 598 LINE",
"111 598 LINE SMOOTH",
"241 598 OFFCURVE",
"406 568 OFFCURVE",
"406 364 CURVE SMOOTH",
"406 0 LINE"
);
}
);
width = 487;
}
);
},
{
export = 0;
glyphname = newGlyph.001;
lastChange = "2024-02-16 04:22:05 +0000";
layers = (
{
layerId = "45F6A7D2-68A2-4980-BE0C-7C210C91EB90";
paths = (
{
closed = 1;
nodes = (
"449 0 OFFCURVE",
"554 68 OFFCURVE",
"554 225 CURVE SMOOTH",
"554 329 OFFCURVE",
"500 384 OFFCURVE",
"414 416 CURVE",
"437 426 OFFCURVE",
"456 439 OFFCURVE",
"473 456 CURVE SMOOTH",
"528 511 OFFCURVE",
"547 599 OFFCURVE",
"546 699 CURVE",
"244 699 LINE",
"244 590 LINE",
"416 590 LINE",
"408 536 OFFCURVE",
"387 503 OFFCURVE",
"352 481 CURVE SMOOTH",
"305 451 OFFCURVE",
"298 446 OFFCURVE",
"244 443 CURVE",
"244 347 LINE",
"307 347 LINE SMOOTH",
"399 347 OFFCURVE",
"444 304 OFFCURVE",
"444 223 CURVE SMOOTH",
"444 140 OFFCURVE",
"399 110 OFFCURVE",
"307 110 CURVE SMOOTH",
"306 110 LINE",
"306 0 LINE"
);
},
{
closed = 1;
nodes = (
"318 110 LINE",
"317 110 LINE SMOOTH",
"225 110 OFFCURVE",
"179 140 OFFCURVE",
"179 223 CURVE SMOOTH",
"179 304 OFFCURVE",
"225 347 OFFCURVE",
"317 347 CURVE SMOOTH",
"380 347 LINE",
"380 443 LINE",
"326 446 OFFCURVE",
"319 451 OFFCURVE",
"272 481 CURVE SMOOTH",
"237 503 OFFCURVE",
"216 536 OFFCURVE",
"208 590 CURVE",
"380 590 LINE",
"380 699 LINE",
"78 699 LINE",
"77 599 OFFCURVE",
"96 511 OFFCURVE",
"151 456 CURVE SMOOTH",
"168 439 OFFCURVE",
"187 426 OFFCURVE",
"210 416 CURVE",
"124 384 OFFCURVE",
"70 329 OFFCURVE",
"70 225 CURVE SMOOTH",
"70 68 OFFCURVE",
"175 0 OFFCURVE",
"318 0 CURVE"
);
}
);
width = 614;
}
);
},
{
export = 0;
glyphname = newGlyph.002;
lastChange = "2024-02-16 04:22:05 +0000";
layers = (
{
layerId = "45F6A7D2-68A2-4980-BE0C-7C210C91EB90";
paths = (
{
closed = 1;
nodes = (
"320 0 LINE",
"321 194 LINE SMOOTH",
"322 310 OFFCURVE",
"323 234 OFFCURVE",
"321 427 CURVE SMOOTH",
"319 645 OFFCURVE",
"167 707 OFFCURVE",
"70 709 CURVE",
"70 600 LINE",
"109 600 OFFCURVE",
"206 583 OFFCURVE",
"206 426 CURVE SMOOTH",
"205 0 LINE"
);
}
);
width = 382;
}
);
},
{
export = 0;
glyphname = newGlyph.003;
lastChange = "2024-02-16 04:22:05 +0000";
layers = (
{
layerId = "45F6A7D2-68A2-4980-BE0C-7C210C91EB90";
paths = (
{
closed = 1;
nodes = (
"147 0 LINE SMOOTH",
"289 0 OFFCURVE",
"540 49 OFFCURVE",
"538 386 CURVE",
"445 392 LINE SMOOTH",
"365 399 OFFCURVE",
"185 419 OFFCURVE",
"186 589 CURVE",
"540 590 LINE",
"540 700 LINE",
"70 699 LINE",
"70 603 LINE SMOOTH",
"70 294 OFFCURVE",
"422 291 OFFCURVE",
"422 294 CURVE SMOOTH",
"422 223 OFFCURVE",
"339 110 OFFCURVE",
"147 110 CURVE SMOOTH",
"72 110 LINE",
"72 0 LINE"
);
}
);
width = 600;
}
);
},
{
export = 0;
glyphname = newGlyph.004;
lastChange = "2024-02-16 04:22:05 +0000";
layers = (
{
layerId = "45F6A7D2-68A2-4980-BE0C-7C210C91EB90";
paths = (
{
closed = 1;
nodes = (
"542 0 LINE",
"542 105 LINE",
"482 105 LINE SMOOTH",
"352 105 OFFCURVE",
"187 132 OFFCURVE",
"187 336 CURVE SMOOTH",
"187 355 LINE",
"327 355 LINE",
"327 464 LINE",
"187 464 LINE",
"187 700 LINE",
"71 700 LINE",
"71 529 LINE SMOOTH",
"71 412 OFFCURVE",
"69 529 OFFCURVE",
"71 335 CURVE SMOOTH",
"74 59 OFFCURVE",
"300 0 OFFCURVE",
"482 0 CURVE SMOOTH"
);
}
